<?xml version="1.0" standalone="no"?>
<!DOCTYPE svg PUBLIC "-//W3C//DTD SVG 1.1//EN" "http://www.w3.org/Graphics/SVG/1.1/DTD/svg11.dtd" >
<svg xmlns="http://www.w3.org/2000/svg">
<metadata></metadata>
<defs>
<font id="project_paintballdisplay" horiz-adv-x="610" >
<font-face units-per-em="1000" ascent="800" descent="-200" />
<missing-glyph horiz-adv-x="400" />
<glyph unicode=" "  horiz-adv-x="400" />
<glyph unicode="&#x09;" horiz-adv-x="400" />
<glyph unicode="&#xa0;" horiz-adv-x="400" />
<glyph unicode="!" horiz-adv-x="372" d="M68 126h221v-126h-221v126zM20 650h332l-63 -461h-221z" />
<glyph unicode="&#x22;" horiz-adv-x="362" d="M51 405l-11 243l110 4l-9 -247h-90zM212 655l111 -1l-16 -248l-86 6z" />
<glyph unicode="#" horiz-adv-x="738" d="M50 104v162h111l27 117h-75v148h110l28 119h124l-28 -119h80l28 119h185l-28 -119h76v-148h-111l-27 -117h75v-162h-114l-24 -104h-185l24 104h-79l-24 -104h-125l24 104h-72zM285 266h80l27 117h-79z" />
<glyph unicode="$" horiz-adv-x="654" d="M80 19v76q90 -15 195 -17v102q-37 9 -65 18t-60 26t-52.5 39t-34 56.5t-13.5 77.5q0 68 23 115.5t73 77t129 41.5v80h78v-73q102 6 251 -9v-234q-184 4 -251 4v-131q29 -8 49 -14t46 -16t43 -21.5t32.5 -27t23 -36.5t7.5 -46q0 -53 -56 -83t-145 -35v-40h-78v39 q-81 2 -195 31zM275 288v109q-50 -3 -71.5 -11t-21.5 -24q0 -27 24 -44t69 -30zM353 164v-85q92 4 92 29q0 21 -23 33t-69 23z" />
<glyph unicode="%" horiz-adv-x="908" d="M182 658q76 0 116.5 -37t40.5 -108q0 -72 -38.5 -114.5t-106.5 -42.5q-71 0 -107.5 31t-36.5 114q0 69 38.5 113t93.5 44zM158 573q-26 0 -43 -19.5t-17 -48.5q0 -31 13.5 -42t39.5 -11q24 0 38 18.5t14 42.5q0 30 -13 45t-32 15zM665 383q193 0 193 -196 q0 -104 -44.5 -150.5t-148.5 -46.5q-92 0 -139 42t-47 155q0 89 48.5 142.5t137.5 53.5zM617 278q-28 0 -44.5 -24.5t-16.5 -66.5q0 -29 17.5 -50.5t43.5 -21.5q27 0 43.5 18.5t16.5 53.5q0 37 -14.5 64t-45.5 27zM170 7q202 428 314 639h133q-180 -379 -314 -639h-133z" />
<glyph unicode="&#x26;" horiz-adv-x="675" d="M262 423q39 25 58.5 44t19.5 42q0 54 -45 54q-29 0 -41.5 -22.5t-12.5 -52.5q0 -27 21 -65zM526 206q52 -18 100 -18v-171q-92 0 -194 52q-86 -86 -179 -86q-45 0 -91.5 20.5t-79 61t-32.5 89.5q0 69 31.5 119t85.5 89q-24 70 -24 143q0 71 46 121t115 50q45 0 76.5 -21 t45.5 -53t14 -72q0 -30 -9.5 -56t-29.5 -48.5t-38.5 -38.5t-47.5 -37q55 -61 126 -103q41 62 49 112l68 -19q0 -62 -32 -134zM214 266q-36 -40 -36 -85q0 -90 75 -90q32 0 83 41q-75 59 -122 134z" />
<glyph unicode="'" horiz-adv-x="241" d="M50 409q8 160 25 238q58 7 116 0q-18 -150 -47 -240q-9 0 -39.5 1t-54.5 1z" />
<glyph unicode="(" horiz-adv-x="443" d="M224 718h169q-60 -73 -94 -173t-34 -203t34 -203t94 -173h-169q-86 58 -130 158t-44 218t44 218t130 158z" />
<glyph unicode=")" horiz-adv-x="443" d="M219 -68h-169q60 73 94 173t34 203t-34 203t-94 173h169q86 -58 130 -158t44 -218t-44 -218t-130 -158z" />
<glyph unicode="*" horiz-adv-x="499" d="M248 465l-58 -90l-91 58l55 85h-104v107h112l-52 96l95 52l51 -96l59 91l91 -58l-55 -85h98v-107h-107l52 -97l-94 -51z" />
<glyph unicode="+" horiz-adv-x="648" d="M238 582h172v-188h188v-172h-188v-187h-172v187h-188v172h188v188z" />
<glyph unicode="," horiz-adv-x="305" d="M167 -11q-1 6 -12 3.5t-29 -1t-35 5t-29 20.5t-12 45q0 52 28 77t74 25q45 0 74 -31.5t29 -85.5q0 -60 -37 -103t-109 -43v44q58 -3 58 44z" />
<glyph unicode="-" horiz-adv-x="406" d="M50 400h306v-156h-306v156z" />
<glyph unicode="." horiz-adv-x="304" d="M157 177q48 0 72.5 -25t24.5 -67q0 -49 -26 -75.5t-76 -26.5q-102 0 -102 97q0 46 30.5 71.5t76.5 25.5z" />
<glyph unicode="/" horiz-adv-x="447" d="M0 7q202 428 314 639h133q-180 -379 -314 -639h-133z" />
<glyph unicode="0" horiz-adv-x="600" d="M300 660q111 0 187.5 -102.5t76.5 -262.5q0 -305 -264 -305q-135 0 -199.5 78t-64.5 247q0 150 81 247.5t183 97.5zM260 416q-31 0 -53 -24.5t-22 -56.5t23 -56.5t52 -24.5q32 0 52.5 20.5t20.5 60.5q0 41 -20 61t-53 20z" />
<glyph unicode="1" horiz-adv-x="600" d="M142 650h300v-650h-261v391h-51q4 175 12 259z" />
<glyph unicode="2" horiz-adv-x="600" d="M33 365v274q80 14 151 19t146 -2t128.5 -30t87.5 -72t34 -120q0 -114 -52 -179t-176 -118h206v-137h-525v137q51 0 128 45t77 92q0 27 -9 46.5t-28.5 29.5t-36 15.5t-45.5 5t-43.5 -1.5t-42.5 -4z" />
<glyph unicode="3" horiz-adv-x="600" d="M41 403v241q58 13 125 15.5t135 -8.5t123.5 -34.5t90.5 -68t35 -104.5q0 -46 -20 -85t-53 -60q83 -47 83 -124q0 -64 -61 -110t-144 -62.5t-171.5 -10.5t-142.5 37v93q88 -8 127 2t39 51q0 53 -166 41v83q64 -7 115 6t51 43q0 50 -51.5 65t-114.5 -10z" />
<glyph unicode="4" horiz-adv-x="600" d="M93 650h130l-43 -303h108v303h217v-303h65v-174h-65v-173h-217v173h-260z" />
<glyph unicode="5" horiz-adv-x="600" d="M50 650h483v-175h-285v-79q157 7 243 -43t86 -162q0 -98 -92.5 -149.5t-258.5 -51.5q-104 0 -176 21v93q25 -9 57.5 -14t64.5 -4.5t54 13t22 35.5q0 32 -15 50.5t-43.5 23.5t-61.5 2.5t-78 -11.5v451z" />
<glyph unicode="6" horiz-adv-x="600" d="M497 643v-61q-90 0 -141 -38t-66 -118q43 12 84 13t78 -14.5t65.5 -40.5t45 -64t16.5 -85q0 -120 -70.5 -182.5t-195.5 -62.5q-31 0 -54.5 2t-55 9t-54.5 19.5t-47 35.5t-39.5 54.5t-25 79t-9.5 106.5q0 74 20.5 136t55.5 104t81.5 71t99 41.5t107 11t105.5 -16.5z M287 312q3 -57 17.5 -87.5t49.5 -30.5q25 0 43 16t18 45q0 27 -13.5 46t-33 26t-42 3.5t-39.5 -18.5z" />
<glyph unicode="7" horiz-adv-x="600" d="M40 412v238h519v-238l-183 -412h-183l183 412h-336z" />
<glyph unicode="8" horiz-adv-x="600" d="M292 660q122 0 180 -55.5t58 -139.5t-87 -129q50 -33 72.5 -68t22.5 -83q0 -195 -246 -195q-125 0 -177.5 42.5t-52.5 130.5q0 43 12 77t26 51.5t41 44.5q-65 33 -65 129q0 80 55 137.5t161 57.5zM301 455q-25 0 -38.5 -16.5t-13.5 -37.5q0 -19 14.5 -31.5t40.5 -12.5 q28 0 47 12t19 32q0 26 -20 40t-49 14zM314 293q-64 0 -65 -71q0 -56 59 -56q70 0 70 56q0 29 -18 50t-46 21z" />
<glyph unicode="9" horiz-adv-x="600" d="M136 97q79 -16 135 18t68 127q-311 -57 -311 180q0 238 281 238q260 0 260 -325q0 -88 -26.5 -156t-70 -108.5t-100 -61.5t-117 -20t-119.5 21v87zM339 351q-4 45 -21 68.5t-52 23.5q-24 0 -40.5 -18.5t-16.5 -46.5q0 -43 57 -43q44 0 73 16z" />
<glyph unicode=":" horiz-adv-x="292" d="M50 471q0 44 25 74.5t65 30.5q41 0 71.5 -28.5t30.5 -71.5t-30 -69.5t-74 -26.5q-88 0 -88 91zM57 156q0 39 24 66t57 27q42 0 70 -26t28 -69q0 -42 -27 -64.5t-72 -22.5q-42 0 -61 22t-19 67z" />
<glyph unicode=";" horiz-adv-x="305" d="M167 78q0 2 -18.5 3t-40 0.5t-40 17t-18.5 52.5q0 52 28 77t74 25q45 0 74 -31.5t29 -85.5q0 -60 -37 -103t-109 -43v44q58 -3 58 44zM56 471q0 44 25 74.5t65 30.5q41 0 71.5 -28.5t30.5 -71.5t-30 -69.5t-74 -26.5q-88 0 -88 91z" />
<glyph unicode="&#x3c;" horiz-adv-x="455" d="M406 505v-146l-254 -102l254 -103v-154l-356 137v256z" />
<glyph unicode="=" horiz-adv-x="606" d="M50 265h506v-146h-506v146zM50 495h506v-146h-506v146z" />
<glyph unicode="&#x3e;" horiz-adv-x="455" d="M50 0v146l254 102l-254 103v154l356 -137v-256z" />
<glyph unicode="?" horiz-adv-x="620" d="M448 0h-195v122h195v-122zM448 183h-195q6 48 51.5 112t45.5 108q0 18 -18 33t-43 16q-39 1 -56 -22.5t-17 -63.5h-183q-9 84 7 143t55 91.5t89 46t118 13.5q146 0 207 -50.5t61 -169.5q0 -48 -10 -82.5t-26 -54.5t-32.5 -36t-32 -37t-21.5 -47z" />
<glyph unicode="@" horiz-adv-x="718" d="M397 650q59 0 110 -22t85.5 -58.5t54.5 -83.5t20 -96q0 -107 -80.5 -176t-206.5 -69q-78 0 -132 36.5t-54 92.5q0 28 16 48.5t41 30.5t53 14t53.5 0.5t40.5 -11.5q-4 62 -43 73.5t-127 -10.5v51q32 20 64 27.5t88 7.5q38 0 64 -9t40 -30t20 -35.5t12.5 -48t9.5 -44.5 q7 -22 23 -22q20 1 36 24t16 53q0 83 -71.5 144.5t-166.5 61.5q-116 0 -189.5 -74.5t-73.5 -201.5q0 -117 81.5 -190t198.5 -73q177 0 288 111v-111q-82 -60 -288 -60q-144 0 -237 87.5t-93 237.5q0 147 88 236t259 89zM402 292q-20 3 -34.5 3t-26.5 -3.5t-18.5 -13 t-6.5 -24.5q0 -30 18 -43.5t47 -13.5q10 0 20 2.5t18 6.5t12 8q-23 35 -29 78z" />
<glyph unicode="A" d="M0 0l186 650h218l206 -650h-158l-19 68h-164l-18 -68h-251zM300 181h101l-52 183z" />
<glyph unicode="B" horiz-adv-x="593" d="M392 660q54 0 94.5 -34.5t58.5 -83t18 -101.5q0 -57 -22.5 -112.5t-63.5 -86.5q29 -10 43 -43t14 -71q0 -44 -36 -86t-78 -42h-370v646q159 14 342 14zM292 399v-114h71q16 0 29.5 18t13.5 39q0 23 -11.5 40t-31.5 17h-71zM292 228v-86h71q12 0 20.5 14.5t8.5 28.5 t-8.5 28.5t-20.5 14.5h-71z" />
<glyph unicode="C" horiz-adv-x="635" d="M585 285q-37 3 -70.5 0.5t-59 -10t-40.5 -26.5t-15 -50q0 -43 61 -67.5t124 -3.5v-114q-67 -24 -199 -24q-180 0 -268 73.5t-88 249.5q0 185 85.5 266t298.5 81q113 0 171 -34v-341z" />
<glyph unicode="D" horiz-adv-x="629" d="M50 650h318q56 0 97.5 -18t67 -49t40.5 -80.5t20.5 -103t5.5 -125.5q0 -124 -44.5 -199t-128.5 -75h-376v650zM310 267v-144h58q18 0 30.5 22.5t12.5 49.5q0 35 -12.5 53.5t-30.5 18.5h-58z" />
<glyph unicode="E" horiz-adv-x="509" d="M50 650h409v-203h-174v-87h174v-74h-174v-75h174v-210h-409v649z" />
<glyph unicode="F" horiz-adv-x="505" d="M50 0v650h405v-267h-171v-89h171v-133h-171v-161h-234z" />
<glyph unicode="G" horiz-adv-x="657" d="M607 324q-41 6 -82.5 3t-75 -11.5t-55 -35t-21.5 -68.5q0 -55 41.5 -81.5t122.5 -16.5v65q-30 6 -58 5q-2 32 0 59q57 4 128 0v-226q-194 -33 -322.5 -23t-191.5 85.5t-63 230.5q0 75 15 133t41.5 98t66.5 66t87.5 38.5t107.5 14t122.5 -5.5t136.5 -23v-307z" />
<glyph unicode="H" horiz-adv-x="656" d="M375 650h231v-650h-228q-2 117 -3 168h-94v-168h-228l-3 650h231q2 -85 1 -329h92q-2 183 1 329z" />
<glyph unicode="I" horiz-adv-x="317" d="M50 650h217v-650h-217v650z" />
<glyph unicode="J" horiz-adv-x="604" d="M30 277h93q0 -47 26 -71t62 -24q50 0 75 28.5t25 78.5v361h243v-417q0 -124 -72.5 -183.5t-198.5 -59.5q-128 0 -190.5 67t-62.5 220z" />
<glyph unicode="K" d="M367 650h223l-184 -324l184 -326h-223l-94 155v-155h-223v650h223v-125z" />
<glyph unicode="L" horiz-adv-x="432" d="M50 650h248l8 -411q45 4 106 4v-243h-362v650z" />
<glyph unicode="M" horiz-adv-x="853" d="M40 0l14 650h228q42 -106 143 -415q109 324 143 415h235v-650h-221v150l-57 -150h-186l-71 164v-164h-228z" />
<glyph unicode="N" horiz-adv-x="704" d="M50 0v650h239l133 -228v228h232v-650h-232l-142 197v-197h-230z" />
<glyph unicode="O" horiz-adv-x="607" d="M313 660q120 0 192 -86.5t72 -251.5q0 -173 -72 -253t-192 -80q-283 0 -283 333q0 169 79 253.5t204 84.5zM354 322q-28 0 -51 -21.5t-23 -52.5q0 -36 20.5 -55.5t53.5 -19.5q34 0 54.5 23t20.5 52q0 34 -21 54t-54 20z" />
<glyph unicode="P" horiz-adv-x="617" d="M50 2v642q203 20 262 19q156 -1 218 -79q57 -71 57 -220q0 -59 -16 -102.5t-43.5 -67t-63.5 -37.5t-76 -14.5t-82 1.5v-144zM306 260q36 -2 62 10t26 43q0 74 -88 49v-102z" />
<glyph unicode="Q" horiz-adv-x="604" d="M319 322q-25 0 -39.5 -21t-14.5 -53q0 -36 22 -55t52 -19q25 0 43.5 24t18.5 50q0 31 -27.5 52.5t-54.5 21.5zM314 656q76 0 128 -23t80.5 -70t40 -107t11.5 -146q0 -148 -46 -222l34 -125h-174l-10 31q-35 -6 -76 -6q-125 0 -198.5 80.5t-73.5 253.5q0 334 284 334z" />
<glyph unicode="R" horiz-adv-x="671" d="M50 0v647q232 13 305 9q175 -10 239 -94q47 -63 47 -175q0 -134 -124 -192l103 -195h-183l-64 160q-38 -3 -79 -1v-159h-244zM294 238q27 -2 52 2t46 14t33 28.5t12 43.5q0 35 -19.5 58t-61.5 23q-29 0 -62 -9v-160z" />
<glyph unicode="S" horiz-adv-x="582" d="M532 635v-254q-127 28 -127 -25q0 -29 13 -45.5t31.5 -25t37.5 -20t32 -39.5t13 -73q0 -50 -39.5 -87t-99.5 -54t-126.5 -21.5t-125.5 5.5t-91 30v108q88 -25 158 -21t70 40q0 25 -12.5 39t-32.5 19t-44.5 9t-49 14.5t-44.5 30.5t-32.5 62.5t-12.5 104.5q0 81 52.5 135.5 t128.5 74t157 18t144 -24.5z" />
<glyph unicode="T" horiz-adv-x="605" d="M20 650h565v-308h-156v-342h-234v342h-175v308z" />
<glyph unicode="U" horiz-adv-x="654" d="M59 650h268v-244q0 -43 13.5 -63.5t33.5 -20.5t36 18.5t16 45.5v264h178q1 -40 3.5 -111t4.5 -135t2 -127q0 -132 -68 -209.5t-199 -77.5q-162 0 -234.5 62.5t-72.5 165.5q0 223 19 432z" />
<glyph unicode="V" d="M0 650h263q19 -63 44.5 -177t40.5 -165q27 67 75 195.5t55 146.5h132q-62 -335 -153 -650h-282q-62 205 -175 650z" />
<glyph unicode="W" horiz-adv-x="856" d="M0 650h139l73 -290l97 290h194l126 -310l86 310h141l-123 -650h-215l-96 250l-73 -250h-235z" />
<glyph unicode="X" horiz-adv-x="635" d="M402 650h233q-36 -61 -103.5 -174.5t-83.5 -140.5q127 -227 187 -335h-246q-33 59 -68 122q-39 -65 -75 -122h-246q97 166 204 338q-75 140 -165 312h233q28 -50 60 -108z" />
<glyph unicode="Y" horiz-adv-x="582" d="M433 650h149l-149 -339v-311h-254v312l-179 338h240l105 -183z" />
<glyph unicode="Z" horiz-adv-x="616" d="M50 650h517v-299l-254 -197h254v-151h-517v148l288 208q-144 -13 -288 0v291z" />
<glyph unicode="[" horiz-adv-x="371" d="M50 727h271v-94h-93v-573h93v-77h-271v744z" />
<glyph unicode="\" horiz-adv-x="447" d="M447 7h-133q-134 260 -314 639h133q112 -211 314 -639z" />
<glyph unicode="]" horiz-adv-x="371" d="M321 -17h-271v94h93v573h-93v77h271v-744z" />
<glyph unicode="^" horiz-adv-x="586" d="M50 287l110 346h246l130 -346h-206l-51 218l-85 -218h-144z" />
<glyph unicode="_" horiz-adv-x="506" d="M0 -45h506v-156h-506v156z" />
<glyph unicode="`" horiz-adv-x="779" d="M280 646l-11 75l50 12l15 -78l237 -127q-95 -28 -172.5 -88.5t-77.5 -127.5q0 -66 53 -104.5t149 -41.5q-21 42 -79 99l285 -11q-99 -95 -130 -275l-40 93q-28 -30 -86 -55.5t-112 -25.5q-132 0 -221.5 80t-89.5 229q0 127 52.5 202.5t177.5 143.5z" />
<glyph unicode="a" horiz-adv-x="578" d="M315 95v76q0 10 -15 20t-28 8q-10 -1 -20.5 -6.5t-18.5 -13t-13 -17.5t-5 -20t5 -19.5t13 -16.5t18.5 -11t20.5 -4q29 0 43 4zM315 6q-36 -10 -80 -10q-101 0 -153 41t-52 134q0 66 53.5 111t145.5 45q11 0 41.5 -4t44.5 -4v28q0 26 -32 38t-68 12q-62 0 -94.5 -4 t-65.5 -18v70q80 80 260 80q91 0 152 -60t61 -133v-332q-106 -7 -213 0v6z" />
<glyph unicode="b" horiz-adv-x="578" d="M50 650h213v-170q31 8 67.5 10.5t75 -12.5t70.5 -40t52 -72.5t20 -109.5q0 -52 -10 -93t-27.5 -67.5t-41 -46t-49.5 -28.5t-54 -15t-54 -4.5t-49 1.5v-3h-213v650zM263 117q85 -10 85 68q0 32 -26.5 47t-58.5 8v-123z" />
<glyph unicode="c" horiz-adv-x="544" d="M341 -9q-155 0 -233 68t-78 218q0 134 91 191.5t263 57.5q74 0 110 -25v-268q-55 27 -107 2t-52 -73q0 -30 28.5 -50t63.5 -26t67 -3v-80q-83 -12 -153 -12z" />
<glyph unicode="d" horiz-adv-x="578" d="M528 650v-650h-213v7q-136 -27 -210.5 33.5t-74.5 205.5q0 54 17.5 97.5t46 71t66 45t77 23t78.5 1.5v166h213zM315 240q-32 7 -58.5 -8t-26.5 -47q0 -27 10.5 -42.5t28.5 -20.5t46 -1v119z" />
<glyph unicode="e" horiz-adv-x="608" d="M308 524q141 0 212 -76.5t54 -215.5h-309q0 -56 30.5 -84.5t71.5 -28.5t75.5 14t47.5 42h76q-11 -77 -82.5 -129t-175.5 -52q-113 0 -195.5 72.5t-82.5 194.5q0 124 78 193.5t200 69.5zM346 403q-26 0 -53.5 -23t-27.5 -62h152q11 38 -16 61.5t-55 23.5z" />
<glyph unicode="f" horiz-adv-x="420" d="M321 381h59v-155h-59v-226h-245v226h-56v155h56v98q0 53 22.5 91t56.5 56.5t76 26.5t79.5 6t69.5 -10v-141q-17 7 -38 -6t-21 -37v-84z" />
<glyph unicode="g" horiz-adv-x="612" d="M117 -61q38 -10 81 -11.5t80 6t61.5 28t24.5 51.5v2q-55 -14 -111 -14q-223 0 -223 265q0 59 19.5 108t51.5 80t71.5 48t80.5 17q47 0 111 -26v26h198v-481q0 -65 -47 -110t-116 -61t-145 -13.5t-137 23.5v62zM364 106v123q-14 5 -25 5q-33 0 -53.5 -20t-20.5 -47 q0 -29 18.5 -48t43.5 -19q17 0 37 6z" />
<glyph unicode="h" horiz-adv-x="638" d="M588 0h-198v226q0 20 -10.5 35t-25.5 21t-32.5 4t-30.5 -13v-273h-241v650h241v-184q42 57 127 57q67 0 118.5 -51.5t51.5 -123.5v-348z" />
<glyph unicode="i" horiz-adv-x="324" d="M50 650h224v-100h-224v100zM274 491v-491h-224v491h224z" />
<glyph unicode="j" horiz-adv-x="338" d="M50 650h238v-100h-238v100zM50 491h238v-468q0 -60 -63.5 -109t-148 -68t-146.5 -2v60q38 1 79 32.5t41 66.5v488z" />
<glyph unicode="k" horiz-adv-x="592" d="M400 520h162l-123 -237l143 -283h-209l-92 192v-192h-231v650h231v-348z" />
<glyph unicode="l" horiz-adv-x="336" d="M52 650h233q2 -219 0 -650h-233q-2 525 0 650z" />
<glyph unicode="m" horiz-adv-x="875" d="M50 520h174l29 -101q17 32 30 50.5t39.5 34.5t60.5 16q25 0 44 -5t30.5 -10.5t21 -18t13.5 -20.5t11 -24.5t10 -22.5q20 46 65 73.5t93 27.5q73 0 110 -61t42 -176.5t-7 -282.5h-188v116q0 17 -11 30t-32 13q-19 0 -44 -29v-130h-187v130q0 16 -12.5 29.5t-31.5 13.5 q-22 0 -43 -29v-144h-217v520z" />
<glyph unicode="n" horiz-adv-x="641" d="M591 0h-199v228q0 26 -18 43.5t-40.5 17.5t-41.5 -14v-275h-242v520h242v-102q23 53 51.5 81t76.5 28q68 0 119 -51.5t52 -124.5v-351z" />
<glyph unicode="o" horiz-adv-x="580" d="M299 525q128 0 189.5 -67t61.5 -186q0 -155 -64 -218.5t-187 -63.5q-146 0 -207.5 67t-61.5 215q0 253 269 253zM333 264q-40 0 -58 -17t-18 -55q0 -72 76 -72q27 0 49.5 20t22.5 52q0 33 -22.5 52.5t-49.5 19.5z" />
<glyph unicode="p" horiz-adv-x="593" d="M264 -1v-127h-214v646h204q143 5 226 -56t83 -200q0 -50 -12.5 -90.5t-32 -68t-46.5 -47.5t-54.5 -31.5t-57.5 -17.5t-52.5 -7.5t-43.5 -0.5zM264 114q37 -3 68.5 17t31.5 60q0 18 -9.5 30t-24.5 15t-32.5 1t-33.5 -9v-114z" />
<glyph unicode="q" horiz-adv-x="593" d="M543 518v-646h-214v127q-21 -1 -43.5 0.5t-52.5 7.5t-57.5 17.5t-54.5 31.5t-46.5 47.5t-32 68t-12.5 90.5q0 139 83 200t226 56h204zM329 228q-22 10 -44.5 10.5t-39 -11.5t-16.5 -36q0 -40 31.5 -60t68.5 -17v114z" />
<glyph unicode="r" horiz-adv-x="448" d="M288 462q27 34 64.5 47.5t75.5 2.5v-134q-93 -5 -140 -77v-301h-238v520h238v-58z" />
<glyph unicode="s" horiz-adv-x="532" d="M50 0v80q90 -7 155.5 0t65.5 27q0 21 -23 33.5t-55.5 21t-64.5 22t-55 48.5t-23 89q0 251 433 196v-214q-124 12 -124 -36q0 -20 19.5 -32t42.5 -18.5t42.5 -29.5t19.5 -62q0 -41 -26.5 -69.5t-66.5 -42t-100.5 -18.5t-115.5 -3t-124 8z" />
<glyph unicode="t" horiz-adv-x="512" d="M94 591h233v-71h155v-259h-155v-22q0 -61 41.5 -96.5t113.5 -37.5v-104q-72 -6 -128 -3t-97 7.5t-70 17.5t-47 26.5t-28 33.5t-14 40t-4 45v93h-64v259h64v71z" />
<glyph unicode="u" horiz-adv-x="628" d="M368 520h236v-520h-236v79q-15 -39 -58.5 -64t-95.5 -25q-67 0 -112 42.5t-53 115.5q-16 142 -10 372h219q-6 -163 0 -256q2 -30 22 -45.5t46 -9t42 33.5v277z" />
<glyph unicode="v" horiz-adv-x="527" d="M15 519h222q19 -106 69 -245q28 84 68 245h138q-10 -42 -54.5 -232.5t-69.5 -286.5h-234q-92 278 -139 519z" />
<glyph unicode="w" horiz-adv-x="740" d="M20 520h114l64 -207l63 207h166l102 -232l64 232h127l-115 -520h-178l-64 199l-63 -199h-191q-37 174 -89 520z" />
<glyph unicode="x" horiz-adv-x="520" d="M326 520h184q-38 -64 -147 -252q100 -183 147 -268h-194q-25 45 -53 97q-32 -53 -59 -97h-194q92 158 160 271q-19 36 -62.5 120t-66.5 129h183q22 -39 47 -85q28 44 55 85z" />
<glyph unicode="y" horiz-adv-x="592" d="M10 520h246l91 -221q44 118 77 221h158q-83 -275 -238 -645h-167q35 86 54 132z" />
<glyph unicode="z" horiz-adv-x="514" d="M50 520h414q0 -181 -2 -257q-10 -18 -46.5 -46t-68 -49.5t-31.5 -27.5q0 -10 24.5 -12t90.5 -2h27l-2 -126h-406v142q22 20 63.5 49.5t66 50.5t28.5 37h-158v241z" />
<glyph unicode="{" horiz-adv-x="365" d="M172 736h144q-35 -31 -49 -73t-13 -84t3.5 -83t-6.5 -80t-37 -65q28 -26 37 -65t6.5 -80t-3.5 -83t13 -84t49 -73h-144q-54 23 -83 51t-35 56.5t-1.5 58t14.5 59.5t16 57.5t0 54.5t-30 48q24 21 30 48t0 54.5t-16 57.5t-14.5 59.5t1.5 58t35 56.5t83 51z" />
<glyph unicode="|" horiz-adv-x="296" d="M52 730h193q2 -269 0 -800h-193q-3 646 0 800z" />
<glyph unicode="}" horiz-adv-x="365" d="M194 -35h-144q35 31 49 73t13 84t-3.5 83t6.5 80t37 65q-28 26 -37 65t-6.5 80t3.5 83t-13 84t-49 73h144q54 -23 83 -51t35 -56.5t1.5 -58t-14.5 -59.5t-16 -57.5t0 -54.5t30 -48q-24 -21 -30 -48t0 -54.5t16 -57.5t14.5 -59.5t-1.5 -58t-35 -56.5t-83 -51z" />
<glyph unicode="~" horiz-adv-x="547" d="M50 249v115q12 21 46.5 35.5t69.5 14.5q62 0 104.5 -16.5t71 -33t55.5 -16.5q44 0 100 16v-115q-17 -22 -44.5 -36t-55.5 -14q-52 0 -126 41.5t-122 41.5q-43 0 -99 -33z" />
<glyph unicode="&#xa1;" horiz-adv-x="432" d="M218 -178q-78 0 -168 8l64 457h220l48 -457q-72 -8 -164 -8zM334 350h-220v127h220v-127z" />
<glyph unicode="&#xa2;" horiz-adv-x="548" d="M293 105l55 234q-129 -21 -129 -125q0 -77 74 -109zM382 83q48 -6 117 -6v-68q-38 -4 -72 -7t-65 -3l-16 -67h-94l17 70q-110 13 -164.5 69t-54.5 168q0 148 87.5 213t251.5 62l10 42h94l-12 -49l18 -2v-163q-29 2 -56 3z" />
<glyph unicode="&#xa3;" horiz-adv-x="540" d="M321 667q90 0 127 -51v-86q-32 17 -76 17q-85 0 -85 -85v-69h119v-119h-119v-103h203v-171h-440v171h59v103h-59v119h59v69q0 98 62 151.5t150 53.5z" />
<glyph unicode="&#xa4;" horiz-adv-x="779" d="M280 646l-11 75l50 12l15 -78l237 -127q-95 -28 -172.5 -88.5t-77.5 -127.5q0 -66 53 -104.5t149 -41.5q-21 42 -79 99l285 -11q-99 -95 -130 -275l-40 93q-28 -30 -86 -55.5t-112 -25.5q-132 0 -221.5 80t-89.5 229q0 127 52.5 202.5t177.5 143.5z" />
<glyph unicode="&#xa5;" horiz-adv-x="691" d="M50 650h244l107 -188l89 188h152l-152 -348v-11h102v-60h-102v-86h102v-59h-102v-86h-258v86h-131v59h131v86h-131v60h131v12z" />
<glyph unicode="&#xa6;" horiz-adv-x="296" d="M50 281h196q0 -63 -0.5 -186.5t-0.5 -164.5h-193q0 113 -2 351zM52 730h193q2 -182 2 -355h-197q0 255 2 355z" />
<glyph unicode="&#xa7;" horiz-adv-x="591" d="M541 8q0 -50 -39.5 -87t-99.5 -54t-126.5 -21.5t-125.5 5.5t-91 30v108q129 -30 225.5 -28t96.5 39q0 10 -15 15.5t-40 7t-56.5 4t-64 6.5t-64 16.5t-56.5 30.5t-40 51.5t-15 78.5q0 77 64 122q-35 40 -35 95q0 65 34.5 113.5t89 73.5t119.5 35t127.5 4.5t111.5 -23.5 v-254q-20 5 -39.5 7t-40.5 1.5t-34 -9t-13 -24.5q0 -22 15 -35.5t37 -22t43.5 -19t36.5 -34.5t15 -60q0 -53 -54 -92q34 -26 34 -80zM305 235q-24 -20 -24 -45q0 -15 6.5 -26t15 -17.5t25.5 -11.5t28.5 -7t33.5 -5q31 18 31 37q0 26 -29 42t-87 33z" />
<glyph unicode="&#xa9;" horiz-adv-x="709" d="M382 419q52 0 81 -17v-163q-42 2 -65 -5.5t-23 -35.5q0 -20 29 -32t59 -2v-55q-29 -11 -94 -11q-86 0 -127.5 35.5t-41.5 119.5q0 89 40.5 127.5t141.5 38.5zM355 582q126 0 215.5 -90.5t89.5 -217.5t-89.5 -217.5t-215.5 -90.5t-215.5 90.5t-89.5 217.5t89.5 217.5 t215.5 90.5zM355 522q-102 0 -174 -72.5t-72 -175.5t72 -176t174 -73t174 73t72 176t-72 175.5t-174 72.5z" />
<glyph unicode="&#xaa;" horiz-adv-x="578" d="M315 345v76q0 10 -15 20t-28 8q-21 -2 -39 -19.5t-18 -37.5q0 -10 5 -19.5t13 -16.5t18.5 -11t20.5 -4q29 0 43 4zM315 256q-36 -10 -80 -10q-101 0 -153 41t-52 134q0 66 53.5 111t145.5 45q11 0 41.5 -4t44.5 -4v28q0 18 -18 30t-39 16t-43 4q-62 0 -94.5 -4t-65.5 -18 v70q80 80 260 80q91 0 152 -60t61 -133v-332q-106 -7 -213 0v6z" />
<glyph unicode="&#xab;" horiz-adv-x="660" d="M610 3q-146 88 -250 172v162q27 16 119.5 75.5t130.5 80.5v-161q-27 -17 -68 -45.5t-63 -43.5q59 -50 131 -93v-147zM300 3q-146 88 -250 172v162q27 16 119.5 75.5t130.5 80.5v-161q-27 -17 -68 -45.5t-63 -43.5q59 -50 131 -93v-147z" />
<glyph unicode="&#xac;" horiz-adv-x="630" d="M30 470h560v-312h-203q0 61 4 106l-361 8v198z" />
<glyph unicode="&#xad;" horiz-adv-x="406" d="M50 400h306v-156h-306v156z" />
<glyph unicode="&#xae;" horiz-adv-x="709" d="M355 522q-102 0 -174 -72.5t-72 -175.5t72 -176t174 -73t174 73t72 176t-72 175.5t-174 72.5zM355 582q126 0 215.5 -90.5t89.5 -217.5t-89.5 -217.5t-215.5 -90.5t-215.5 90.5t-89.5 217.5t89.5 217.5t215.5 90.5zM365 298q-13 0 -30 -5v-76q28 -2 48 8.5t20 33.5 q0 39 -38 39zM330 417q85 1 127.5 -25.5t42.5 -103.5q0 -64 -59 -92l49 -93h-87l-30 76h-38v-76h-116v310q78 4 111 4z" />
<glyph unicode="&#xb0;" horiz-adv-x="323" d="M166 881q51 0 79.5 -33t28.5 -88q0 -50 -30.5 -79t-77.5 -29q-49 0 -82.5 34.5t-33.5 85.5q0 44 33.5 76.5t82.5 32.5zM179 818q-26 0 -44 -17t-18 -40q0 -27 18 -44.5t44 -17.5q25 0 40.5 15t15.5 41q0 29 -14.5 46t-41.5 17z" />
<glyph unicode="&#xb1;" horiz-adv-x="616" d="M236 659h153v-146h178v-111h-178v-137h-153v137h-186v111h186v146zM50 111h517v-111h-517v111z" />
<glyph unicode="&#xb2;" horiz-adv-x="482" d="M38 566v191q46 8 88 11.5t87 3t81 -10t65.5 -26.5t45.5 -48t16 -73q0 -80 -36.5 -125.5t-123.5 -82.5h145v-96h-368v96q36 0 90 31.5t54 64.5q0 19 -6.5 32.5t-20 20.5t-25.5 10.5t-32 3.5t-30.5 -0.5t-29.5 -2.5z" />
<glyph unicode="&#xb3;" horiz-adv-x="453" d="M44 592v169q40 9 87 10.5t95 -6t86.5 -24t63 -47.5t24.5 -73q0 -32 -14 -59.5t-37 -42.5q58 -33 58 -87q0 -44 -42.5 -76t-101 -44t-120.5 -7.5t-99 25.5v65q61 -5 88.5 2t27.5 35q0 38 -116 29v58q28 -2 54 0t44 11t18 24q0 35 -36 45.5t-80 -7.5z" />
<glyph unicode="&#xb5;" horiz-adv-x="950" d="M400 750h150v-50h50v-50h50v-50h50v-50h50v-50h50v-50h50v-50h50v-150h-50v-50h-100v-300h-50v-50h-50v50h-50v-50h-50v50h-50v50h-50v-50h-50v-50h-50v50h-50v-50h-50v50h-50v300h-100v50h-50v150h50v50h50v50h50v50h50v50h50v50h50v50h50v-50h-50v-50h-50v-50h-50v-50 h-50v-50h-50v-50h-50v-150h100v-50h50v100h50v-150h150v50h-100v100h-50v50h150v-50h50v50h150v-50h-50v-100h-100v-50h-50v-50h-150v50h-50v-250h50v50h50v-50h50v50h50v50h50v-50h50v-50h50v50h50v-50h50v250h-50v-50h-150v50h150v150h50v-100h50v50h100v150h-50v50h-50 v50h-50v50h-50v50h-50v50h-50v50h-150v50zM450 200h50v50h-50v-50z" />
<glyph unicode="&#xb6;" horiz-adv-x="652" d="M476 0v658l126 -2l-4 -656h-122zM360 660l49 -2v-276q-55 4 -87 5t-48.5 -8t-21 -18.5t-4.5 -26.5q0 -28 16 -44t41.5 -18.5t52.5 2t53 14.5l-4 -288h-130l-14 172q-32 -4 -64.5 -3t-63 16.5t-54 39.5t-37.5 65.5t-14 95.5q0 148 75 214.5t255 59.5z" />
<glyph unicode="&#xb7;" horiz-adv-x="304" d="M157 367q48 0 72.5 -25t24.5 -67q0 -49 -26 -75.5t-76 -26.5q-102 0 -102 97q0 46 30.5 71.5t76.5 25.5z" />
<glyph unicode="&#xb9;" horiz-adv-x="288" d="M105 765h210v-455h-182v274h-36q3 122 8 181z" />
<glyph unicode="&#xba;" horiz-adv-x="580" d="M299 775q128 0 189.5 -67t61.5 -186q0 -155 -64 -218.5t-187 -63.5q-146 0 -207.5 67t-61.5 215q0 253 269 253zM333 514q-40 0 -58 -17t-18 -55q0 -72 76 -72q27 0 49.5 20t22.5 52q0 33 -22.5 52.5t-49.5 19.5z" />
<glyph unicode="&#xbb;" horiz-adv-x="660" d="M50 3v147q75 45 132 93q-21 14 -62.5 43t-69.5 46v161q38 -21 130.5 -80.5t119.5 -75.5v-162q-104 -84 -250 -172zM360 3v147q75 45 132 93q-21 14 -62.5 43t-69.5 46v161q38 -21 130.5 -80.5t119.5 -75.5v-162q-104 -84 -250 -172z" />
<glyph unicode="&#xbc;" horiz-adv-x="1751" d="M1644 54q26 0 26 15v5h9v-5q0 -11 -10.5 -17t-24.5 -6v-15h36v-9h-44v52h8v-20zM1658 86q-16 0 -27.5 -11t-11.5 -27t11.5 -27t27.5 -11t27 11t11 27t-11 27t-27 11zM1658 95q20 0 33.5 -13.5t13.5 -33.5t-13.5 -33.5t-33.5 -13.5t-33.5 13.5t-13.5 33.5t13.5 33.5 t33.5 13.5zM50 206h535v-206h-535v206zM50 453h535v-206h-535v206zM50 700h535v-206h-535v206zM878 518v-336l167 168zM1093 700h290l348 -350l-348 -350h-290l348 350zM674 700h313l348 -350l-348 -350h-313v700z" />
<glyph unicode="&#xbd;" horiz-adv-x="1414" d="M50 662h171v-466h141v-196h-312v662zM311 662h315v-662h-170v464h-145v198zM716 662h171v-101h241v-282h236v-180h-172v-99h-162v364h-143v-364h-171v662zM1192 662h172v-298h-172v298z" />
<glyph unicode="&#xbe;" horiz-adv-x="778" d="M475 542l-201 -2l54 -346l333 -19l-1 137l-240 -40zM223 745h331v-105h-92v-35q114 -26 190 -119t76 -212q0 -139 -100 -239t-239 -100t-239 100t-100 239q0 121 78 215t194 118v33h-99v105z" />
<glyph unicode="&#xbf;" horiz-adv-x="640" d="M172 476h195v-122h-195v122zM172 293h195q-6 -48 -51.5 -112t-45.5 -108q0 -18 17.5 -33t42.5 -16q74 -4 74 85h183q9 -84 -7 -143t-55 -90.5t-89 -45t-118 -13.5q-147 0 -207.5 50t-60.5 170q0 58 16 98t36 57.5t41 43.5t29 57z" />
<glyph unicode="&#xc0;" d="M390 685q-122 71 -156 95q6 7 17 22.5t20.5 28t19.5 21.5q83 -35 149 -99q-19 -35 -50 -68zM0 0l186 650h218l206 -650h-158l-19 68h-164l-18 -68h-251zM300 181h101l-52 183z" />
<glyph unicode="&#xc1;" d="M280 680q-30 31 -50 69q66 64 149 99q10 -9 19.5 -21.5t20.5 -28t17 -23.5q-34 -24 -156 -95zM0 0l186 650h218l206 -650h-158l-19 68h-164l-18 -68h-251zM300 181h101l-52 183z" />
<glyph unicode="&#xc2;" d="M191 696q41 125 65 168q64 12 140 0q11 -24 21 -51.5t21.5 -64.5t16.5 -52q-62 -6 -100 0q-27 108 -29 114q-20 -39 -44 -114q-45 -3 -91 0zM0 0l186 650h218l206 -650h-158l-19 68h-164l-18 -68h-251zM300 181h101l-52 183z" />
<glyph unicode="&#xc3;" d="M193 710v70q7 13 28 21.5t42 8.5q49 0 87 -20t53 -20q25 0 60 10v-70q-23 -30 -60 -30q-31 0 -76 25t-74 25q-28 0 -60 -20zM0 0l186 650h218l206 -650h-158l-19 68h-164l-18 -68h-251zM300 181h101l-52 183z" />
<glyph unicode="&#xc4;" d="M233 822q33 0 50 -17t17 -46q0 -33 -18 -52t-52 -19q-70 0 -70 67q0 32 20.5 49.5t52.5 17.5zM432 825q33 0 50 -17t17 -46q0 -70 -70 -70q-71 0 -71 66q0 32 21 49.5t53 17.5zM0 0l186 650h218l206 -650h-158l-19 68h-164l-18 -68h-251zM300 181h101l-52 183z" />
<glyph unicode="&#xc5;" d="M313 784q-26 0 -44 -17t-18 -40q0 -27 18 -44.5t44 -17.5q25 0 40.5 15t15.5 41q0 29 -14.5 46t-41.5 17zM300 847q51 0 79.5 -33t28.5 -88q0 -47 -28 -76h24l206 -650h-158l-19 68h-164l-18 -68h-251l186 650h34q-36 35 -36 88q0 44 33.5 76.5t82.5 32.5zM300 181h101 l-52 183z" />
<glyph unicode="&#xc6;" horiz-adv-x="745" d="M695 0h-415v77h-187l34 94h153v257l-161 -428h-119l254 667l441 -1v-208h-177v-90h177v-75h-177v-77h177v-216z" />
<glyph unicode="&#xc7;" horiz-adv-x="635" d="M585 285q-37 3 -70.5 0.5t-59 -10t-40.5 -26.5t-15 -50q0 -43 61 -67.5t124 -3.5v-114q-67 -24 -199 -24q-23 0 -44 1q-2 -11 -2 -20q14 3 33 1t36.5 -6t29.5 -17t12 -32q0 -32 -21 -52.5t-49 -25.5t-55.5 -7.5t-39.5 0.5v31q20 0 42.5 11.5t23.5 30.5q0 6 -2 10t-6.5 7 t-9 4.5t-12 2t-12.5 1t-13 0.5h-12q1 5 3 29.5t3 35.5q-131 17 -196 92t-65 226q0 185 85.5 266t298.5 81q113 0 171 -34v-341z" />
<glyph unicode="&#xc8;" horiz-adv-x="509" d="M314 685q-122 71 -156 95q6 7 17 22.5t20.5 28t19.5 21.5q83 -35 149 -99q-19 -35 -50 -68zM50 650h409v-203h-174v-87h174v-74h-174v-75h174v-210h-409v649z" />
<glyph unicode="&#xc9;" horiz-adv-x="509" d="M204 680q-30 31 -50 69q66 64 149 99q10 -9 19.5 -21.5t20.5 -28t17 -23.5q-34 -24 -156 -95zM50 650h409v-203h-174v-87h174v-74h-174v-75h174v-210h-409v649z" />
<glyph unicode="&#xca;" horiz-adv-x="509" d="M115 696q41 125 65 168q64 12 140 0q11 -24 21 -51.5t21.5 -64.5t16.5 -52q-62 -6 -100 0q-27 108 -29 114q-20 -39 -44 -114q-46 -3 -91 0zM50 650h409v-203h-174v-87h174v-74h-174v-75h174v-210h-409v649z" />
<glyph unicode="&#xcb;" horiz-adv-x="509" d="M356 825q33 0 50 -17t17 -46q0 -70 -70 -70q-71 0 -71 66q0 32 21 49.5t53 17.5zM157 822q33 0 50 -17t17 -46q0 -33 -18 -52t-52 -19q-70 0 -70 67q0 32 20.5 49.5t52.5 17.5zM50 650h409v-203h-174v-87h174v-74h-174v-75h174v-210h-409v649z" />
<glyph unicode="&#xcc;" horiz-adv-x="317" d="M219 685q-122 71 -156 95q6 7 17 22.5t20.5 28t19.5 21.5q83 -35 149 -99q-19 -35 -50 -68zM50 650h217v-650h-217v650z" />
<glyph unicode="&#xcd;" horiz-adv-x="317" d="M109 680q-30 31 -50 69q66 64 149 99q10 -9 19.5 -21.5t20.5 -28t17 -23.5q-34 -24 -156 -95zM50 650h217v-650h-217v650z" />
<glyph unicode="&#xce;" horiz-adv-x="317" d="M20 696q41 125 65 168q64 12 140 0q11 -24 21 -51.5t21.5 -64.5t16.5 -52q-62 -6 -100 0q-27 108 -29 114q-20 -39 -44 -114q-46 -3 -91 0zM50 650h217v-650h-217v650z" />
<glyph unicode="&#xcf;" horiz-adv-x="317" d="M261 825q33 0 50 -17t17 -46q0 -70 -70 -70q-71 0 -71 66q0 32 21 49.5t53 17.5zM62 822q33 0 50 -17t17 -46q0 -33 -18 -52t-52 -19q-70 0 -70 67q0 32 20.5 49.5t52.5 17.5zM50 650h217v-650h-217v650z" />
<glyph unicode="&#xd0;" horiz-adv-x="669" d="M0 197v111h76v342h315q56 0 97 -18t66 -49t40 -80t20.5 -103t5.5 -126q0 -124 -44 -199t-127 -75h-373v197h-76zM280 308h84v-111h-84v-111h69q56 0 95 47t39 110q0 81 -38.5 124.5t-86.5 43.5h-78v-103z" />
<glyph unicode="&#xd1;" horiz-adv-x="704" d="M207 710v70q7 13 28 21.5t42 8.5q49 0 87 -20t53 -20q25 0 60 10v-70q-23 -30 -60 -30q-31 0 -76 25t-74 25q-28 0 -60 -20zM50 0v650h239l133 -228v228h232v-650h-232l-142 197v-197h-230z" />
<glyph unicode="&#xd2;" horiz-adv-x="607" d="M364 685q-122 71 -156 95q6 7 17 22.5t20.5 28t19.5 21.5q83 -35 149 -99q-19 -35 -50 -68zM313 660q120 0 192 -86.5t72 -251.5q0 -173 -72 -253t-192 -80q-283 0 -283 333q0 169 79 253.5t204 84.5zM354 322q-28 0 -51 -21.5t-23 -52.5q0 -36 20.5 -55.5t53.5 -19.5 q34 0 54.5 23t20.5 52q0 34 -21 54t-54 20z" />
<glyph unicode="&#xd3;" horiz-adv-x="607" d="M254 680q-30 31 -50 69q66 64 149 99q10 -9 19.5 -21.5t20.5 -28t17 -23.5q-34 -24 -156 -95zM313 660q120 0 192 -86.5t72 -251.5q0 -173 -72 -253t-192 -80q-283 0 -283 333q0 169 79 253.5t204 84.5zM354 322q-28 0 -51 -21.5t-23 -52.5q0 -36 20.5 -55.5t53.5 -19.5 q34 0 54.5 23t20.5 52q0 34 -21 54t-54 20z" />
<glyph unicode="&#xd4;" horiz-adv-x="607" d="M165 696q41 125 65 168q64 12 140 0q11 -24 21 -51.5t21.5 -64.5t16.5 -52q-62 -6 -100 0q-27 108 -29 114q-20 -39 -44 -114q-46 -3 -91 0zM313 660q120 0 192 -86.5t72 -251.5q0 -173 -72 -253t-192 -80q-283 0 -283 333q0 169 79 253.5t204 84.5zM354 322 q-28 0 -51 -21.5t-23 -52.5q0 -36 20.5 -55.5t53.5 -19.5q34 0 54.5 23t20.5 52q0 34 -21 54t-54 20z" />
<glyph unicode="&#xd5;" horiz-adv-x="607" d="M167 710v70q7 13 28 21.5t42 8.5q49 0 87 -20t53 -20q25 0 60 10v-70q-23 -30 -60 -30q-31 0 -76 25t-74 25q-28 0 -60 -20zM313 660q120 0 192 -86.5t72 -251.5q0 -173 -72 -253t-192 -80q-283 0 -283 333q0 169 79 253.5t204 84.5zM354 322q-28 0 -51 -21.5t-23 -52.5 q0 -36 20.5 -55.5t53.5 -19.5q34 0 54.5 23t20.5 52q0 34 -21 54t-54 20z" />
<glyph unicode="&#xd6;" horiz-adv-x="607" d="M406 825q33 0 50 -17t17 -46q0 -70 -70 -70q-71 0 -71 66q0 32 21 49.5t53 17.5zM207 822q33 0 50 -17t17 -46q0 -33 -18 -52t-52 -19q-70 0 -70 67q0 32 20.5 49.5t52.5 17.5zM313 660q120 0 192 -86.5t72 -251.5q0 -173 -72 -253t-192 -80q-283 0 -283 333 q0 169 79 253.5t204 84.5zM354 322q-28 0 -51 -21.5t-23 -52.5q0 -36 20.5 -55.5t53.5 -19.5q34 0 54.5 23t20.5 52q0 34 -21 54t-54 20z" />
<glyph unicode="&#xd7;" horiz-adv-x="659" d="M482 607l127 -128l-168 -173l168 -186l-127 -120l-163 181l-159 -164l-102 103l155 178l-163 181l127 120l152 -168z" />
<glyph unicode="&#xd8;" horiz-adv-x="655" d="M430 684h136l-38 -90q78 -91 78 -265q0 -52 -7 -97t-19.5 -79.5t-31.5 -62t-41.5 -46.5t-49.5 -31.5t-56.5 -18.5t-62.5 -6q-35 0 -66 5l-11 -27h-136l31 74q-106 80 -106 289q0 88 22.5 156t62.5 109t91 61.5t112 20.5q45 0 83 -12zM314 411q-25 -5 -46.5 -22.5 t-35 -44.5t-13.5 -59q0 -39 13 -68zM341 154q36 1 63 21.5t39.5 49.5t12.5 60q0 49 -24 83z" />
<glyph unicode="&#xd9;" horiz-adv-x="654" d="M434 685q-122 71 -156 95q6 7 17 22.5t20.5 28t19.5 21.5q83 -35 149 -99q-19 -35 -50 -68zM59 650h268v-244q0 -43 13.5 -63.5t33.5 -20.5t36 18.5t16 45.5v264h178q1 -40 3.5 -111t4.5 -135t2 -127q0 -132 -68 -209.5t-199 -77.5q-162 0 -234.5 62.5t-72.5 165.5 q0 223 19 432z" />
<glyph unicode="&#xda;" horiz-adv-x="654" d="M324 680q-30 31 -50 69q66 64 149 99q10 -9 19.5 -21.5t20.5 -28t17 -23.5q-34 -24 -156 -95zM59 650h268v-244q0 -43 13.5 -63.5t33.5 -20.5t36 18.5t16 45.5v264h178q1 -40 3.5 -111t4.5 -135t2 -127q0 -132 -68 -209.5t-199 -77.5q-162 0 -234.5 62.5t-72.5 165.5 q0 223 19 432z" />
<glyph unicode="&#xdb;" horiz-adv-x="654" d="M235 696q41 125 65 168q64 12 140 0q11 -24 21 -51.5t21.5 -64.5t16.5 -52q-62 -6 -100 0q-27 108 -29 114q-20 -39 -44 -114q-46 -3 -91 0zM59 650h268v-244q0 -43 13.5 -63.5t33.5 -20.5t36 18.5t16 45.5v264h178q1 -40 3.5 -111t4.5 -135t2 -127q0 -132 -68 -209.5 t-199 -77.5q-162 0 -234.5 62.5t-72.5 165.5q0 223 19 432z" />
<glyph unicode="&#xdc;" horiz-adv-x="654" d="M476 825q33 0 50 -17t17 -46q0 -70 -70 -70q-71 0 -71 66q0 32 21 49.5t53 17.5zM277 822q33 0 50 -17t17 -46q0 -33 -18 -52t-52 -19q-70 0 -70 67q0 32 20.5 49.5t52.5 17.5zM59 650h268v-244q0 -43 13.5 -63.5t33.5 -20.5t36 18.5t16 45.5v264h178q1 -40 3.5 -111 t4.5 -135t2 -127q0 -132 -68 -209.5t-199 -77.5q-162 0 -234.5 62.5t-72.5 165.5q0 223 19 432z" />
<glyph unicode="&#xdd;" horiz-adv-x="582" d="M294 680q-30 31 -50 69q66 64 149 99q10 -9 19.5 -21.5t20.5 -28t17 -23.5q-34 -24 -156 -95zM433 650h149l-149 -339v-311h-254v312l-179 338h240l105 -183z" />
<glyph unicode="&#xde;" horiz-adv-x="617" d="M50 650l256 2v-71q69 0 117 -13t87 -45t58.5 -92t19.5 -149q0 -59 -16 -102.5t-43.5 -67t-63.5 -37.5t-76.5 -14.5t-82.5 1.5v-63l-256 2v561v88zM306 178q36 -2 62 10t26 43q0 23 -8 36.5t-22 16.5t-27.5 2t-30.5 -6v-102z" />
<glyph unicode="&#xdf;" horiz-adv-x="612" d="M181 0h-110q-21 264 -21 364q0 94 13 153.5t42.5 92.5t68.5 45t100 12q135 0 211.5 -51t76.5 -146q0 -60 -29.5 -100t-71.5 -54q45 -26 73 -67.5t28 -86.5q0 -67 -33 -109t-86 -55.5t-108 -12.5t-111 15v120q135 -12 135 85q0 86 -135 86v51q127 0 127 69 q0 25 -25.5 46.5t-51.5 21.5q-46 0 -73.5 -26.5t-27.5 -76.5q0 -205 8 -376z" />
<glyph unicode="&#xe0;" horiz-adv-x="578" d="M338 555q-122 71 -156 95q6 7 17 22.5t20.5 28t19.5 21.5q83 -35 149 -99q-19 -35 -50 -68zM315 95v76q0 10 -15 20t-28 8q-10 -1 -20.5 -6.5t-18.5 -13t-13 -17.5t-5 -20t5 -19.5t13 -16.5t18.5 -11t20.5 -4q29 0 43 4zM315 6q-36 -10 -80 -10q-101 0 -153 41t-52 134 q0 66 53.5 111t145.5 45q11 0 41.5 -4t44.5 -4v28q0 26 -32 38t-68 12q-62 0 -94.5 -4t-65.5 -18v70q80 80 260 80q91 0 152 -60t61 -133v-332q-106 -7 -213 0v6z" />
<glyph unicode="&#xe1;" horiz-adv-x="578" d="M228 550q-30 31 -50 69q66 64 149 99q10 -9 19.5 -21.5t20.5 -28t17 -23.5q-34 -24 -156 -95zM315 95v76q0 10 -15 20t-28 8q-10 -1 -20.5 -6.5t-18.5 -13t-13 -17.5t-5 -20t5 -19.5t13 -16.5t18.5 -11t20.5 -4q29 0 43 4zM315 6q-36 -10 -80 -10q-101 0 -153 41t-52 134 q0 66 53.5 111t145.5 45q11 0 41.5 -4t44.5 -4v28q0 26 -32 38t-68 12q-62 0 -94.5 -4t-65.5 -18v70q80 80 260 80q91 0 152 -60t61 -133v-332q-106 -7 -213 0v6z" />
<glyph unicode="&#xe2;" horiz-adv-x="578" d="M139 566q41 125 65 168q64 12 140 0q11 -24 21 -51.5t21.5 -64.5t16.5 -52q-62 -6 -100 0q-27 108 -29 114q-20 -39 -44 -114q-45 -3 -91 0zM315 95v76q0 10 -15 20t-28 8q-10 -1 -20.5 -6.5t-18.5 -13t-13 -17.5t-5 -20t5 -19.5t13 -16.5t18.5 -11t20.5 -4q29 0 43 4z M315 6q-36 -10 -80 -10q-101 0 -153 41t-52 134q0 66 53.5 111t145.5 45q11 0 41.5 -4t44.5 -4v28q0 26 -32 38t-68 12q-62 0 -94.5 -4t-65.5 -18v70q80 80 260 80q91 0 152 -60t61 -133v-332q-106 -7 -213 0v6z" />
<glyph unicode="&#xe3;" horiz-adv-x="578" d="M141 580v70q7 13 28 21.5t42 8.5q49 0 87 -20t53 -20q25 0 60 10v-70q-23 -30 -60 -30q-31 0 -76 25t-74 25q-28 0 -60 -20zM315 95v76q0 10 -15 20t-28 8q-10 -1 -20.5 -6.5t-18.5 -13t-13 -17.5t-5 -20t5 -19.5t13 -16.5t18.5 -11t20.5 -4q29 0 43 4zM315 6 q-36 -10 -80 -10q-101 0 -153 41t-52 134q0 66 53.5 111t145.5 45q11 0 41.5 -4t44.5 -4v28q0 26 -32 38t-68 12q-62 0 -94.5 -4t-65.5 -18v70q80 80 260 80q91 0 152 -60t61 -133v-332q-106 -7 -213 0v6z" />
<glyph unicode="&#xe4;" horiz-adv-x="578" d="M181 692q33 0 50 -17t17 -46q0 -33 -18 -52t-52 -19q-70 0 -70 67q0 32 20.5 49.5t52.5 17.5zM380 695q33 0 50 -17t17 -46q0 -70 -70 -70q-71 0 -71 66q0 32 21 49.5t53 17.5zM315 95v76q0 10 -15 20t-28 8q-10 -1 -20.5 -6.5t-18.5 -13t-13 -17.5t-5 -20t5 -19.5 t13 -16.5t18.5 -11t20.5 -4q29 0 43 4zM315 6q-36 -10 -80 -10q-101 0 -153 41t-52 134q0 66 53.5 111t145.5 45q11 0 41.5 -4t44.5 -4v28q0 26 -32 38t-68 12q-62 0 -94.5 -4t-65.5 -18v70q80 80 260 80q91 0 152 -60t61 -133v-332q-106 -7 -213 0v6z" />
<glyph unicode="&#xe5;" horiz-adv-x="578" d="M287 718q-26 0 -44 -17t-18 -40q0 -27 18 -44.5t44 -17.5q25 0 40.5 15t15.5 41q0 29 -14.5 46t-41.5 17zM274 781q51 0 79.5 -33t28.5 -88q0 -50 -30.5 -79t-77.5 -29q-49 0 -82.5 34.5t-33.5 85.5q0 44 33.5 76.5t82.5 32.5zM315 95v76q0 10 -15 20t-28 8 q-10 -1 -20.5 -6.5t-18.5 -13t-13 -17.5t-5 -20t5 -19.5t13 -16.5t18.5 -11t20.5 -4q29 0 43 4zM315 6q-36 -10 -80 -10q-101 0 -153 41t-52 134q0 66 53.5 111t145.5 45q11 0 41.5 -4t44.5 -4v28q0 26 -32 38t-68 12q-62 0 -94.5 -4t-65.5 -18v70q80 80 260 80 q91 0 152 -60t61 -133v-332q-106 -7 -213 0v6z" />
<glyph unicode="&#xe6;" horiz-adv-x="895" d="M601 513q128 0 192.5 -77t48.5 -218h-280q0 -56 27.5 -85.5t64.5 -29.5t69 14.5t43 42.5h69q-10 -78 -74.5 -130.5t-159.5 -52.5t-165 61q-77 -59 -178 -59q-102 0 -155 42t-53 137q0 68 54 114.5t148 46.5q12 0 43 -4.5t45 -4.5v29q0 26 -32.5 38.5t-69.5 12.5 q-77 0 -142 -14v72q106 64 244 64q69 0 124 -34q59 35 137 35zM635 391q-23 0 -48 -23.5t-25 -62.5h138q10 39 -15 62.5t-50 23.5zM306 209q-21 -2 -39.5 -20t-18.5 -38q0 -21 18.5 -36.5t39.5 -15.5q29 0 44 4v78q0 10 -15.5 20t-28.5 8z" />
<glyph unicode="&#xe7;" horiz-adv-x="544" d="M322 -9q-2 -11 -2 -20q14 3 33 1t36.5 -6t29.5 -17t12 -32q0 -26 -14 -44.5t-34.5 -26t-44 -12t-42.5 -3t-30 0.5v31q4 0 9 0.5t10 2t10.5 3.5t10.5 4.5t9.5 6t8 7t6 8.5t2.5 10q0 6 -2 10t-6.5 7t-9 4.5t-12 2t-12.5 1t-13 0.5h-12q1 6 2.5 29.5t3.5 35.5 q-120 14 -180.5 82t-60.5 200q0 55 16.5 98t46 71t74 46t97.5 26t120 8q74 0 110 -25v-268q-38 17 -73.5 12t-60.5 -28.5t-25 -54.5q0 -30 28.5 -50t63.5 -26t67 -3v-80q-83 -12 -153 -12h-19z" />
<glyph unicode="&#xe8;" horiz-adv-x="608" d="M354 555q-122 71 -156 95q6 7 17 22.5t20.5 28t19.5 21.5q83 -35 149 -99q-19 -35 -50 -68zM308 524q141 0 212 -76.5t54 -215.5h-309q0 -56 30.5 -84.5t71.5 -28.5t75.5 14t47.5 42h76q-11 -77 -82.5 -129t-175.5 -52q-113 0 -195.5 72.5t-82.5 194.5q0 124 78 193.5 t200 69.5zM346 403q-26 0 -53.5 -23t-27.5 -62h152q11 38 -16 61.5t-55 23.5z" />
<glyph unicode="&#xe9;" horiz-adv-x="608" d="M244 550q-30 31 -50 69q66 64 149 99q10 -9 19.5 -21.5t20.5 -28t17 -23.5q-34 -24 -156 -95zM308 524q141 0 212 -76.5t54 -215.5h-309q0 -56 30.5 -84.5t71.5 -28.5t75.5 14t47.5 42h76q-11 -77 -82.5 -129t-175.5 -52q-113 0 -195.5 72.5t-82.5 194.5q0 124 78 193.5 t200 69.5zM346 403q-26 0 -53.5 -23t-27.5 -62h152q11 38 -16 61.5t-55 23.5z" />
<glyph unicode="&#xea;" horiz-adv-x="608" d="M155 566q41 125 65 168q64 12 140 0q11 -24 21 -51.5t21.5 -64.5t16.5 -52q-62 -6 -100 0q-27 108 -29 114q-20 -39 -44 -114q-46 -3 -91 0zM308 524q141 0 212 -76.5t54 -215.5h-309q0 -56 30.5 -84.5t71.5 -28.5t75.5 14t47.5 42h76q-11 -77 -82.5 -129t-175.5 -52 q-113 0 -195.5 72.5t-82.5 194.5q0 124 78 193.5t200 69.5zM346 403q-26 0 -53.5 -23t-27.5 -62h152q11 38 -16 61.5t-55 23.5z" />
<glyph unicode="&#xeb;" horiz-adv-x="608" d="M396 695q33 0 50 -17t17 -46q0 -70 -70 -70q-71 0 -71 66q0 32 21 49.5t53 17.5zM197 692q33 0 50 -17t17 -46q0 -33 -18 -52t-52 -19q-70 0 -70 67q0 32 20.5 49.5t52.5 17.5zM308 524q141 0 212 -76.5t54 -215.5h-309q0 -56 30.5 -84.5t71.5 -28.5t75.5 14t47.5 42h76 q-11 -77 -82.5 -129t-175.5 -52q-113 0 -195.5 72.5t-82.5 194.5q0 124 78 193.5t200 69.5zM346 403q-26 0 -53.5 -23t-27.5 -62h152q11 38 -16 61.5t-55 23.5z" />
<glyph unicode="&#xec;" horiz-adv-x="324" d="M226 535q-122 71 -156 95q6 7 17 22.5t20.5 28t19.5 21.5q83 -35 149 -99q-19 -35 -50 -68zM274 491v-491h-224v491h224z" />
<glyph unicode="&#xed;" horiz-adv-x="324" d="M116 530q-30 31 -50 69q66 64 149 99q10 -9 19.5 -21.5t20.5 -28t17 -23.5q-34 -24 -156 -95zM274 491v-491h-224v491h224z" />
<glyph unicode="&#xee;" horiz-adv-x="324" d="M27 546q41 125 65 168q64 12 140 0q11 -24 21 -51.5t21.5 -64.5t16.5 -52q-62 -6 -100 0q-27 108 -29 114q-20 -39 -44 -114q-45 -3 -91 0zM274 491v-491h-224v491h224z" />
<glyph unicode="&#xef;" horiz-adv-x="324" d="M268 675q33 0 50 -17t17 -46q0 -70 -70 -70q-71 0 -71 66q0 32 21 49.5t53 17.5zM69 672q33 0 50 -17t17 -46q0 -33 -18 -52t-52 -19q-70 0 -70 67q0 32 20.5 49.5t52.5 17.5zM274 491v-491h-224v491h224z" />
<glyph unicode="&#xf0;" horiz-adv-x="568" d="M399 596l109 34l20 -80l-64 -16q36 -44 55 -94t19 -90q0 -95 -12.5 -159.5t-42.5 -111t-83 -68t-132 -21.5q-118 0 -178 62.5t-60 203.5q0 46 18.5 81t48.5 54.5t68 29.5t77 9.5t76 -8.5q-8 40 -23 70l-87 -22l-20 60l60 19q-18 14 -40 21v90q109 -5 191 -64zM321 214 q-32 17 -62 7.5t-30 -36.5q0 -20 11.5 -32.5t27.5 -12.5q40 0 53 74z" />
<glyph unicode="&#xf1;" horiz-adv-x="641" d="M157 580v70q7 13 28 21.5t42 8.5q49 0 87 -20t53 -20q25 0 60 10v-70q-23 -30 -60 -30q-31 0 -76 25t-74 25q-28 0 -60 -20zM591 0h-199v228q0 26 -18 43.5t-40.5 17.5t-41.5 -14v-275h-242v520h242v-102q23 53 51.5 81t76.5 28q68 0 119 -51.5t52 -124.5v-351z" />
<glyph unicode="&#xf2;" horiz-adv-x="580" d="M357 560q-122 71 -156 95q6 7 17 22.5t20.5 28t19.5 21.5q83 -35 149 -99q-19 -35 -50 -68zM299 525q128 0 189.5 -67t61.5 -186q0 -155 -64 -218.5t-187 -63.5q-146 0 -207.5 67t-61.5 215q0 253 269 253zM333 264q-40 0 -58 -17t-18 -55q0 -72 76 -72q27 0 49.5 20 t22.5 52q0 33 -22.5 52.5t-49.5 19.5z" />
<glyph unicode="&#xf3;" horiz-adv-x="580" d="M247 555q-30 31 -50 69q66 64 149 99q10 -9 19.5 -21.5t20.5 -28t17 -23.5q-34 -24 -156 -95zM299 525q128 0 189.5 -67t61.5 -186q0 -155 -64 -218.5t-187 -63.5q-146 0 -207.5 67t-61.5 215q0 253 269 253zM333 264q-40 0 -58 -17t-18 -55q0 -72 76 -72q27 0 49.5 20 t22.5 52q0 33 -22.5 52.5t-49.5 19.5z" />
<glyph unicode="&#xf4;" horiz-adv-x="580" d="M158 571q41 125 65 168q64 12 140 0q11 -24 21 -51.5t21.5 -64.5t16.5 -52q-62 -6 -100 0q-27 108 -29 114q-20 -39 -44 -114q-45 -3 -91 0zM299 525q128 0 189.5 -67t61.5 -186q0 -155 -64 -218.5t-187 -63.5q-146 0 -207.5 67t-61.5 215q0 253 269 253zM333 264 q-40 0 -58 -17t-18 -55q0 -72 76 -72q27 0 49.5 20t22.5 52q0 33 -22.5 52.5t-49.5 19.5z" />
<glyph unicode="&#xf5;" horiz-adv-x="580" d="M160 585v70q7 13 28 21.5t42 8.5q49 0 87 -20t53 -20q25 0 60 10v-70q-23 -30 -60 -30q-31 0 -76 25t-74 25q-28 0 -60 -20zM299 525q128 0 189.5 -67t61.5 -186q0 -155 -64 -218.5t-187 -63.5q-146 0 -207.5 67t-61.5 215q0 253 269 253zM333 264q-40 0 -58 -17t-18 -55 q0 -72 76 -72q27 0 49.5 20t22.5 52q0 33 -22.5 52.5t-49.5 19.5z" />
<glyph unicode="&#xf6;" horiz-adv-x="580" d="M399 700q33 0 50 -17t17 -46q0 -70 -70 -70q-71 0 -71 66q0 32 21 49.5t53 17.5zM200 697q33 0 50 -17t17 -46q0 -33 -18 -52t-52 -19q-70 0 -70 67q0 32 20.5 49.5t52.5 17.5zM299 525q128 0 189.5 -67t61.5 -186q0 -155 -64 -218.5t-187 -63.5q-146 0 -207.5 67 t-61.5 215q0 253 269 253zM333 264q-40 0 -58 -17t-18 -55q0 -72 76 -72q27 0 49.5 20t22.5 52q0 33 -22.5 52.5t-49.5 19.5z" />
<glyph unicode="&#xf7;" horiz-adv-x="675" d="M338 631q37 1 56.5 -22t19.5 -62q0 -32 -22.5 -54.5t-54.5 -22.5q-33 0 -54 20t-21 57q0 39 19 61t57 23zM50 368h576v-120h-576v120zM335 154q37 1 56.5 -22t19.5 -62q0 -32 -22.5 -54.5t-54.5 -22.5q-33 0 -54 20t-21 57q0 39 19 61t57 23z" />
<glyph unicode="&#xf8;" horiz-adv-x="593" d="M390 306l-90 -173h10q38 0 71 29t33 76q0 40 -24 68zM212 177l87 166q-35 -2 -57 -13t-32.5 -33.5t-10.5 -58.5q0 -38 13 -61zM146 50q-51 30 -73.5 87.5t-22.5 148.5q0 122 62.5 182.5t192.5 60.5q48 0 86 -10l20 37h110l-44 -84q66 -62 66 -186q0 -62 -11 -108.5 t-31 -77t-50 -49.5t-65.5 -27t-80.5 -8q-35 0 -65 4l-15 -29h-110z" />
<glyph unicode="&#xf9;" horiz-adv-x="628" d="M381 565q-122 71 -156 95q6 7 17 22.5t20.5 28t19.5 21.5q83 -35 149 -99q-19 -35 -50 -68zM368 520h236v-520h-236v79q-15 -39 -58.5 -64t-95.5 -25q-67 0 -112 42.5t-53 115.5q-16 142 -10 372h219q-6 -163 0 -256q2 -30 22 -45.5t46 -9t42 33.5v277z" />
<glyph unicode="&#xfa;" horiz-adv-x="628" d="M271 560q-30 31 -50 69q66 64 149 99q10 -9 19.5 -21.5t20.5 -28t17 -23.5q-34 -24 -156 -95zM368 520h236v-520h-236v79q-15 -39 -58.5 -64t-95.5 -25q-67 0 -112 42.5t-53 115.5q-16 142 -10 372h219q-6 -163 0 -256q2 -30 22 -45.5t46 -9t42 33.5v277z" />
<glyph unicode="&#xfb;" horiz-adv-x="628" d="M182 576q41 125 65 168q64 12 140 0q11 -24 21 -51.5t21.5 -64.5t16.5 -52q-62 -6 -100 0q-27 108 -29 114q-20 -39 -44 -114q-46 -3 -91 0zM368 520h236v-520h-236v79q-15 -39 -58.5 -64t-95.5 -25q-67 0 -112 42.5t-53 115.5q-16 142 -10 372h219q-6 -163 0 -256 q2 -30 22 -45.5t46 -9t42 33.5v277z" />
<glyph unicode="&#xfc;" horiz-adv-x="628" d="M224 702q33 0 50 -17t17 -46q0 -33 -18 -52t-52 -19q-70 0 -70 67q0 32 20.5 49.5t52.5 17.5zM423 705q33 0 50 -17t17 -46q0 -70 -70 -70q-71 0 -71 66q0 32 21 49.5t53 17.5zM368 520h236v-520h-236v79q-15 -39 -58.5 -64t-95.5 -25q-67 0 -112 42.5t-53 115.5 q-16 142 -10 372h219q-6 -163 0 -256q2 -30 22 -45.5t46 -9t42 33.5v277z" />
<glyph unicode="&#xfd;" horiz-adv-x="592" d="M284 550q-30 31 -50 69q66 64 149 99q10 -9 19.5 -21.5t20.5 -28t17 -23.5q-34 -24 -156 -95zM10 520h246l91 -221q44 118 77 221h158q-83 -275 -238 -645h-167q35 86 54 132z" />
<glyph unicode="&#xfe;" horiz-adv-x="592" d="M50 650h214v-149q40 13 80 14.5t80 -12t70 -43t49 -85t19 -131.5q0 -50 -12 -90.5t-31 -66.5t-45.5 -45t-53.5 -28.5t-57 -14t-53.5 -4t-45.5 3.5v-139h-214v790zM264 116q36 -12 67.5 2.5t31.5 54.5q0 24 -16 36t-38.5 11.5t-44.5 -10.5v-94z" />
<glyph unicode="&#xff;" horiz-adv-x="592" d="M237 692q33 0 50 -17t17 -46q0 -33 -18 -52t-52 -19q-70 0 -70 67q0 32 20.5 49.5t52.5 17.5zM436 695q33 0 50 -17t17 -46q0 -70 -70 -70q-71 0 -71 66q0 32 21 49.5t53 17.5zM10 520h246l91 -221q44 118 77 221h158q-83 -275 -238 -645h-167q35 86 54 132z" />
<glyph unicode="&#x100;" d="M224 800h206v-96h-206v96zM0 0l186 650h218l206 -650h-158l-19 68h-164l-18 -68h-251zM300 181h101l-52 183z" />
<glyph unicode="&#x101;" horiz-adv-x="578" d="M158 670h206v-96h-206v96zM315 95v76q0 10 -15 20t-28 8q-10 -1 -20.5 -6.5t-18.5 -13t-13 -17.5t-5 -20t5 -19.5t13 -16.5t18.5 -11t20.5 -4q29 0 43 4zM315 6q-36 -10 -80 -10q-101 0 -153 41t-52 134q0 66 53.5 111t145.5 45q11 0 41.5 -4t44.5 -4v28q0 26 -32 38 t-68 12q-62 0 -94.5 -4t-65.5 -18v70q80 80 260 80q91 0 152 -60t61 -133v-332q-106 -7 -213 0v6z" />
<glyph unicode="&#x102;" d="M364 824q45 3 91 0q-21 -144 -128 -144q-52 0 -91.5 36.5t-44.5 107.5q62 6 100 0q10 -85 37 -85q29 0 36 85zM0 0l186 650h218l206 -650h-158l-19 68h-164l-18 -68h-251zM300 181h101l-52 183z" />
<glyph unicode="&#x103;" horiz-adv-x="578" d="M298 694q45 3 91 0q-21 -144 -128 -144q-52 0 -91.5 36.5t-44.5 107.5q62 6 100 0q10 -85 37 -85q29 0 36 85zM315 95v76q0 10 -15 20t-28 8q-10 -1 -20.5 -6.5t-18.5 -13t-13 -17.5t-5 -20t5 -19.5t13 -16.5t18.5 -11t20.5 -4q29 0 43 4zM315 6q-36 -10 -80 -10 q-101 0 -153 41t-52 134q0 66 53.5 111t145.5 45q11 0 41.5 -4t44.5 -4v28q0 26 -32 38t-68 12q-62 0 -94.5 -4t-65.5 -18v70q80 80 260 80q91 0 152 -60t61 -133v-332q-106 -7 -213 0v6z" />
<glyph unicode="&#x104;" d="M0 0l186 650h218l198 -626l14 -10q-5 -3 -9 -6l3 -8h-12q-22 -20 -22 -53q0 -36 31 -36q21 0 55 17l1 -47q-9 -13 -32.5 -22t-50.5 -9t-49.5 8.5t-38.5 30t-16 54.5q0 31 16 57h-40l-19 68h-164l-18 -68h-251zM300 181h101l-52 183z" />
<glyph unicode="&#x105;" horiz-adv-x="578" d="M380 -3q-32 1 -65 3v6q-36 -10 -80 -10q-101 0 -153 41t-52 134q0 66 53.5 111t145.5 45q11 0 41.5 -4t44.5 -4v28q0 26 -32 38t-68 12q-62 0 -94.5 -4t-65.5 -18v70q80 80 260 80q91 0 152 -60t61 -133v-332q-21 -1 -40 -2q-16 -13 -21.5 -26t-5.5 -32q0 -36 31 -36 q21 0 55 17l1 -47q-9 -13 -32.5 -22t-50.5 -9q-43 0 -73.5 22.5t-30.5 70.5q0 33 19 61zM315 95v76q0 10 -15 20t-28 8q-13 -1 -26.5 -9.5t-22 -21.5t-8.5 -26q0 -20 18 -35.5t39 -15.5q29 0 43 4z" />
<glyph unicode="&#x106;" horiz-adv-x="635" d="M344 680q-30 31 -50 69q66 64 149 99q10 -9 19.5 -21.5t20.5 -28t17 -23.5q-34 -24 -156 -95zM585 285q-37 3 -70.5 0.5t-59 -10t-40.5 -26.5t-15 -50q0 -43 61 -67.5t124 -3.5v-114q-67 -24 -199 -24q-180 0 -268 73.5t-88 249.5q0 185 85.5 266t298.5 81q113 0 171 -34 v-341z" />
<glyph unicode="&#x107;" horiz-adv-x="544" d="M304 550q-30 31 -50 69q66 64 149 99q10 -9 19.5 -21.5t20.5 -28t17 -23.5q-34 -24 -156 -95zM341 -9q-155 0 -233 68t-78 218q0 134 91 191.5t263 57.5q74 0 110 -25v-268q-55 27 -107 2t-52 -73q0 -30 28.5 -50t63.5 -26t67 -3v-80q-83 -12 -153 -12z" />
<glyph unicode="&#x108;" horiz-adv-x="635" d="M255 696q41 125 65 168q64 12 140 0q11 -24 21 -51.5t21.5 -64.5t16.5 -52q-62 -6 -100 0q-27 108 -29 114q-20 -39 -44 -114q-45 -3 -91 0zM585 285q-37 3 -70.5 0.5t-59 -10t-40.5 -26.5t-15 -50q0 -43 61 -67.5t124 -3.5v-114q-67 -24 -199 -24q-180 0 -268 73.5 t-88 249.5q0 185 85.5 266t298.5 81q113 0 171 -34v-341z" />
<glyph unicode="&#x109;" horiz-adv-x="544" d="M215 566q41 125 65 168q64 12 140 0q11 -24 21 -51.5t21.5 -64.5t16.5 -52q-62 -6 -100 0q-27 108 -29 114q-20 -39 -44 -114q-46 -3 -91 0zM341 -9q-155 0 -233 68t-78 218q0 134 91 191.5t263 57.5q74 0 110 -25v-268q-55 27 -107 2t-52 -73q0 -30 28.5 -50t63.5 -26 t67 -3v-80q-83 -12 -153 -12z" />
<glyph unicode="&#x10a;" horiz-adv-x="635" d="M397 822q33 0 50 -17t17 -46q0 -33 -18 -52t-52 -19q-70 0 -70 67q0 32 20.5 49.5t52.5 17.5zM585 285q-37 3 -70.5 0.5t-59 -10t-40.5 -26.5t-15 -50q0 -43 61 -67.5t124 -3.5v-114q-67 -24 -199 -24q-180 0 -268 73.5t-88 249.5q0 185 85.5 266t298.5 81q113 0 171 -34 v-341z" />
<glyph unicode="&#x10b;" horiz-adv-x="544" d="M357 702q33 0 50 -17t17 -46q0 -33 -18 -52t-52 -19q-70 0 -70 67q0 32 20.5 49.5t52.5 17.5zM341 -9q-155 0 -233 68t-78 218q0 134 91 191.5t263 57.5q74 0 110 -25v-268q-55 27 -107 2t-52 -73q0 -30 28.5 -50t63.5 -26t67 -3v-80q-83 -12 -153 -12z" />
<glyph unicode="&#x10c;" horiz-adv-x="635" d="M519 854q-41 -125 -65 -168q-64 -12 -140 0q-11 24 -21 51.5t-21.5 64.5t-16.5 52q62 6 100 0q27 -108 29 -114q20 39 44 114q45 3 91 0zM585 285q-37 3 -70.5 0.5t-59 -10t-40.5 -26.5t-15 -50q0 -43 61 -67.5t124 -3.5v-114q-67 -24 -199 -24q-180 0 -268 73.5 t-88 249.5q0 185 85.5 266t298.5 81q113 0 171 -34v-341z" />
<glyph unicode="&#x10d;" horiz-adv-x="544" d="M479 724q-41 -125 -65 -168q-64 -12 -140 0q-11 24 -21 51.5t-21.5 64.5t-16.5 52q62 6 100 0q27 -108 29 -114q20 39 44 114q46 3 91 0zM341 -9q-155 0 -233 68t-78 218q0 134 91 191.5t263 57.5q74 0 110 -25v-268q-55 27 -107 2t-52 -73q0 -30 28.5 -50t63.5 -26 t67 -3v-80q-83 -12 -153 -12z" />
<glyph unicode="&#x10e;" horiz-adv-x="629" d="M429 854q-41 -125 -65 -168q-64 -12 -140 0q-11 24 -21 51.5t-21.5 64.5t-16.5 52q62 6 100 0q27 -108 29 -114q20 39 44 114q46 3 91 0zM50 650h318q56 0 97.5 -18t67 -49t40.5 -80.5t20.5 -103t5.5 -125.5q0 -124 -44.5 -199t-128.5 -75h-376v650zM310 267v-144h58 q18 0 30.5 22.5t12.5 49.5q0 35 -12.5 53.5t-30.5 18.5h-58z" />
<glyph unicode="&#x10f;" horiz-adv-x="740" d="M579 470q33 138 46 177q8 -3 20.5 -7.5t22 -7.5t21.5 -8t21 -10q-9 -90 -52 -172q-39 8 -79 28zM528 650v-650h-213v7q-136 -27 -210.5 33.5t-74.5 205.5q0 54 17.5 97.5t46 71t66 45t77 23t78.5 1.5v166h213zM315 240q-32 7 -58.5 -8t-26.5 -47q0 -27 10.5 -42.5 t28.5 -20.5t46 -1v119z" />
<glyph unicode="&#x110;" horiz-adv-x="669" d="M0 197v111h76v342h315q56 0 97 -18t66 -49t40 -80t20.5 -103t5.5 -126q0 -124 -44 -199t-127 -75h-373v197h-76zM280 308h84v-111h-84v-111h69q56 0 95 47t39 110q0 81 -38.5 124.5t-86.5 43.5h-78v-103z" />
<glyph unicode="&#x111;" horiz-adv-x="578" d="M315 240q-32 7 -58.5 -8t-26.5 -47q0 -27 10.5 -42.5t28.5 -20.5t46 -1v119zM315 7q-136 -27 -210.5 33.5t-74.5 205.5q0 45 12 83t33 64.5t49.5 46.5t60 29.5t65 14.5t65.5 0v34l-61 2v96l61 -3v37h213v-45l40 -2l10 -96l-50 2v-509h-213v7z" />
<glyph unicode="&#x112;" horiz-adv-x="509" d="M148 800h206v-96h-206v96zM50 650h409v-203h-174v-87h174v-74h-174v-75h174v-210h-409v649z" />
<glyph unicode="&#x113;" horiz-adv-x="608" d="M188 670h206v-96h-206v96zM308 524q141 0 212 -76.5t54 -215.5h-309q0 -56 30.5 -84.5t71.5 -28.5t75.5 14t47.5 42h76q-11 -77 -82.5 -129t-175.5 -52q-113 0 -195.5 72.5t-82.5 194.5q0 124 78 193.5t200 69.5zM346 403q-26 0 -53.5 -23t-27.5 -62h152q11 38 -16 61.5 t-55 23.5z" />
<glyph unicode="&#x114;" horiz-adv-x="509" d="M288 824q46 3 91 0q-21 -144 -128 -144q-52 0 -91.5 36.5t-44.5 107.5q62 6 100 0q10 -85 37 -85q29 0 36 85zM50 650h409v-203h-174v-87h174v-74h-174v-75h174v-210h-409v649z" />
<glyph unicode="&#x115;" horiz-adv-x="608" d="M328 694q46 3 91 0q-21 -144 -128 -144q-52 0 -91.5 36.5t-44.5 107.5q62 6 100 0q10 -85 37 -85q29 0 36 85zM308 524q141 0 212 -76.5t54 -215.5h-309q0 -56 30.5 -84.5t71.5 -28.5t75.5 14t47.5 42h76q-11 -77 -82.5 -129t-175.5 -52q-113 0 -195.5 72.5t-82.5 194.5 q0 124 78 193.5t200 69.5zM346 403q-26 0 -53.5 -23t-27.5 -62h152q11 38 -16 61.5t-55 23.5z" />
<glyph unicode="&#x116;" horiz-adv-x="509" d="M257 822q33 0 50 -17t17 -46q0 -33 -18 -52t-52 -19q-70 0 -70 67q0 32 20.5 49.5t52.5 17.5zM50 650h409v-203h-174v-87h174v-74h-174v-75h174v-210h-409v649z" />
<glyph unicode="&#x117;" horiz-adv-x="608" d="M297 692q33 0 50 -17t17 -46q0 -33 -18 -52t-52 -19q-70 0 -70 67q0 32 20.5 49.5t52.5 17.5zM308 524q141 0 212 -76.5t54 -215.5h-309q0 -56 30.5 -84.5t71.5 -28.5t75.5 14t47.5 42h76q-11 -77 -82.5 -129t-175.5 -52q-113 0 -195.5 72.5t-82.5 194.5q0 124 78 193.5 t200 69.5zM346 403q-26 0 -53.5 -23t-27.5 -62h152q11 38 -16 61.5t-55 23.5z" />
<glyph unicode="&#x118;" horiz-adv-x="509" d="M50 650h409v-203h-174v-87h174v-74h-174v-75h174v-210h-28q-19 -14 -25.5 -27.5t-6.5 -33.5q0 -36 31 -36q21 0 55 17l1 -47q-9 -13 -32.5 -22t-50.5 -9q-43 0 -73.5 22.5t-30.5 70.5q0 36 21 65h-270v649z" />
<glyph unicode="&#x119;" horiz-adv-x="608" d="M346 403q-26 0 -53.5 -23t-27.5 -62h152q11 38 -16 61.5t-55 23.5zM308 524q141 0 212 -76.5t54 -215.5h-309q0 -56 30.5 -84.5t71.5 -28.5t75.5 14t47.5 42h76q-8 -56 -49 -100t-106 -65q-12 -16 -12 -43q0 -36 31 -36q21 0 55 17l1 -47q-9 -13 -32.5 -22t-50.5 -9 q-43 0 -73.5 22.5t-30.5 70.5q0 16 4 31q-71 1 -132.5 31.5t-101 92.5t-39.5 143q0 124 78 193.5t200 69.5z" />
<glyph unicode="&#x11a;" horiz-adv-x="509" d="M379 854q-41 -125 -65 -168q-64 -12 -140 0q-11 24 -21 51.5t-21.5 64.5t-16.5 52q62 6 100 0q27 -108 29 -114q20 39 44 114q46 3 91 0zM50 650h409v-203h-174v-87h174v-74h-174v-75h174v-210h-409v649z" />
<glyph unicode="&#x11b;" horiz-adv-x="608" d="M419 724q-41 -125 -65 -168q-64 -12 -140 0q-11 24 -21 51.5t-21.5 64.5t-16.5 52q62 6 100 0q27 -108 29 -114q20 39 44 114q46 3 91 0zM308 524q141 0 212 -76.5t54 -215.5h-309q0 -56 30.5 -84.5t71.5 -28.5t75.5 14t47.5 42h76q-11 -77 -82.5 -129t-175.5 -52 q-113 0 -195.5 72.5t-82.5 194.5q0 124 78 193.5t200 69.5zM346 403q-26 0 -53.5 -23t-27.5 -62h152q11 38 -16 61.5t-55 23.5z" />
<glyph unicode="&#x11c;" horiz-adv-x="657" d="M235 696q41 125 65 168q64 12 140 0q11 -24 21 -51.5t21.5 -64.5t16.5 -52q-62 -6 -100 0q-27 108 -29 114q-20 -39 -44 -114q-46 -3 -91 0zM607 324q-41 6 -82.5 3t-75 -11.5t-55 -35t-21.5 -68.5q0 -55 41.5 -81.5t122.5 -16.5v65q-30 6 -58 5q-2 32 0 59q57 4 128 0 v-226q-194 -33 -322.5 -23t-191.5 85.5t-63 230.5q0 75 15 133t41.5 98t66.5 66t87.5 38.5t107.5 14t122.5 -5.5t136.5 -23v-307z" />
<glyph unicode="&#x11d;" horiz-adv-x="612" d="M195 566q41 125 65 168q64 12 140 0q11 -24 21 -51.5t21.5 -64.5t16.5 -52q-62 -6 -100 0q-27 108 -29 114q-20 -39 -44 -114q-45 -3 -91 0zM117 -61q38 -10 81 -11.5t80 6t61.5 28t24.5 51.5v2q-55 -14 -111 -14q-223 0 -223 265q0 59 19.5 108t51.5 80t71.5 48t80.5 17 q47 0 111 -26v26h198v-481q0 -65 -47 -110t-116 -61t-145 -13.5t-137 23.5v62zM364 106v123q-14 5 -25 5q-33 0 -53.5 -20t-20.5 -47q0 -29 18.5 -48t43.5 -19q17 0 37 6z" />
<glyph unicode="&#x11e;" horiz-adv-x="657" d="M408 824q45 3 91 0q-21 -144 -128 -144q-52 0 -91.5 36.5t-44.5 107.5q62 6 100 0q10 -85 37 -85q29 0 36 85zM607 324q-41 6 -82.5 3t-75 -11.5t-55 -35t-21.5 -68.5q0 -55 41.5 -81.5t122.5 -16.5v65q-30 6 -58 5q-2 32 0 59q57 4 128 0v-226q-194 -33 -322.5 -23 t-191.5 85.5t-63 230.5q0 75 15 133t41.5 98t66.5 66t87.5 38.5t107.5 14t122.5 -5.5t136.5 -23v-307z" />
<glyph unicode="&#x11f;" horiz-adv-x="612" d="M368 694q45 3 91 0q-21 -144 -128 -144q-52 0 -91.5 36.5t-44.5 107.5q62 6 100 0q10 -85 37 -85q29 0 36 85zM117 -61q38 -10 81 -11.5t80 6t61.5 28t24.5 51.5v2q-55 -14 -111 -14q-223 0 -223 265q0 59 19.5 108t51.5 80t71.5 48t80.5 17q47 0 111 -26v26h198v-481 q0 -65 -47 -110t-116 -61t-145 -13.5t-137 23.5v62zM364 106v123q-14 5 -25 5q-33 0 -53.5 -20t-20.5 -47q0 -29 18.5 -48t43.5 -19q17 0 37 6z" />
<glyph unicode="&#x120;" horiz-adv-x="657" d="M377 822q33 0 50 -17t17 -46q0 -33 -18 -52t-52 -19q-70 0 -70 67q0 32 20.5 49.5t52.5 17.5zM607 324q-41 6 -82.5 3t-75 -11.5t-55 -35t-21.5 -68.5q0 -55 41.5 -81.5t122.5 -16.5v65q-30 6 -58 5q-2 32 0 59q57 4 128 0v-226q-194 -33 -322.5 -23t-191.5 85.5 t-63 230.5q0 75 15 133t41.5 98t66.5 66t87.5 38.5t107.5 14t122.5 -5.5t136.5 -23v-307z" />
<glyph unicode="&#x121;" horiz-adv-x="612" d="M337 692q33 0 50 -17t17 -46q0 -33 -18 -52t-52 -19q-70 0 -70 67q0 32 20.5 49.5t52.5 17.5zM117 -61q38 -10 81 -11.5t80 6t61.5 28t24.5 51.5v2q-55 -14 -111 -14q-223 0 -223 265q0 59 19.5 108t51.5 80t71.5 48t80.5 17q47 0 111 -26v26h198v-481q0 -65 -47 -110 t-116 -61t-145 -13.5t-137 23.5v62zM364 106v123q-14 5 -25 5q-33 0 -53.5 -20t-20.5 -47q0 -29 18.5 -48t43.5 -19q17 0 37 6z" />
<glyph unicode="&#x122;" horiz-adv-x="657" d="M334 -121q117 79 153 99q4 -8 13.5 -25t16 -30.5t11.5 -26.5q-68 -60 -154 -92q-24 33 -40 75zM607 324q-41 6 -82.5 3t-75 -11.5t-55 -35t-21.5 -68.5q0 -55 41.5 -81.5t122.5 -16.5v65q-30 6 -58 5q-2 32 0 59q57 4 128 0v-226q-194 -33 -322.5 -23t-191.5 85.5 t-63 230.5q0 75 15 133t41.5 98t66.5 66t87.5 38.5t107.5 14t122.5 -5.5t136.5 -23v-307z" />
<glyph unicode="&#x123;" horiz-adv-x="612" d="M439 651q-117 -79 -153 -99q-4 8 -13.5 25t-16 30.5t-11.5 26.5q68 60 154 92q24 -33 40 -75zM117 -61q38 -10 81 -11.5t80 6t61.5 28t24.5 51.5v2q-55 -14 -111 -14q-223 0 -223 265q0 59 19.5 108t51.5 80t71.5 48t80.5 17q47 0 111 -26v26h198v-481q0 -65 -47 -110 t-116 -61t-145 -13.5t-137 23.5v62zM364 106v123q-14 5 -25 5q-33 0 -53.5 -20t-20.5 -47q0 -29 18.5 -48t43.5 -19q17 0 37 6z" />
<glyph unicode="&#x124;" horiz-adv-x="656" d="M192 696q41 125 65 168q64 12 140 0q11 -24 21 -51.5t21.5 -64.5t16.5 -52q-62 -6 -100 0q-27 108 -29 114q-20 -39 -44 -114q-46 -3 -91 0zM375 650h231v-650h-228q-2 117 -3 168h-94v-168h-228l-3 650h231q2 -85 1 -329h92q-2 183 1 329z" />
<glyph unicode="&#x125;" horiz-adv-x="638" d="M187 713q41 125 65 168q64 12 140 0q11 -24 21 -51.5t21.5 -64.5t16.5 -52q-62 -6 -100 0q-27 108 -29 114q-20 -39 -44 -114q-45 -3 -91 0zM588 0h-198v226q0 20 -10.5 35t-25.5 21t-32.5 4t-30.5 -13v-273h-241v650h241v-184q42 57 127 57q67 0 118.5 -51.5 t51.5 -123.5v-348z" />
<glyph unicode="&#x126;" horiz-adv-x="656" d="M375 650h231v-155h43l10 -96h-53v-399h-228q-2 117 -3 168h-94v-168h-228l-2 404h-51v96h51l-1 150h231q1 -52 1 -152l91 -1q1 80 2 153zM374 321q-1 42 -1 80l-91 1v-81h92z" />
<glyph unicode="&#x127;" horiz-adv-x="638" d="M588 0h-198v226q0 20 -10.5 35t-25.5 21t-32.5 4t-30.5 -13v-273h-241v479l-50 -9v96l50 10v74h241v-29l45 9l10 -96l-55 -10v-58q42 57 127 57q67 0 118.5 -51.5t51.5 -123.5v-348z" />
<glyph unicode="&#x128;" horiz-adv-x="317" d="M22 710v70q7 13 28 21.5t42 8.5q49 0 87 -20t53 -20q25 0 60 10v-70q-23 -30 -60 -30q-31 0 -76 25t-74 25q-28 0 -60 -20zM50 650h217v-650h-217v650z" />
<glyph unicode="&#x129;" horiz-adv-x="324" d="M29 560v70q7 13 28 21.5t42 8.5q49 0 87 -20t53 -20q25 0 60 10v-70q-23 -30 -60 -30q-31 0 -76 25t-74 25q-28 0 -60 -20zM274 491v-491h-224v491h224z" />
<glyph unicode="&#x12a;" horiz-adv-x="317" d="M53 800h206v-96h-206v96zM50 650h217v-650h-217v650z" />
<glyph unicode="&#x12b;" horiz-adv-x="324" d="M60 650h206v-96h-206v96zM274 491v-491h-224v491h224z" />
<glyph unicode="&#x12c;" horiz-adv-x="317" d="M193 824q46 3 91 0q-21 -144 -128 -144q-52 0 -91.5 36.5t-44.5 107.5q62 6 100 0q10 -85 37 -85q29 0 36 85zM50 650h217v-650h-217v650z" />
<glyph unicode="&#x12d;" horiz-adv-x="324" d="M200 674q45 3 91 0q-21 -144 -128 -144q-52 0 -91.5 36.5t-44.5 107.5q62 6 100 0q10 -85 37 -85q29 0 36 85zM274 491v-491h-224v491h224z" />
<glyph unicode="&#x12e;" horiz-adv-x="317" d="M50 650h217v-650h-15q-19 -14 -25.5 -27.5t-6.5 -33.5q0 -36 31 -36q21 0 55 17l1 -47q-9 -13 -32.5 -22t-50.5 -9q-43 0 -73.5 22.5t-30.5 70.5q0 36 21 65h-91v650z" />
<glyph unicode="&#x12f;" horiz-adv-x="324" d="M274 491v-491h-16q-18 -14 -24 -27t-6 -33q0 -36 31 -36q21 0 55 17l1 -47q-6 -9 -18.5 -16t-29.5 -11t-35 -4q-43 0 -73.5 22.5t-30.5 70.5q0 35 21 64h-99v491h224zM50 650h224v-100h-224v100z" />
<glyph unicode="&#x130;" horiz-adv-x="317" d="M50 800h217v-100q-106 -4 -217 0v100zM50 650h217v-650h-217v650z" />
<glyph unicode="&#x131;" horiz-adv-x="324" d="M274 491v-491h-224v491h224z" />
<glyph unicode="&#x132;" horiz-adv-x="624" d="M50 227h93q0 -31 27.5 -53t60.5 -22q50 0 75 28.5t25 78.5v391h243v-417q0 -124 -72.5 -183.5t-198.5 -59.5q-122 0 -187.5 65.5t-65.5 171.5zM50 650h167v-350h-167v350z" />
<glyph unicode="&#x133;" horiz-adv-x="662" d="M50 650h224v-100q-110 -5 -224 0v100zM45 485q97 7 218 0q-6 -173 0 -271q3 -44 32 -56t79 5v328h238v-468q0 -37 -25.5 -71t-65 -57t-88 -39.5t-94.5 -18t-85 6.5v60q38 1 79 32.5t41 66.5v27q-60 -40 -155 -40q-69 0 -120.5 48t-53.5 120q-6 173 0 327zM374 650h238 v-100h-238v100z" />
<glyph unicode="&#x134;" horiz-adv-x="604" d="M297 696q41 125 65 168q64 12 140 0q11 -24 21 -51.5t21.5 -64.5t16.5 -52q-62 -6 -100 0q-27 108 -29 114q-20 -39 -44 -114q-45 -3 -91 0zM30 277h93q0 -47 26 -71t62 -24q50 0 75 28.5t25 78.5v361h243v-417q0 -124 -72.5 -183.5t-198.5 -59.5q-128 0 -190.5 67 t-62.5 220z" />
<glyph unicode="&#x135;" horiz-adv-x="338" d="M50 491h238v-468q0 -60 -63.5 -109t-148 -68t-146.5 -2v60q38 1 79 32.5t41 66.5v488zM35 546q41 125 65 168q64 12 140 0q11 -24 21 -51.5t21.5 -64.5t16.5 -52q-62 -6 -100 0q-27 108 -29 114q-20 -39 -44 -114q-45 -3 -91 0z" />
<glyph unicode="&#x136;" d="M328 -22q30 -31 50 -69q-66 -64 -149 -99q-10 9 -19.5 21.5t-20.5 28t-17 23.5q34 24 156 95zM367 650h223l-184 -324l184 -326h-223l-94 155v-155h-223v650h223v-125z" />
<glyph unicode="&#x137;" horiz-adv-x="592" d="M338 -22q30 -31 50 -69q-66 -64 -149 -99q-10 9 -19.5 21.5t-20.5 28t-17 23.5q34 24 156 95zM400 520h162l-123 -237l143 -283h-209l-92 192v-192h-231v650h231v-348z" />
<glyph unicode="&#x138;" horiz-adv-x="592" d="M400 510h162l-123 -232l143 -278h-209l-92 189v-189h-231v510h231v-214z" />
<glyph unicode="&#x139;" horiz-adv-x="432" d="M132 680q-30 31 -50 69q66 64 149 99q10 -9 19.5 -21.5t20.5 -28t17 -23.5q-34 -24 -156 -95zM50 650h248l8 -411q45 4 106 4v-243h-362v650z" />
<glyph unicode="&#x13a;" horiz-adv-x="336" d="M168 710q-30 31 -50 69q66 64 149 99q10 -9 19.5 -21.5t20.5 -28t17 -23.5q-34 -24 -156 -95zM52 650h233q2 -219 0 -650h-233q-2 525 0 650z" />
<glyph unicode="&#x13b;" horiz-adv-x="432" d="M248 -22q30 -31 50 -69q-66 -64 -149 -99q-10 9 -19.5 21.5t-20.5 28t-17 23.5q34 24 156 95zM50 650h248l8 -411q45 4 106 4v-243h-362v650z" />
<glyph unicode="&#x13c;" horiz-adv-x="336" d="M218 -22q30 -31 50 -69q-66 -64 -149 -99q-10 9 -19.5 21.5t-20.5 28t-17 23.5q34 24 156 95zM52 650h233q2 -219 0 -650h-233q-2 525 0 650z" />
<glyph unicode="&#x13d;" horiz-adv-x="531" d="M370 409q8 160 25 238q58 7 116 0q-18 -150 -47 -240q-9 0 -39.5 1t-54.5 1zM50 650h248l8 -411q45 4 106 4v-243h-362v650z" />
<glyph unicode="&#x13e;" horiz-adv-x="501" d="M340 409q8 160 25 238q58 7 116 0q-18 -150 -47 -240q-9 0 -39.5 1t-54.5 1zM52 650h233q2 -219 0 -650h-233q-2 525 0 650z" />
<glyph unicode="&#x13f;" horiz-adv-x="512" d="M445 458q33 0 50 -17t17 -46q0 -33 -18 -52t-52 -19q-70 0 -70 67q0 32 20.5 49.5t52.5 17.5zM50 650h248l8 -411q45 4 106 4v-243h-362v650z" />
<glyph unicode="&#x140;" horiz-adv-x="490" d="M423 360q33 0 50 -17t17 -46q0 -33 -18 -52t-52 -19q-70 0 -70 67q0 32 20.5 49.5t52.5 17.5zM52 650h233q2 -219 0 -650h-233q-2 525 0 650z" />
<glyph unicode="&#x141;" horiz-adv-x="616" d="M414 573l85 -85l-136 -138v-112q11 1 204 1v-239h-373v197l-59 -60l-85 85l144 145v264l169 2v-112z" />
<glyph unicode="&#x142;" horiz-adv-x="561" d="M427 522l85 -86l-127 -128v-317h-204v154l-46 -47l-85 86l131 132v308h204v-145z" />
<glyph unicode="&#x143;" horiz-adv-x="704" d="M294 680q-30 31 -50 69q66 64 149 99q10 -9 19.5 -21.5t20.5 -28t17 -23.5q-34 -24 -156 -95zM50 0v650h239l133 -228v228h232v-650h-232l-142 197v-197h-230z" />
<glyph unicode="&#x144;" horiz-adv-x="641" d="M244 550q-30 31 -50 69q66 64 149 99q10 -9 19.5 -21.5t20.5 -28t17 -23.5q-34 -24 -156 -95zM591 0h-199v228q0 26 -18 43.5t-40.5 17.5t-41.5 -14v-275h-242v520h242v-102q23 53 51.5 81t76.5 28q68 0 119 -51.5t52 -124.5v-351z" />
<glyph unicode="&#x145;" horiz-adv-x="704" d="M378 -22q30 -31 50 -69q-66 -64 -149 -99q-10 9 -19.5 21.5t-20.5 28t-17 23.5q34 24 156 95zM50 0v650h239l133 -228v228h232v-650h-232l-142 197v-197h-230z" />
<glyph unicode="&#x146;" horiz-adv-x="641" d="M358 -22q30 -31 50 -69q-66 -64 -149 -99q-10 9 -19.5 21.5t-20.5 28t-17 23.5q34 24 156 95zM591 0h-199v228q0 26 -18 43.5t-40.5 17.5t-41.5 -14v-275h-242v520h242v-102q23 53 51.5 81t76.5 28q68 0 119 -51.5t52 -124.5v-351z" />
<glyph unicode="&#x147;" horiz-adv-x="704" d="M469 854q-41 -125 -65 -168q-64 -12 -140 0q-11 24 -21 51.5t-21.5 64.5t-16.5 52q62 6 100 0q27 -108 29 -114q20 39 44 114q46 3 91 0zM50 0v650h239l133 -228v228h232v-650h-232l-142 197v-197h-230z" />
<glyph unicode="&#x148;" horiz-adv-x="641" d="M419 724q-41 -125 -65 -168q-64 -12 -140 0q-11 24 -21 51.5t-21.5 64.5t-16.5 52q62 6 100 0q27 -108 29 -114q20 39 44 114q46 3 91 0zM591 0h-199v228q0 26 -18 43.5t-40.5 17.5t-41.5 -14v-275h-242v520h242v-102q23 53 51.5 81t76.5 28q68 0 119 -51.5t52 -124.5 v-351z" />
<glyph unicode="&#x149;" horiz-adv-x="801" d="M751 0h-199v228q0 26 -18 43.5t-40.5 17.5t-41.5 -14v-275h-242v520h242v-102q23 53 51.5 81t76.5 28q68 0 119 -51.5t52 -124.5v-351zM30 409q8 160 25 238q58 7 116 0q-18 -150 -47 -240q-9 0 -39.5 1t-54.5 1z" />
<glyph unicode="&#x14a;" horiz-adv-x="704" d="M50 0v650h239l133 -228v228h232v-650q0 -65 -46 -107t-116 -55.5t-143.5 -12t-137.5 17.5l-1 89q118 -20 165 -5t47 73l-142 197v-197h-230z" />
<glyph unicode="&#x14b;" horiz-adv-x="641" d="M591 70q0 -64 -31 -111.5t-80 -72t-109 -34.5t-118.5 -5t-107.5 22v62q37 -11 80.5 -8.5t80.5 13.5t61.5 37.5t24.5 61.5v193q0 40 -37 56t-63 -9v-275h-242v508q121 12 242 0v-56q51 75 128 75q68 0 119 -51.5t52 -124.5v-281z" />
<glyph unicode="&#x14c;" horiz-adv-x="607" d="M198 800h206v-96h-206v96zM313 660q120 0 192 -86.5t72 -251.5q0 -173 -72 -253t-192 -80q-283 0 -283 333q0 169 79 253.5t204 84.5zM354 322q-28 0 -51 -21.5t-23 -52.5q0 -36 20.5 -55.5t53.5 -19.5q34 0 54.5 23t20.5 52q0 34 -21 54t-54 20z" />
<glyph unicode="&#x14d;" horiz-adv-x="580" d="M171 670h206v-96h-206v96zM299 525q128 0 189.5 -67t61.5 -186q0 -155 -64 -218.5t-187 -63.5q-146 0 -207.5 67t-61.5 215q0 253 269 253zM333 264q-40 0 -58 -17t-18 -55q0 -72 76 -72q27 0 49.5 20t22.5 52q0 33 -22.5 52.5t-49.5 19.5z" />
<glyph unicode="&#x14e;" horiz-adv-x="607" d="M338 824q46 3 91 0q-21 -144 -128 -144q-52 0 -91.5 36.5t-44.5 107.5q62 6 100 0q10 -85 37 -85q29 0 36 85zM313 660q120 0 192 -86.5t72 -251.5q0 -173 -72 -253t-192 -80q-283 0 -283 333q0 169 79 253.5t204 84.5zM354 322q-28 0 -51 -21.5t-23 -52.5 q0 -36 20.5 -55.5t53.5 -19.5q34 0 54.5 23t20.5 52q0 34 -21 54t-54 20z" />
<glyph unicode="&#x14f;" horiz-adv-x="580" d="M311 694q46 3 91 0q-21 -144 -128 -144q-52 0 -91.5 36.5t-44.5 107.5q62 6 100 0q10 -85 37 -85q29 0 36 85zM299 525q128 0 189.5 -67t61.5 -186q0 -155 -64 -218.5t-187 -63.5q-146 0 -207.5 67t-61.5 215q0 253 269 253zM333 264q-40 0 -58 -17t-18 -55q0 -72 76 -72 q27 0 49.5 20t22.5 52q0 33 -22.5 52.5t-49.5 19.5z" />
<glyph unicode="&#x150;" horiz-adv-x="607" d="M384 670q-57 46 -60 49q65 87 100 119q7 -7 26 -23.5t31 -29.5q-84 -101 -97 -115zM234 680q-57 46 -60 49q65 87 100 119q7 -7 26 -23.5t31 -29.5q-84 -101 -97 -115zM313 660q120 0 192 -86.5t72 -251.5q0 -173 -72 -253t-192 -80q-283 0 -283 333q0 169 79 253.5 t204 84.5zM354 322q-28 0 -51 -21.5t-23 -52.5q0 -36 20.5 -55.5t53.5 -19.5q34 0 54.5 23t20.5 52q0 34 -21 54t-54 20z" />
<glyph unicode="&#x151;" horiz-adv-x="580" d="M357 540q-57 46 -60 49q65 87 100 119q7 -7 26 -23.5t31 -29.5q-84 -101 -97 -115zM207 550q-57 46 -60 49q65 87 100 119q7 -7 26 -23.5t31 -29.5q-84 -101 -97 -115zM299 525q128 0 189.5 -67t61.5 -186q0 -155 -64 -218.5t-187 -63.5q-146 0 -207.5 67t-61.5 215 q0 253 269 253zM333 264q-40 0 -58 -17t-18 -55q0 -72 76 -72q27 0 49.5 20t22.5 52q0 33 -22.5 52.5t-49.5 19.5z" />
<glyph unicode="&#x152;" horiz-adv-x="829" d="M430 650h349v-233h-174v-87h174v-74h-174v-75h174v-180h-349v26q-55 -38 -117 -38q-283 0 -283 333q0 169 79 253.5t204 84.5q62 0 117 -33v23zM354 332q-28 0 -51 -21.5t-23 -52.5q0 -36 20.5 -55.5t53.5 -19.5q34 0 54.5 23t20.5 52q0 34 -21 54t-54 20z" />
<glyph unicode="&#x153;" horiz-adv-x="830" d="M236 520q68 0 106 -30.5t68 -82.5q31 53 78.5 83t129.5 30q93 0 137.5 -73t44.5 -197q0 -8 -7.5 -14t-24.5 -10t-32.5 -6.5t-44.5 -3.5t-47 -1.5t-53 -0.5q4 -61 20.5 -82t49.5 -21q18 0 34 10t19 25h77q3 -39 -9.5 -68t-33 -45.5t-50.5 -26.5t-56 -13t-56 -3 q-50 0 -99.5 33t-73.5 79q-55 -112 -176 -112q-46 0 -81 13t-64.5 43t-45.5 86.5t-16 137.5q0 121 56 185.5t150 64.5zM628 376q-20 -1 -27.5 -15t-9.5 -65q97 0 97 8q0 24 -17 48t-37 24h-6zM255 255q-32 0 -45 -12.5t-13 -41.5q0 -34 16 -54t38 -20q23 0 39.5 15t16.5 44 q0 25 -14.5 47t-37.5 22z" />
<glyph unicode="&#x154;" horiz-adv-x="671" d="M274 680q-30 31 -50 69q66 64 149 99q10 -9 19.5 -21.5t20.5 -28t17 -23.5q-34 -24 -156 -95zM50 0v647q232 13 305 9q175 -10 239 -94q47 -63 47 -175q0 -134 -124 -192l103 -195h-183l-64 160q-38 -3 -79 -1v-159h-244zM294 238q27 -2 52 2t46 14t33 28.5t12 43.5 q0 35 -19.5 58t-61.5 23q-29 0 -62 -9v-160z" />
<glyph unicode="&#x155;" horiz-adv-x="448" d="M224 550q-30 31 -50 69q66 64 149 99q10 -9 19.5 -21.5t20.5 -28t17 -23.5q-34 -24 -156 -95zM288 462q27 34 64.5 47.5t75.5 2.5v-134q-93 -5 -140 -77v-301h-238v520h238v-58z" />
<glyph unicode="&#x156;" horiz-adv-x="671" d="M328 -22q30 -31 50 -69q-66 -64 -149 -99q-10 9 -19.5 21.5t-20.5 28t-17 23.5q34 24 156 95zM50 0v647q232 13 305 9q175 -10 239 -94q47 -63 47 -175q0 -134 -124 -192l103 -195h-183l-64 160q-38 -3 -79 -1v-159h-244zM294 238q27 -2 52 2t46 14t33 28.5t12 43.5 q0 35 -19.5 58t-61.5 23q-29 0 -62 -9v-160z" />
<glyph unicode="&#x157;" horiz-adv-x="448" d="M238 -22q30 -31 50 -69q-66 -64 -149 -99q-10 9 -19.5 21.5t-20.5 28t-17 23.5q34 24 156 95zM288 462q27 34 64.5 47.5t75.5 2.5v-134q-93 -5 -140 -77v-301h-238v520h238v-58z" />
<glyph unicode="&#x158;" horiz-adv-x="671" d="M449 854q-41 -125 -65 -168q-64 -12 -140 0q-11 24 -21 51.5t-21.5 64.5t-16.5 52q62 6 100 0q27 -108 29 -114q20 39 44 114q45 3 91 0zM50 0v647q232 13 305 9q175 -10 239 -94q47 -63 47 -175q0 -134 -124 -192l103 -195h-183l-64 160q-38 -3 -79 -1v-159h-244z M294 238q27 -2 52 2t46 14t33 28.5t12 43.5q0 35 -19.5 58t-61.5 23q-29 0 -62 -9v-160z" />
<glyph unicode="&#x159;" horiz-adv-x="448" d="M399 743q-41 -125 -65 -168q-64 -12 -140 0q-11 24 -21 51.5t-21.5 64.5t-16.5 52q62 6 100 0q27 -108 29 -114q20 39 44 114q45 3 91 0zM288 462q27 34 64.5 47.5t75.5 2.5v-134q-93 -5 -140 -77v-301h-238v520h238v-58z" />
<glyph unicode="&#x15a;" horiz-adv-x="582" d="M294 680q-30 31 -50 69q66 64 149 99q10 -9 19.5 -21.5t20.5 -28t17 -23.5q-34 -24 -156 -95zM532 635v-254q-127 28 -127 -25q0 -29 13 -45.5t31.5 -25t37.5 -20t32 -39.5t13 -73q0 -50 -39.5 -87t-99.5 -54t-126.5 -21.5t-125.5 5.5t-91 30v108q88 -25 158 -21t70 40 q0 25 -12.5 39t-32.5 19t-44.5 9t-49 14.5t-44.5 30.5t-32.5 62.5t-12.5 104.5q0 81 52.5 135.5t128.5 74t157 18t144 -24.5z" />
<glyph unicode="&#x15b;" horiz-adv-x="532" d="M253 550q-30 31 -50 69q66 64 149 99q10 -9 19.5 -21.5t20.5 -28t17 -23.5q-34 -24 -156 -95zM50 0v80q90 -7 155.5 0t65.5 27q0 21 -23 33.5t-55.5 21t-64.5 22t-55 48.5t-23 89q0 251 433 196v-214q-124 12 -124 -36q0 -20 19.5 -32t42.5 -18.5t42.5 -29.5t19.5 -62 q0 -41 -26.5 -69.5t-66.5 -42t-100.5 -18.5t-115.5 -3t-124 8z" />
<glyph unicode="&#x15c;" horiz-adv-x="582" d="M205 696q41 125 65 168q64 12 140 0q11 -24 21 -51.5t21.5 -64.5t16.5 -52q-62 -6 -100 0q-27 108 -29 114q-20 -39 -44 -114q-46 -3 -91 0zM532 635v-254q-127 28 -127 -25q0 -29 13 -45.5t31.5 -25t37.5 -20t32 -39.5t13 -73q0 -50 -39.5 -87t-99.5 -54t-126.5 -21.5 t-125.5 5.5t-91 30v108q88 -25 158 -21t70 40q0 25 -12.5 39t-32.5 19t-44.5 9t-49 14.5t-44.5 30.5t-32.5 62.5t-12.5 104.5q0 81 52.5 135.5t128.5 74t157 18t144 -24.5z" />
<glyph unicode="&#x15d;" horiz-adv-x="532" d="M164 566q41 125 65 168q64 12 140 0q11 -24 21 -51.5t21.5 -64.5t16.5 -52q-62 -6 -100 0q-27 108 -29 114q-20 -39 -44 -114q-45 -3 -91 0zM50 0v80q90 -7 155.5 0t65.5 27q0 21 -23 33.5t-55.5 21t-64.5 22t-55 48.5t-23 89q0 251 433 196v-214q-124 12 -124 -36 q0 -20 19.5 -32t42.5 -18.5t42.5 -29.5t19.5 -62q0 -41 -26.5 -69.5t-66.5 -42t-100.5 -18.5t-115.5 -3t-124 8z" />
<glyph unicode="&#x15e;" horiz-adv-x="582" d="M532 635v-254q-20 5 -39.5 7t-40.5 1.5t-34 -9t-13 -24.5q0 -24 9.5 -40t23.5 -23t30.5 -16.5t30.5 -21t23.5 -38t9.5 -64.5q0 -44 -30.5 -78t-80 -52.5t-105.5 -27t-114 -5.5q-2 -10 -2 -19q14 3 33 1t36.5 -6t29.5 -17t12 -32q0 -26 -14 -44.5t-34.5 -26t-44 -12 t-42.5 -3t-30 0.5v31q12 0 26 4.5t26.5 14.5t13.5 23q0 6 -2 10t-6.5 7t-9 4.5t-12 2t-12.5 1t-13 0.5h-12q1 6 2.5 29.5t3.5 35.5q-66 9 -101 31v108q88 -25 158 -21t70 40q0 25 -12.5 39t-32.5 19t-44.5 9t-49 14.5t-44.5 30.5t-32.5 62.5t-12.5 104.5q0 81 52.5 135.5 t128.5 74t157 18t144 -24.5z" />
<glyph unicode="&#x15f;" horiz-adv-x="532" d="M50 0v80q59 -4 108.5 -3t81 9t31.5 21q0 14 -9.5 24t-25 15.5t-35.5 12t-40.5 12t-40.5 17.5t-35.5 28t-25 43t-9.5 62q0 251 433 196v-214q-124 12 -124 -36q0 -17 13 -27t31 -16.5t36 -15.5t31 -30t13 -53q0 -135 -281 -133q-3 -12 -3 -21q14 3 33.5 1t36.5 -6t29 -17 t12 -32q0 -26 -14 -44.5t-34.5 -26t-44 -12t-42.5 -3t-30 0.5v31q12 0 26 4.5t26.5 14.5t13.5 23q0 6 -2 10t-6.5 7t-9 4.5t-12 2t-12.5 1t-13 0.5h-12q1 6 2.5 29t3.5 34q-45 2 -100 7z" />
<glyph unicode="&#x160;" horiz-adv-x="582" d="M469 854q-41 -125 -65 -168q-64 -12 -140 0q-11 24 -21 51.5t-21.5 64.5t-16.5 52q62 6 100 0q27 -108 29 -114q20 39 44 114q46 3 91 0zM532 635v-254q-127 28 -127 -25q0 -29 13 -45.5t31.5 -25t37.5 -20t32 -39.5t13 -73q0 -50 -39.5 -87t-99.5 -54t-126.5 -21.5 t-125.5 5.5t-91 30v108q88 -25 158 -21t70 40q0 25 -12.5 39t-32.5 19t-44.5 9t-49 14.5t-44.5 30.5t-32.5 62.5t-12.5 104.5q0 81 52.5 135.5t128.5 74t157 18t144 -24.5z" />
<glyph unicode="&#x161;" horiz-adv-x="532" d="M428 724q-41 -125 -65 -168q-64 -12 -140 0q-11 24 -21 51.5t-21.5 64.5t-16.5 52q62 6 100 0q27 -108 29 -114q20 39 44 114q45 3 91 0zM50 0v80q90 -7 155.5 0t65.5 27q0 21 -23 33.5t-55.5 21t-64.5 22t-55 48.5t-23 89q0 251 433 196v-214q-124 12 -124 -36 q0 -20 19.5 -32t42.5 -18.5t42.5 -29.5t19.5 -62q0 -41 -26.5 -69.5t-66.5 -42t-100.5 -18.5t-115.5 -3t-124 8z" />
<glyph unicode="&#x162;" horiz-adv-x="605" d="M20 650h565v-308h-156v-342h-134q-5 -16 -5 -29q14 3 33 1t36.5 -6t29.5 -17t12 -32q0 -32 -21 -52.5t-49 -25.5t-55.5 -7.5t-39.5 0.5v31q20 0 42.5 11.5t23.5 30.5q0 6 -2 10t-6.5 7t-9 4.5t-12 2t-12.5 1t-13 0.5h-12q1 7 1.5 18t1.5 18.5t2 17t2 16.5h-47v342h-175 v308z" />
<glyph unicode="&#x163;" horiz-adv-x="512" d="M94 591h233v-71h155v-259h-155v-22q0 -61 41.5 -96.5t113.5 -37.5v-104q-111 -7 -188 0q-5 -17 -5 -30q14 3 33 1t36.5 -6t29.5 -17t12 -32q0 -26 -14 -44.5t-34.5 -26t-44 -12t-42.5 -3t-30 0.5v31q8 0 19 2.5t21 7.5t17.5 13.5t8.5 18.5q0 5 -1.5 9t-4.5 6.5t-7.5 4.5 t-9 3t-11.5 1.5t-11.5 0.5h-11h-10.5q7 73 8 78q-86 17 -117 56.5t-31 103.5v93h-64v259h64v71z" />
<glyph unicode="&#x164;" horiz-adv-x="605" d="M429 854q-41 -125 -65 -168q-64 -12 -140 0q-11 24 -21 51.5t-21.5 64.5t-16.5 52q62 6 100 0q27 -108 29 -114q20 39 44 114q46 3 91 0zM20 650h565v-308h-156v-342h-234v342h-175v308z" />
<glyph unicode="&#x165;" horiz-adv-x="512" d="M349 600q33 138 46 177q8 -3 20.5 -7.5t22 -7.5t21.5 -8t21 -10q-9 -90 -52 -172q-39 8 -79 28zM94 591h233v-71h155v-259h-155v-22q0 -61 41.5 -96.5t113.5 -37.5v-104q-72 -6 -128 -3t-97 7.5t-70 17.5t-47 26.5t-28 33.5t-14 40t-4 45v93h-64v259h64v71z" />
<glyph unicode="&#x166;" horiz-adv-x="605" d="M20 650h565v-308h-156v-91l55 4l10 -116l-65 -4v-135h-234v120l-77 -5v116l77 5v106h-175v308z" />
<glyph unicode="&#x167;" horiz-adv-x="512" d="M94 591h233v-71h155v-189h-155v-60h155v-90h-143q35 -73 143 -76v-104q-72 -6 -128 -3t-97 7.5t-70 17.5t-47 26.5t-28 33.5t-14 40t-4 45v13h-64v90h64v60h-64v189h64v71z" />
<glyph unicode="&#x168;" horiz-adv-x="654" d="M237 710v70q7 13 28 21.5t42 8.5q49 0 87 -20t53 -20q25 0 60 10v-70q-23 -30 -60 -30q-31 0 -76 25t-74 25q-28 0 -60 -20zM59 650h268v-244q0 -43 13.5 -63.5t33.5 -20.5t36 18.5t16 45.5v264h178q1 -40 3.5 -111t4.5 -135t2 -127q0 -132 -68 -209.5t-199 -77.5 q-162 0 -234.5 62.5t-72.5 165.5q0 223 19 432z" />
<glyph unicode="&#x169;" horiz-adv-x="628" d="M184 590v70q7 13 28 21.5t42 8.5q49 0 87 -20t53 -20q25 0 60 10v-70q-23 -30 -60 -30q-31 0 -76 25t-74 25q-28 0 -60 -20zM368 520h236v-520h-236v79q-15 -39 -58.5 -64t-95.5 -25q-67 0 -112 42.5t-53 115.5q-16 142 -10 372h219q-6 -163 0 -256q2 -30 22 -45.5t46 -9 t42 33.5v277z" />
<glyph unicode="&#x16a;" horiz-adv-x="654" d="M268 800h206v-96h-206v96zM59 650h268v-244q0 -43 13.5 -63.5t33.5 -20.5t36 18.5t16 45.5v264h178q1 -40 3.5 -111t4.5 -135t2 -127q0 -132 -68 -209.5t-199 -77.5q-162 0 -234.5 62.5t-72.5 165.5q0 223 19 432z" />
<glyph unicode="&#x16b;" horiz-adv-x="628" d="M215 680h206v-96h-206v96zM368 520h236v-520h-236v79q-15 -39 -58.5 -64t-95.5 -25q-67 0 -112 42.5t-53 115.5q-16 142 -10 372h219q-6 -163 0 -256q2 -30 22 -45.5t46 -9t42 33.5v277z" />
<glyph unicode="&#x16c;" horiz-adv-x="654" d="M408 824q45 3 91 0q-21 -144 -128 -144q-52 0 -91.5 36.5t-44.5 107.5q62 6 100 0q10 -85 37 -85q29 0 36 85zM59 650h268v-244q0 -43 13.5 -63.5t33.5 -20.5t36 18.5t16 45.5v264h178q1 -40 3.5 -111t4.5 -135t2 -127q0 -132 -68 -209.5t-199 -77.5q-162 0 -234.5 62.5 t-72.5 165.5q0 223 19 432z" />
<glyph unicode="&#x16d;" horiz-adv-x="628" d="M355 704q46 3 91 0q-21 -144 -128 -144q-52 0 -91.5 36.5t-44.5 107.5q62 6 100 0q10 -85 37 -85q29 0 36 85zM368 520h236v-520h-236v79q-15 -39 -58.5 -64t-95.5 -25q-67 0 -112 42.5t-53 115.5q-16 142 -10 372h219q-6 -163 0 -256q2 -30 22 -45.5t46 -9t42 33.5v277z " />
<glyph unicode="&#x16e;" horiz-adv-x="654" d="M333 788q-26 0 -44 -17t-18 -40q0 -27 18 -44.5t44 -17.5q25 0 40.5 15t15.5 41q0 29 -14.5 46t-41.5 17zM320 851q51 0 79.5 -33t28.5 -88q0 -48 -28.5 -77t-72.5 -31v-216q0 -43 13.5 -63.5t33.5 -20.5t36 18.5t16 45.5v264h178q1 -40 3.5 -111t4.5 -135t2 -127 q0 -132 -68 -209.5t-199 -77.5q-162 0 -234.5 62.5t-72.5 165.5q0 223 19 432h185q-40 35 -40 92q0 44 33.5 76.5t82.5 32.5z" />
<glyph unicode="&#x16f;" horiz-adv-x="628" d="M323 723q-26 0 -44 -17t-18 -40q0 -27 18 -44.5t44 -17.5q25 0 40.5 15t15.5 41q0 29 -14.5 46t-41.5 17zM310 786q51 0 79.5 -33t28.5 -88q0 -50 -30.5 -79t-77.5 -29q-49 0 -82.5 34.5t-33.5 85.5q0 44 33.5 76.5t82.5 32.5zM368 520h236v-520h-236v79 q-15 -39 -58.5 -64t-95.5 -25q-67 0 -112 42.5t-53 115.5q-16 142 -10 372h219q-6 -163 0 -256q2 -30 22 -45.5t46 -9t42 33.5v277z" />
<glyph unicode="&#x170;" horiz-adv-x="654" d="M454 670q-57 46 -60 49q65 87 100 119q7 -7 26 -23.5t31 -29.5q-84 -101 -97 -115zM304 680q-57 46 -60 49q65 87 100 119q7 -7 26 -23.5t31 -29.5q-84 -101 -97 -115zM59 650h268v-244q0 -43 13.5 -63.5t33.5 -20.5t36 18.5t16 45.5v264h178q1 -40 3.5 -111t4.5 -135 t2 -127q0 -132 -68 -209.5t-199 -77.5q-162 0 -234.5 62.5t-72.5 165.5q0 223 19 432z" />
<glyph unicode="&#x171;" horiz-adv-x="628" d="M256 561q-57 46 -60 49q65 87 100 119q7 -7 26 -23.5t31 -29.5q-84 -101 -97 -115zM406 551q-57 46 -60 49q65 87 100 119q7 -7 26 -23.5t31 -29.5q-84 -101 -97 -115zM368 520h236v-520h-236v79q-15 -39 -58.5 -64t-95.5 -25q-67 0 -112 42.5t-53 115.5q-16 142 -10 372 h219q-6 -163 0 -256q2 -30 22 -45.5t46 -9t42 33.5v277z" />
<glyph unicode="&#x172;" horiz-adv-x="654" d="M59 650h268v-244q0 -29 7 -48.5t17 -27.5t23 -8q20 0 36 18.5t16 45.5v264h178q1 -40 3.5 -111t4.5 -135t2 -127q0 -123 -59.5 -199t-173.5 -87q-21 -19 -21 -52q0 -36 31 -36q21 0 55 17l1 -47q-9 -13 -32.5 -22t-50.5 -9t-49.5 8.5t-38.5 30t-16 54.5q0 32 17 59 q-64 7 -111 27t-74 50.5t-39.5 67t-12.5 79.5q0 223 19 432z" />
<glyph unicode="&#x173;" horiz-adv-x="628" d="M368 520h236v-520h-45q-20 -15 -26.5 -28t-6.5 -34q0 -36 31 -36q21 0 55 17l1 -47q-9 -13 -32.5 -22t-50.5 -9q-43 0 -73.5 22.5t-30.5 70.5q0 37 22 66h-80v79q-15 -39 -58.5 -64t-95.5 -25q-67 0 -112 42.5t-53 115.5q-16 142 -10 372h219q-6 -163 0 -256 q2 -30 22 -45.5t46 -9t42 33.5v277z" />
<glyph unicode="&#x174;" horiz-adv-x="856" d="M265 696q41 125 65 168q64 12 140 0q11 -24 21 -51.5t21.5 -64.5t16.5 -52q-62 -6 -100 0q-27 108 -29 114q-20 -39 -44 -114q-46 -3 -91 0zM0 650h139l73 -290l97 290h194l126 -310l86 310h141l-123 -650h-215l-96 250l-73 -250h-235z" />
<glyph unicode="&#x175;" horiz-adv-x="740" d="M215 566q41 125 65 168q64 12 140 0q11 -24 21 -51.5t21.5 -64.5t16.5 -52q-62 -6 -100 0q-27 108 -29 114q-20 -39 -44 -114q-46 -3 -91 0zM20 520h114l64 -207l63 207h166l102 -232l64 232h127l-115 -520h-178l-64 199l-63 -199h-191q-37 174 -89 520z" />
<glyph unicode="&#x176;" horiz-adv-x="582" d="M205 696q41 125 65 168q64 12 140 0q11 -24 21 -51.5t21.5 -64.5t16.5 -52q-62 -6 -100 0q-27 108 -29 114q-20 -39 -44 -114q-46 -3 -91 0zM433 650h149l-149 -339v-311h-254v312l-179 338h240l105 -183z" />
<glyph unicode="&#x177;" horiz-adv-x="592" d="M195 566q41 125 65 168q64 12 140 0q11 -24 21 -51.5t21.5 -64.5t16.5 -52q-62 -6 -100 0q-27 108 -29 114q-20 -39 -44 -114q-45 -3 -91 0zM10 520h246l91 -221q44 118 77 221h158q-83 -275 -238 -645h-167q35 86 54 132z" />
<glyph unicode="&#x178;" horiz-adv-x="582" d="M247 822q33 0 50 -17t17 -46q0 -33 -18 -52t-52 -19q-70 0 -70 67q0 32 20.5 49.5t52.5 17.5zM446 825q33 0 50 -17t17 -46q0 -70 -70 -70q-71 0 -71 66q0 32 21 49.5t53 17.5zM433 650h149l-149 -339v-311h-254v312l-179 338h240l105 -183z" />
<glyph unicode="&#x179;" horiz-adv-x="616" d="M292 680q-30 31 -50 69q66 64 149 99q10 -9 19.5 -21.5t20.5 -28t17 -23.5q-34 -24 -156 -95zM50 650h517v-299l-254 -197h254v-151h-517v148l288 208q-144 -13 -288 0v291z" />
<glyph unicode="&#x17a;" horiz-adv-x="514" d="M224 550q-30 31 -50 69q66 64 149 99q10 -9 19.5 -21.5t20.5 -28t17 -23.5q-34 -24 -156 -95zM50 520h414q0 -181 -2 -257q-10 -18 -46.5 -46t-68 -49.5t-31.5 -27.5q0 -10 24.5 -12t90.5 -2h27l-2 -126h-406v142q22 20 63.5 49.5t66 50.5t28.5 37h-158v241z" />
<glyph unicode="&#x17b;" horiz-adv-x="616" d="M315 822q33 0 50 -17t17 -46q0 -33 -18 -52t-52 -19q-70 0 -70 67q0 32 20.5 49.5t52.5 17.5zM50 650h517v-299l-254 -197h254v-151h-517v148l288 208q-144 -13 -288 0v291z" />
<glyph unicode="&#x17c;" horiz-adv-x="514" d="M277 692q33 0 50 -17t17 -46q0 -33 -18 -52t-52 -19q-70 0 -70 67q0 32 20.5 49.5t52.5 17.5zM50 520h414q0 -181 -2 -257q-10 -18 -46.5 -46t-68 -49.5t-31.5 -27.5q0 -10 24.5 -12t90.5 -2h27l-2 -126h-406v142q22 20 63.5 49.5t66 50.5t28.5 37h-158v241z" />
<glyph unicode="&#x17d;" horiz-adv-x="616" d="M447 854q-41 -125 -65 -168q-64 -12 -140 0q-11 24 -21 51.5t-21.5 64.5t-16.5 52q62 6 100 0q27 -108 29 -114q20 39 44 114q45 3 91 0zM50 650h517v-299l-254 -197h254v-151h-517v148l288 208q-144 -13 -288 0v291z" />
<glyph unicode="&#x17e;" horiz-adv-x="514" d="M399 724q-41 -125 -65 -168q-64 -12 -140 0q-11 24 -21 51.5t-21.5 64.5t-16.5 52q62 6 100 0q27 -108 29 -114q20 39 44 114q45 3 91 0zM50 520h414q0 -181 -2 -257q-10 -18 -46.5 -46t-68 -49.5t-31.5 -27.5q0 -10 24.5 -12t90.5 -2h27l-2 -126h-406v142 q22 20 63.5 49.5t66 50.5t28.5 37h-158v241z" />
<glyph unicode="&#x17f;" horiz-adv-x="334" d="M50 0v479q0 53 18 91t46.5 56.5t64.5 26.5t69.5 6t65.5 -10v-141q-17 7 -38 -6t-21 -37v-465h-205z" />
<glyph unicode="&#x18f;" horiz-adv-x="657" d="M50 324v307q74 16 136.5 23t122.5 5.5t107.5 -14t87.5 -38.5t66.5 -66t41.5 -98t15 -133q0 -172 -77 -244.5t-243 -74.5q-153 -2 -210.5 51.5t-46.5 200.5q71 4 230 1q-8 31 -31.5 50t-55 25.5t-69.5 8t-74 -3.5zM282 184q-147 -2 -162 -5q7 -66 61 -66q48 0 72 17t29 54 z" />
<glyph unicode="&#x192;" horiz-adv-x="452" d="M282 0q-10 -79 -84.5 -125.5t-177.5 -24.5v123q16 -7 36.5 5.5t24.5 37.5l28 210h-61v155h81l11 83q17 129 96 170t196 17v-141q-35 7 -60.5 -12t-29.5 -48l-9 -69h83v-155h-104z" />
<glyph unicode="&#x218;" horiz-adv-x="582" d="M278 -22q30 -31 50 -69q-66 -64 -149 -99q-10 9 -19.5 21.5t-20.5 28t-17 23.5q34 24 156 95zM532 635v-254q-127 28 -127 -25q0 -29 13 -45.5t31.5 -25t37.5 -20t32 -39.5t13 -73q0 -50 -39.5 -87t-99.5 -54t-126.5 -21.5t-125.5 5.5t-91 30v108q88 -25 158 -21t70 40 q0 25 -12.5 39t-32.5 19t-44.5 9t-49 14.5t-44.5 30.5t-32.5 62.5t-12.5 104.5q0 81 52.5 135.5t128.5 74t157 18t144 -24.5z" />
<glyph unicode="&#x219;" horiz-adv-x="532" d="M267 -22q30 -31 50 -69q-66 -64 -149 -99q-10 9 -19.5 21.5t-20.5 28t-17 23.5q34 24 156 95zM50 0v80q90 -7 155.5 0t65.5 27q0 21 -23 33.5t-55.5 21t-64.5 22t-55 48.5t-23 89q0 251 433 196v-214q-124 12 -124 -36q0 -20 19.5 -32t42.5 -18.5t42.5 -29.5t19.5 -62 q0 -41 -26.5 -69.5t-66.5 -42t-100.5 -18.5t-115.5 -3t-124 8z" />
<glyph unicode="&#x21a;" horiz-adv-x="605" d="M328 -22q30 -31 50 -69q-66 -64 -149 -99q-10 9 -19.5 21.5t-20.5 28t-17 23.5q34 24 156 95zM20 650h565v-308h-156v-342h-234v342h-175v308z" />
<glyph unicode="&#x21b;" horiz-adv-x="512" d="M328 -22q30 -31 50 -69q-66 -64 -149 -99q-10 9 -19.5 21.5t-20.5 28t-17 23.5q34 24 156 95zM94 591h233v-71h155v-259h-155v-22q0 -61 41.5 -96.5t113.5 -37.5v-104q-72 -6 -128 -3t-97 7.5t-70 17.5t-47 26.5t-28 33.5t-14 40t-4 45v93h-64v259h64v71z" />
<glyph unicode="&#x259;" horiz-adv-x="608" d="M300 -6q-141 0 -212 76.5t-54 215.5h309q0 56 -30.5 84.5t-71.5 28.5t-75.5 -14t-47.5 -42h-76q11 77 82.5 129t175.5 52q113 0 195.5 -72.5t82.5 -194.5q0 -124 -78 -193.5t-200 -69.5zM262 115q26 0 53.5 23t27.5 62h-152q-11 -38 16 -61.5t55 -23.5z" />
<glyph unicode="&#x400;" horiz-adv-x="509" d="M314 685q-122 71 -156 95q6 7 17 22.5t20.5 28t19.5 21.5q83 -35 149 -99q-19 -35 -50 -68zM50 650h409v-203h-174v-87h174v-74h-174v-75h174v-210h-409v649z" />
<glyph unicode="&#x401;" horiz-adv-x="509" d="M356 825q33 0 50 -17t17 -46q0 -70 -70 -70q-71 0 -71 66q0 32 21 49.5t53 17.5zM157 822q33 0 50 -17t17 -46q0 -33 -18 -52t-52 -19q-70 0 -70 67q0 32 20.5 49.5t52.5 17.5zM50 650h409v-203h-174v-87h174v-74h-174v-75h174v-210h-409v649z" />
<glyph unicode="&#x402;" horiz-adv-x="688" d="M418 3v137q0 37 -16 52t-52 11v-203h-250v492h-100v158h515v-158h-165v-80q96 13 164.5 7t106 -51.5t37.5 -135.5v-209q0 -60 -64 -109t-149 -68t-147 -2v60q38 1 79 32.5t41 66.5z" />
<glyph unicode="&#x403;" horiz-adv-x="440" d="M225 680q-30 31 -50 69q66 64 149 99q10 -9 19.5 -21.5t20.5 -28t17 -23.5q-34 -24 -156 -95zM50 0v650h370v-260q-22 0 -44.5 1t-49 2.5t-42.5 2.5q6 -266 6 -396h-240z" />
<glyph unicode="&#x404;" horiz-adv-x="600" d="M550 170h-145q7 -28 21.5 -45t36 -23t41.5 -6t46 4v-90q-68 -13 -129.5 -15.5t-121 5t-107.5 31.5t-85 62.5t-57 98.5t-20 138q0 67 17.5 120.5t47.5 89.5t72.5 60.5t91 35.5t104.5 11q94 0 187 -27v-280q-125 16 -145 -80h145v-90z" />
<glyph unicode="&#x405;" horiz-adv-x="582" d="M532 635v-254q-127 28 -127 -25q0 -29 13 -45.5t31.5 -25t37.5 -20t32 -39.5t13 -73q0 -50 -39.5 -87t-99.5 -54t-126.5 -21.5t-125.5 5.5t-91 30v108q88 -25 158 -21t70 40q0 25 -12.5 39t-32.5 19t-44.5 9t-49 14.5t-44.5 30.5t-32.5 62.5t-12.5 104.5q0 81 52.5 135.5 t128.5 74t157 18t144 -24.5z" />
<glyph unicode="&#x406;" horiz-adv-x="317" d="M50 650h217v-650h-217v650z" />
<glyph unicode="&#x407;" horiz-adv-x="317" d="M261 825q33 0 50 -17t17 -46q0 -70 -70 -70q-71 0 -71 66q0 32 21 49.5t53 17.5zM62 822q33 0 50 -17t17 -46q0 -33 -18 -52t-52 -19q-70 0 -70 67q0 32 20.5 49.5t52.5 17.5zM50 650h217v-650h-217v650z" />
<glyph unicode="&#x408;" horiz-adv-x="604" d="M30 277h93q0 -47 26 -71t62 -24q50 0 75 28.5t25 78.5v361h243v-417q0 -124 -72.5 -183.5t-198.5 -59.5q-128 0 -190.5 67t-62.5 220z" />
<glyph unicode="&#x409;" horiz-adv-x="916" d="M585 190v-71q60 -3 60 31q0 20 -16 33.5t-44 6.5zM85 650h500v-220q164 30 232.5 -17.5t68.5 -185.5q0 -120 -69 -173.5t-232 -53.5h-240v390h-60v-137q0 -143 -47.5 -202t-134.5 -59q-44 0 -83 10l1 99q64 11 64 160v389z" />
<glyph unicode="&#x40a;" horiz-adv-x="937" d="M606 190v-71q60 -3 60 31q0 20 -16 33.5t-44 6.5zM375 650h231v-220q164 30 232.5 -17.5t68.5 -185.5q0 -120 -69 -173.5t-232 -53.5h-228q-2 80 -3 168h-94v-168h-228l-3 650h231q1 -36 1 -329h92q-2 181 1 329z" />
<glyph unicode="&#x40b;" horiz-adv-x="688" d="M0 492v158h515v-158h-165v-80q96 13 164.5 7t106 -51.5t37.5 -135.5v-232h-240v160q0 37 -16 52t-52 11v-223h-250v492h-100z" />
<glyph unicode="&#x40c;" d="M306 652q-30 31 -50 69q66 64 149 99q10 -9 19.5 -21.5t20.5 -28t17 -23.5q-34 -24 -156 -95zM367 650h223l-184 -324l184 -326h-223l-94 155v-155h-223v650h223v-125z" />
<glyph unicode="&#x40d;" horiz-adv-x="704" d="M352 660q-122 71 -156 95q6 7 17 22.5t20.5 28t19.5 21.5q83 -35 149 -99q-19 -35 -50 -68zM654 0h-230v197l-142 -197h-232v650h232v-228l133 228h239v-650z" />
<glyph unicode="&#x40e;" horiz-adv-x="581" d="M361 799q46 3 91 0q-19 -134 -128 -134q-52 0 -91 34.5t-45 99.5q62 6 100 0q8 -75 38 -75q28 0 35 75zM413 650h168l-172 -477q-46 -126 -132.5 -162t-223.5 -12l-3 160q151 -15 164 18l7 16l-221 457h240l86 -207z" />
<glyph unicode="&#x40f;" horiz-adv-x="612" d="M50 0v650h200v-490h60v490h240v-650h-7h-150v-105h-180v105h-163z" />
<glyph unicode="&#x410;" d="M0 0l186 650h218l206 -650h-158l-19 68h-164l-18 -68h-251zM300 181h101l-52 183z" />
<glyph unicode="&#x411;" horiz-adv-x="583" d="M50 0v650h470v-260q-116 0 -236 6q1 -48 1 -66h105q144 0 144 -148q0 -83 -37 -132.5t-97 -49.5h-110h-240zM289 159h69q19 0 29.5 17t10.5 36q0 15 -10 26.5t-28 11.5h-73q1 -49 2 -91z" />
<glyph unicode="&#x412;" horiz-adv-x="593" d="M292 228v-86h71q12 0 20.5 14.5t8.5 28.5t-8.5 28.5t-20.5 14.5h-71zM292 399v-114h71q16 0 29.5 18t13.5 39q0 23 -11.5 40t-31.5 17h-71zM392 660q54 0 94.5 -34.5t58.5 -83t18 -101.5q0 -57 -22.5 -112.5t-63.5 -86.5q29 -10 43 -43t14 -71q0 -44 -36 -86t-78 -42 h-370v646q159 14 342 14z" />
<glyph unicode="&#x413;" horiz-adv-x="440" d="M50 0v650h370v-260q-22 0 -44.5 1t-49 2.5t-42.5 2.5q6 -266 6 -396h-240z" />
<glyph unicode="&#x414;" horiz-adv-x="640" d="M200 0v-105h-180v255h42q18 82 18 151v349h500v-500h40v-255h-180v105h-240zM265 150h75v240h-60v-97q0 -79 -15 -143z" />
<glyph unicode="&#x415;" horiz-adv-x="509" d="M50 650h409v-203h-174v-87h174v-74h-174v-75h174v-210h-409v649z" />
<glyph unicode="&#x416;" horiz-adv-x="818" d="M595 650h223l-183 -324l183 -326h-223l-74 170v-170h-223v173l-75 -173h-223l184 326l-184 324h223l75 -142v142h223v-140z" />
<glyph unicode="&#x417;" horiz-adv-x="590" d="M50 640q110 15 194 17t138.5 -9t91 -29t54.5 -47.5t25 -60t7 -71.5q0 -122 -77 -161q61 -27 61 -119q0 -132 -134.5 -167.5t-359.5 27.5v100q26 -3 41 -4.5t37.5 -3t36 1t27.5 7t21 14.5t7 25q0 23 -28.5 36.5t-66.5 14.5t-75 -1v90q170 -21 170 30q0 50 -37.5 63.5 t-132.5 6.5v240z" />
<glyph unicode="&#x418;" horiz-adv-x="704" d="M654 0h-230v197l-142 -197h-232v650h232v-228l133 228h239v-650z" />
<glyph unicode="&#x419;" horiz-adv-x="704" d="M654 0h-230v197l-142 -197h-232v650h232v-228l133 228h239v-650zM387 799q45 3 91 0q-19 -134 -128 -134q-52 0 -91 34.5t-45 99.5q62 6 100 0q8 -75 38 -75q28 0 35 75z" />
<glyph unicode="&#x41a;" d="M367 650h223l-184 -324l184 -326h-223l-94 155v-155h-223v650h223v-125z" />
<glyph unicode="&#x41b;" horiz-adv-x="634" d="M85 650h500v-650h-240v390h-60v-137q0 -143 -47.5 -202t-134.5 -59q-44 0 -83 10l1 99q64 11 64 160v389z" />
<glyph unicode="&#x41c;" horiz-adv-x="853" d="M40 0l14 650h228q42 -106 143 -415q109 324 143 415h235v-650h-221v150l-57 -150h-186l-71 164v-164h-228z" />
<glyph unicode="&#x41d;" horiz-adv-x="656" d="M375 650h231v-650h-228q-2 117 -3 168h-94v-168h-228l-3 650h231q2 -85 1 -329h92q-2 183 1 329z" />
<glyph unicode="&#x41e;" horiz-adv-x="607" d="M313 660q120 0 192 -86.5t72 -251.5q0 -173 -72 -253t-192 -80q-283 0 -283 333q0 169 79 253.5t204 84.5zM354 322q-28 0 -51 -21.5t-23 -52.5q0 -36 20.5 -55.5t53.5 -19.5q34 0 54.5 23t20.5 52q0 34 -21 54t-54 20z" />
<glyph unicode="&#x41f;" horiz-adv-x="600" d="M50 650h500v-650h-240v390h-60v-390h-200v650z" />
<glyph unicode="&#x420;" horiz-adv-x="617" d="M50 2v642q203 20 262 19q156 -1 218 -79q57 -71 57 -220q0 -59 -16 -102.5t-43.5 -67t-63.5 -37.5t-76 -14.5t-82 1.5v-144zM306 260q36 -2 62 10t26 43q0 74 -88 49v-102z" />
<glyph unicode="&#x421;" horiz-adv-x="635" d="M585 285q-37 3 -70.5 0.5t-59 -10t-40.5 -26.5t-15 -50q0 -43 61 -67.5t124 -3.5v-114q-67 -24 -199 -24q-180 0 -268 73.5t-88 249.5q0 185 85.5 266t298.5 81q113 0 171 -34v-341z" />
<glyph unicode="&#x422;" horiz-adv-x="605" d="M20 650h565v-308h-156v-342h-234v342h-175v308z" />
<glyph unicode="&#x423;" horiz-adv-x="581" d="M413 650h168l-172 -477q-46 -126 -132.5 -162t-223.5 -12l-3 160q151 -15 164 18l7 16l-221 457h240l86 -207z" />
<glyph unicode="&#x424;" horiz-adv-x="685" d="M473 383v-190q47 31 47 97q0 61 -47 93zM265 193v191q-51 -33 -51 -96t51 -95zM265 557v93h208v-104q96 -24 144.5 -84t48.5 -150q0 -89 -48.5 -149.5t-144.5 -84.5v-78h-208v65q-245 26 -245 247q0 87 65.5 157t179.5 88z" />
<glyph unicode="&#x425;" horiz-adv-x="635" d="M402 650h233q-36 -61 -103.5 -174.5t-83.5 -140.5q127 -227 187 -335h-246q-33 59 -68 122q-39 -65 -75 -122h-246q97 166 204 338q-75 140 -165 312h233q28 -50 60 -108z" />
<glyph unicode="&#x426;" horiz-adv-x="612" d="M413 0h-363v650h200v-490h60v490h240v-490h43v-265h-180v105z" />
<glyph unicode="&#x427;" horiz-adv-x="638" d="M270 650v-250q0 -37 15.5 -52t52.5 -11v313h250v-650h-250v148q-71 -12 -128.5 -9.5t-97 19.5t-61 59.5t-21.5 110.5v322h240z" />
<glyph unicode="&#x428;" horiz-adv-x="879" d="M830 0h-780v650h220v-490h60v490h200v-490h60v490h240v-650z" />
<glyph unicode="&#x429;" horiz-adv-x="892" d="M830 160h43v-265h-180v105h-643v650h220v-490h60v490h200v-490h60v490h240v-490z" />
<glyph unicode="&#x42a;" horiz-adv-x="650" d="M320 190v-71q60 -3 60 31q0 20 -16 33.5t-44 6.5zM20 410v240h300v-220q164 30 232.5 -17.5t68.5 -185.5q0 -120 -69 -173.5t-232 -53.5h-220v410h-80z" />
<glyph unicode="&#x42b;" horiz-adv-x="880" d="M270 190v-71q60 -3 60 31q0 20 -16 33.5t-44 6.5zM50 0v650h220v-220q164 30 232.5 -17.5t68.5 -185.5q0 -120 -69 -173.5t-232 -53.5h-220zM610 0v650h220v-650h-220z" />
<glyph unicode="&#x42c;" horiz-adv-x="600" d="M270 190v-71q60 -3 60 31q0 20 -16 33.5t-44 6.5zM50 0v650h220v-220q164 30 232.5 -17.5t68.5 -185.5q0 -120 -69 -173.5t-232 -53.5h-220z" />
<glyph unicode="&#x42d;" horiz-adv-x="600" d="M50 170v90h145q-20 96 -145 80v280q93 27 187 27q70 0 128.5 -18t105.5 -55t73 -99t26 -145q0 -93 -29.5 -160.5t-78.5 -105t-117 -55t-140.5 -16.5t-154.5 17v90q14 -2 26 -3t25.5 -0.5t25 2.5t22.5 7.5t19.5 13.5t15.5 21t11 29h-145z" />
<glyph unicode="&#x42e;" horiz-adv-x="857" d="M50 650h217v-300h14q3 79 26.5 139.5t62.5 97t87.5 55t105.5 18.5q120 0 192 -86.5t72 -251.5q0 -173 -72 -253t-192 -80q-223 0 -270 205h-26v-194h-217v650zM604 322q-28 0 -51 -21.5t-23 -52.5q0 -36 20.5 -55.5t53.5 -19.5q34 0 54.5 23t20.5 52q0 34 -21 54t-54 20z " />
<glyph unicode="&#x42f;" horiz-adv-x="671" d="M621 0h-244v159q-41 -2 -79 1l-64 -160h-183l103 195q-124 58 -124 192q0 72 24.5 124.5t62 81.5t91.5 45.5t104 20t110 -0.5t98 -9.5t79 -12.5q5 -1 8 -1.5t7 -1.5t7 -1v-632zM377 238v160q-33 9 -62 9q-42 0 -61.5 -23t-19.5 -58q0 -48 42.5 -70.5t100.5 -17.5z" />
<glyph unicode="&#x430;" horiz-adv-x="578" d="M315 95v76q0 10 -15 20t-28 8q-10 -1 -20.5 -6.5t-18.5 -13t-13 -17.5t-5 -20t5 -19.5t13 -16.5t18.5 -11t20.5 -4q29 0 43 4zM315 6q-36 -10 -80 -10q-101 0 -153 41t-52 134q0 66 53.5 111t145.5 45q11 0 41.5 -4t44.5 -4v28q0 26 -32 38t-68 12q-62 0 -94.5 -4 t-65.5 -18v70q80 80 260 80q91 0 152 -60t61 -133v-332q-106 -7 -213 0v6z" />
<glyph unicode="&#x431;" horiz-adv-x="568" d="M489 648v-130q-45 0 -72.5 -1.5t-54 -7t-43 -18t-28.5 -31.5q111 4 179.5 -57t68.5 -173q0 -129 -59.5 -184.5t-170.5 -55.5q-140 0 -209.5 79t-69.5 262q0 170 108.5 250.5t350.5 66.5zM260 229q0 -53 14.5 -91.5t46.5 -38.5q31 0 47 22t16 50q0 27 -13.5 48t-41 28 t-69.5 -18z" />
<glyph unicode="&#x432;" horiz-adv-x="602" d="M292 188v-69h71q12 0 20.5 11.5t8.5 23.5t-8.5 23t-20.5 11h-71zM292 362v-91h71q16 1 29.5 15.5t13.5 30.5q0 18 -11.5 31.5t-31.5 13.5h-71zM392 527q80 0 125.5 -53t45.5 -120q0 -49 -21 -90t-65 -55q28 -9 42.5 -41t14.5 -64q0 -35 -36 -69.5t-78 -34.5h-370v515 q163 12 342 12z" />
<glyph unicode="&#x433;" horiz-adv-x="430" d="M50 520h350v-220l-136 4l6 -304h-220v520z" />
<glyph unicode="&#x434;" horiz-adv-x="670" d="M200 0v-100h-180v260h52q18 75 18 178v182h520v-360h40v-260h-180v100h-270zM259 160h111v140h-90q-2 -11 -8 -66t-13 -74z" />
<glyph unicode="&#x435;" horiz-adv-x="608" d="M308 524q141 0 212 -76.5t54 -215.5h-309q0 -56 30.5 -84.5t71.5 -28.5t75.5 14t47.5 42h76q-11 -77 -82.5 -129t-175.5 -52q-113 0 -195.5 72.5t-82.5 194.5q0 124 78 193.5t200 69.5zM346 403q-26 0 -53.5 -23t-27.5 -62h152q11 38 -16 61.5t-55 23.5z" />
<glyph unicode="&#x436;" horiz-adv-x="772" d="M580 520h170l-130 -244l142 -276h-206l-55 108v-108h-230v108l-55 -108h-206l142 276l-130 244h170l79 -149v149h230v-149z" />
<glyph unicode="&#x437;" horiz-adv-x="532" d="M485 129q0 -69 -43.5 -101.5t-140 -35.5t-250.5 18v100q43 -6 90.5 3.5t47.5 36.5q0 38 -46.5 48t-92.5 2l2 69q51 -5 95 4.5t44 29.5t-4.5 34t-16 21t-21 10.5t-29.5 1.5t-31.5 -3.5t-37.5 -6.5v147q116 21 200 23.5t132 -8.5t75.5 -38t35.5 -55.5t8 -69.5 q0 -48 -17 -79t-38 -39q17 -11 27.5 -42.5t10.5 -69.5z" />
<glyph unicode="&#x438;" horiz-adv-x="630" d="M50 520h210v-186l110 186h210v-520h-210v176l-110 -176h-210v520z" />
<glyph unicode="&#x439;" horiz-adv-x="630" d="M50 520h210v-186l110 186h210v-520h-210v176l-110 -176h-210v520zM350 694q45 3 91 0q-21 -144 -128 -144q-52 0 -91.5 36.5t-44.5 107.5q62 6 100 0q10 -85 37 -85q29 0 36 85z" />
<glyph unicode="&#x43a;" horiz-adv-x="581" d="M379 520h170l-130 -244l142 -276h-206l-75 148v-148h-230v520h230v-187z" />
<glyph unicode="&#x43b;" horiz-adv-x="650" d="M80 520h520v-520h-240v300h-90v-80q0 -142 -63.5 -197.5t-186.5 -22.5v160q11 -2 20.5 1t15.5 10t10.5 15.5t7 22t4.5 24.5t2 27.5t0.5 27t0 27t-0.5 23.5v182z" />
<glyph unicode="&#x43c;" horiz-adv-x="787" d="M53 520h230l112 -270l110 270h230l8 -520h-230l-4 180l-54 -180h-120l-56 170l-4 -170h-230z" />
<glyph unicode="&#x43d;" horiz-adv-x="650" d="M50 0v520h230v-220h90v220h230v-520h-230v150h-90v-150h-230z" />
<glyph unicode="&#x43e;" horiz-adv-x="580" d="M299 525q128 0 189.5 -67t61.5 -186q0 -155 -64 -218.5t-187 -63.5q-146 0 -207.5 67t-61.5 215q0 253 269 253zM333 264q-40 0 -58 -17t-18 -55q0 -72 76 -72q27 0 49.5 20t22.5 52q0 33 -22.5 52.5t-49.5 19.5z" />
<glyph unicode="&#x43f;" horiz-adv-x="650" d="M50 0v520h550v-520h-230v300h-90v-300h-230z" />
<glyph unicode="&#x440;" horiz-adv-x="593" d="M264 -1v-127h-214v646h204q143 5 226 -56t83 -200q0 -50 -12.5 -90.5t-32 -68t-46.5 -47.5t-54.5 -31.5t-57.5 -17.5t-52.5 -7.5t-43.5 -0.5zM264 114q37 -3 68.5 17t31.5 60q0 18 -9.5 30t-24.5 15t-32.5 1t-33.5 -9v-114z" />
<glyph unicode="&#x441;" horiz-adv-x="544" d="M341 -9q-155 0 -233 68t-78 218q0 134 91 191.5t263 57.5q74 0 110 -25v-268q-55 27 -107 2t-52 -73q0 -30 28.5 -50t63.5 -26t67 -3v-80q-83 -12 -153 -12z" />
<glyph unicode="&#x442;" horiz-adv-x="490" d="M20 520h450v-240h-110v-280h-230v280h-110v240z" />
<glyph unicode="&#x443;" horiz-adv-x="592" d="M10 520h246l91 -221q44 118 77 221h158q-83 -275 -238 -645h-167q35 86 54 132z" />
<glyph unicode="&#x444;" horiz-adv-x="700" d="M468 352v-244q72 34 72 122q0 90 -72 122zM268 108v242q-68 -35 -68 -120q0 -92 68 -122zM268 525v125h200v-132q202 -46 202 -258q0 -101 -51.5 -169t-150.5 -91v-130h-200v126q-127 17 -182.5 81.5t-55.5 182.5q0 114 62 181.5t176 83.5z" />
<glyph unicode="&#x445;" horiz-adv-x="520" d="M326 520h184q-38 -64 -147 -252q100 -183 147 -268h-194q-25 45 -53 97q-32 -53 -59 -97h-194q92 158 160 271q-19 36 -62.5 120t-66.5 129h183q22 -39 47 -85q28 44 55 85z" />
<glyph unicode="&#x446;" horiz-adv-x="612" d="M413 0h-363v520h210v-370h70v370h220v-370h43v-255h-180v105z" />
<glyph unicode="&#x447;" horiz-adv-x="637" d="M49 520h198v-186q0 -20 10.5 -35t25.5 -21t32.5 -4t30.5 13v233h241v-520h-241v159q-47 -42 -127 -42q-67 0 -118.5 43t-51.5 102v258z" />
<glyph unicode="&#x448;" horiz-adv-x="815" d="M245 150h55v370h195v-370h55v370h215v-520h-715v520h195v-370z" />
<glyph unicode="&#x449;" horiz-adv-x="815" d="M795 -150h-170v150h-575v520h195v-370h55v370h195v-370h55v370h215v-370h30v-300z" />
<glyph unicode="&#x44a;" horiz-adv-x="590" d="M300 108q29 -13 48 5t19 47q0 27 -17.5 43t-49.5 8v-103zM20 350v170h280v-90q85 7 138 -2.5t79 -40.5t34.5 -69.5t8.5 -103.5q0 -41 -7.5 -76t-25.5 -67t-48 -50.5t-74.5 -26.5t-104.5 6h-210v350h-70z" />
<glyph unicode="&#x44b;" horiz-adv-x="823" d="M260 108q29 -13 48 5t19 47q0 27 -17.5 43t-49.5 8v-103zM50 0v520h210v-90q85 7 138 -2.5t79 -40.5t34.5 -69.5t8.5 -103.5q0 -41 -7.5 -76t-25.5 -67t-48 -50.5t-74.5 -26.5t-104.5 6h-210zM564 0v520h210v-520h-210z" />
<glyph unicode="&#x44c;" horiz-adv-x="550" d="M260 108q29 -13 48 5t19 47q0 27 -17.5 43t-49.5 8v-103zM50 0v520h210v-90q85 7 138 -2.5t79 -40.5t34.5 -69.5t8.5 -103.5q0 -41 -7.5 -76t-25.5 -67t-48 -50.5t-74.5 -26.5t-104.5 6h-210z" />
<glyph unicode="&#x44d;" horiz-adv-x="530" d="M50 162v70h137q-20 76 -137 58v217q119 22 200.5 23t130.5 -13.5t75.5 -52t35 -81.5t8.5 -113q0 -137 -48 -200.5t-148 -72t-254 12.5v100q111 -12 135 52h-135z" />
<glyph unicode="&#x44e;" horiz-adv-x="794" d="M540 530q40 0 76 -14.5t62.5 -39.5t46 -58t29.5 -71t10 -77q0 -136 -63.5 -208t-167.5 -72q-201 0 -240 180h-19v-170h-224v520h224v-240h10q4 107 77.5 178.5t178.5 71.5zM547 264q-24 -2 -38.5 -10t-21 -23t-6.5 -39q0 -36 18 -54t58 -18q27 0 49.5 20t22.5 52 q0 33 -22.5 52.5t-49.5 19.5h-10z" />
<glyph unicode="&#x44f;" d="M560 510v-510h-245v127q-36 -3 -73 1l-32 -128h-170l82 164q-91 51 -92 146q0 113 64 166.5t182 55.5t284 -22zM315 210v110q-49 13 -77 -20q-25 -29 -6 -57q21 -31 83 -33z" />
<glyph unicode="&#x450;" horiz-adv-x="608" d="M354 555q-122 71 -156 95q6 7 17 22.5t20.5 28t19.5 21.5q83 -35 149 -99q-19 -35 -50 -68zM308 524q141 0 212 -76.5t54 -215.5h-309q0 -56 30.5 -84.5t71.5 -28.5t75.5 14t47.5 42h76q-11 -77 -82.5 -129t-175.5 -52q-113 0 -195.5 72.5t-82.5 194.5q0 124 78 193.5 t200 69.5zM346 403q-26 0 -53.5 -23t-27.5 -62h152q11 38 -16 61.5t-55 23.5z" />
<glyph unicode="&#x451;" horiz-adv-x="608" d="M396 695q33 0 50 -17t17 -46q0 -70 -70 -70q-71 0 -71 66q0 32 21 49.5t53 17.5zM197 692q33 0 50 -17t17 -46q0 -33 -18 -52t-52 -19q-70 0 -70 67q0 32 20.5 49.5t52.5 17.5zM308 524q141 0 212 -76.5t54 -215.5h-309q0 -56 30.5 -84.5t71.5 -28.5t75.5 14t47.5 42h76 q-11 -77 -82.5 -129t-175.5 -52q-113 0 -195.5 72.5t-82.5 194.5q0 124 78 193.5t200 69.5zM346 403q-26 0 -53.5 -23t-27.5 -62h152q11 38 -16 61.5t-55 23.5z" />
<glyph unicode="&#x452;" horiz-adv-x="618" d="M588 238v-215q0 -61 -53.5 -109.5t-128 -67t-136.5 -2.5v60q38 1 79 32.5t41 66.5v113q0 40 -36.5 56t-62.5 -9v-163h-241v474h-50v96h50v80h241v-80h145v-96h-145v-118q42 57 127 57q67 0 118.5 -51.5t51.5 -123.5z" />
<glyph unicode="&#x453;" horiz-adv-x="430" d="M225 535q-30 31 -50 69q66 64 149 99q10 -9 19.5 -21.5t20.5 -28t17 -23.5q-34 -24 -156 -95zM50 520h350v-220l-136 4l6 -304h-220v520z" />
<glyph unicode="&#x454;" horiz-adv-x="530" d="M480 290q-118 17 -137 -58h137v-70h-135q24 -65 135 -52v-100q-154 -21 -254 -12.5t-148 72t-48 200.5q0 69 8.5 113t35 81.5t75.5 52t130.5 13.5t200.5 -23v-217z" />
<glyph unicode="&#x455;" horiz-adv-x="532" d="M50 0v80q90 -7 155.5 0t65.5 27q0 21 -23 33.5t-55.5 21t-64.5 22t-55 48.5t-23 89q0 251 433 196v-214q-124 12 -124 -36q0 -20 19.5 -32t42.5 -18.5t42.5 -29.5t19.5 -62q0 -41 -26.5 -69.5t-66.5 -42t-100.5 -18.5t-115.5 -3t-124 8z" />
<glyph unicode="&#x456;" horiz-adv-x="324" d="M50 650h224v-100h-224v100zM274 491v-491h-224v491h224z" />
<glyph unicode="&#x457;" horiz-adv-x="324" d="M268 675q33 0 50 -17t17 -46q0 -70 -70 -70q-71 0 -71 66q0 32 21 49.5t53 17.5zM69 672q33 0 50 -17t17 -46q0 -33 -18 -52t-52 -19q-70 0 -70 67q0 32 20.5 49.5t52.5 17.5zM274 491v-491h-224v491h224z" />
<glyph unicode="&#x458;" horiz-adv-x="338" d="M50 650h238v-100h-238v100zM50 491h238v-468q0 -60 -63.5 -109t-148 -68t-146.5 -2v60q38 1 79 32.5t41 66.5v488z" />
<glyph unicode="&#x459;" horiz-adv-x="890" d="M80 520h520v-90q85 7 138 -2.5t79 -40.5t34.5 -69.5t8.5 -103.5q0 -41 -7.5 -76t-25.5 -67t-48 -50.5t-74.5 -26.5t-104.5 6h-240v300h-90v-80q0 -142 -63.5 -197.5t-186.5 -22.5v160q11 -2 20.5 1t15.5 10t10.5 15.5t7 22t4.5 24.5t2 27.5t0.5 27t0 27t-0.5 23.5v182z M600 108q29 -13 48 5t19 47q0 27 -17.5 43t-49.5 8v-103z" />
<glyph unicode="&#x45a;" horiz-adv-x="890" d="M50 0v520h230v-220h90v220h230v-90q85 7 138 -2.5t79 -40.5t34.5 -69.5t8.5 -103.5q0 -41 -7.5 -76t-25.5 -67t-48 -50.5t-74.5 -26.5t-104.5 6h-230v150h-90v-150h-230zM600 211v-103q29 -13 48 5t19 47q0 27 -17.5 43t-49.5 8z" />
<glyph unicode="&#x45b;" horiz-adv-x="618" d="M588 0h-198v116q0 40 -36.5 56t-62.5 -9v-163h-241v474h-50v96h50v80h241v-80h145v-96h-145v-118q42 57 127 57q67 0 118.5 -51.5t51.5 -123.5v-238z" />
<glyph unicode="&#x45c;" horiz-adv-x="581" d="M310 535q-30 31 -50 69q66 64 149 99q10 -9 19.5 -21.5t20.5 -28t17 -23.5q-34 -24 -156 -95zM379 520h170l-130 -244l142 -276h-206l-75 148v-148h-230v520h230v-187z" />
<glyph unicode="&#x45d;" horiz-adv-x="630" d="M315 535q-122 71 -156 95q6 7 17 22.5t20.5 28t19.5 21.5q83 -35 149 -99q-19 -35 -50 -68zM50 520h210v-186l110 186h210v-520h-210v176l-110 -176h-210v520z" />
<glyph unicode="&#x45e;" horiz-adv-x="592" d="M373 689q46 3 91 0q-21 -144 -128 -144q-52 0 -91.5 36.5t-44.5 107.5q62 6 100 0q10 -85 37 -85q29 0 36 85zM10 520h246l91 -221q44 118 77 221h158q-83 -275 -238 -645h-167q35 86 54 132z" />
<glyph unicode="&#x45f;" horiz-adv-x="612" d="M50 0v500h210v-350h70v350h220v-500h-167v-105h-180v105h-153z" />
<glyph unicode="&#x472;" horiz-adv-x="655" d="M338 676q123 0 195.5 -88.5t72.5 -258.5q0 -177 -73 -259t-195 -82q-288 0 -288 341q0 173 80.5 260t207.5 87zM225 235q12 -40 41 -60.5t70 -20.5q40 0 69 23t42 58h-222zM223 317h230q-9 45 -41 71t-76 26q-37 0 -70 -27.5t-43 -69.5z" />
<glyph unicode="&#x473;" horiz-adv-x="593" d="M305 529q122 0 180 -64.5t58 -178.5q0 -149 -60.5 -209.5t-177.5 -60.5q-138 0 -196.5 64t-58.5 206q0 243 255 243zM203 202q16 -69 107 -69q30 0 58 18.5t40 50.5h-205zM201 267h209q-6 24 -22.5 41.5t-36.5 26t-41 8.5q-51 0 -77 -18t-32 -58z" />
<glyph unicode="&#x490;" horiz-adv-x="440" d="M280 753h140v-103h-140v103zM50 0v650h370v-260q-22 0 -44.5 1t-49 2.5t-42.5 2.5q6 -266 6 -396h-240z" />
<glyph unicode="&#x491;" horiz-adv-x="430" d="M260 623h140v-323l-136 4l6 -304h-220v520h210v103z" />
<glyph unicode="&#x492;" horiz-adv-x="460" d="M60 161h-50v133h50v356h370v-260q-22 0 -44.5 1t-49 2.5t-42.5 2.5q2 -72 2 -102h134v-133h-131q1 -87 1 -161h-240v161z" />
<glyph unicode="&#x493;" horiz-adv-x="450" d="M60 520h350v-220l-136 4l1 -70h135v-133h-132l2 -101h-220v101h-50v133h50v286z" />
<glyph unicode="&#x496;" horiz-adv-x="818" d="M595 650h223l-183 -324l183 -326v-133h-140v133h-83l-74 170v-170h-223v173l-75 -173h-223l184 326l-184 324h223l75 -142v142h223v-140z" />
<glyph unicode="&#x497;" horiz-adv-x="772" d="M580 520h170l-130 -244l142 -276v-133h-140v133h-66l-55 108v-108h-230v108l-55 -108h-206l142 276l-130 244h170l79 -149v149h230v-149z" />
<glyph unicode="&#x49a;" d="M367 650h223l-184 -324l184 -326v-123h-140v123h-83l-94 155v-155h-223v650h223v-125z" />
<glyph unicode="&#x49b;" horiz-adv-x="581" d="M379 520h170l-130 -244l142 -276v-123h-140v123h-66l-75 148v-148h-230v520h230v-187z" />
<glyph unicode="&#x4a2;" horiz-adv-x="656" d="M375 650h231v-650h40v-133h-140v133h-128q-2 117 -3 168h-94v-168h-228l-3 650h231q2 -85 1 -329h92q-2 183 1 329z" />
<glyph unicode="&#x4a3;" horiz-adv-x="650" d="M50 0v520h230v-220h90v220h230v-520h40v-133h-140v133h-130v150h-90v-150h-230z" />
<glyph unicode="&#x4ac;" horiz-adv-x="605" d="M20 650h565v-308h-156v-342h46v-133h-140v133h-140v342h-175v308z" />
<glyph unicode="&#x4ad;" horiz-adv-x="490" d="M20 520h450v-240h-110v-280h40v-133h-140v133h-130v280h-110v240z" />
<glyph unicode="&#x4ae;" horiz-adv-x="582" d="M433 650h149l-149 -339v-311h-254v312l-179 338h240l105 -183z" />
<glyph unicode="&#x4af;" horiz-adv-x="527" d="M154 -125v125h234v-125h-234zM15 519h222q19 -106 69 -245q28 84 68 245h138q-10 -42 -54.5 -232.5t-69.5 -286.5h-234q-92 278 -139 519z" />
<glyph unicode="&#x4b2;" horiz-adv-x="635" d="M39 650h233q28 -50 60 -108l70 108h233q-36 -61 -103.5 -174.5t-83.5 -140.5q127 -227 187 -335v-123h-140v123h-106q-33 59 -68 122q-39 -65 -75 -122h-246q97 166 204 338q-75 140 -165 312z" />
<glyph unicode="&#x4b3;" horiz-adv-x="520" d="M41 520h183q22 -39 47 -85q28 44 55 85h184q-38 -64 -147 -252q100 -183 147 -268v-123h-140v123h-54q-25 45 -53 97q-32 -53 -59 -97h-194q92 158 160 271q-19 36 -62.5 120t-66.5 129z" />
<glyph unicode="&#x4b6;" horiz-adv-x="638" d="M270 650v-250q0 -37 15.5 -52t52.5 -11v313h250v-650h50v-133h-140v133h-160v148q-71 -12 -128.5 -9.5t-97 19.5t-61 59.5t-21.5 110.5v322h240z" />
<glyph unicode="&#x4b7;" horiz-adv-x="637" d="M49 520h198v-186q0 -20 10.5 -35t25.5 -21t32.5 -4t30.5 13v233h241v-520h50v-133h-140v133h-151v159q-47 -42 -127 -42q-67 0 -118.5 43t-51.5 102v258z" />
<glyph unicode="&#x2000;" horiz-adv-x="540" />
<glyph unicode="&#x2001;" horiz-adv-x="1080" />
<glyph unicode="&#x2002;" horiz-adv-x="540" />
<glyph unicode="&#x2003;" horiz-adv-x="1080" />
<glyph unicode="&#x2004;" horiz-adv-x="360" />
<glyph unicode="&#x2005;" horiz-adv-x="270" />
<glyph unicode="&#x2006;" horiz-adv-x="180" />
<glyph unicode="&#x2007;" horiz-adv-x="600" />
<glyph unicode="&#x2008;" horiz-adv-x="300" />
<glyph unicode="&#x2009;" horiz-adv-x="135" />
<glyph unicode="&#x200a;" horiz-adv-x="90" />
<glyph unicode="&#x200b;" horiz-adv-x="0" />
<glyph unicode="&#x200c;" horiz-adv-x="0" />
<glyph unicode="&#x200d;" horiz-adv-x="0" />
<glyph unicode="&#x200e;" horiz-adv-x="0" />
<glyph unicode="&#x200f;" horiz-adv-x="0" />
<glyph unicode="&#x2010;" horiz-adv-x="406" d="M50 400h306v-156h-306v156z" />
<glyph unicode="&#x2011;" horiz-adv-x="406" d="M50 400h306v-156h-306v156z" />
<glyph unicode="&#x2012;" horiz-adv-x="600" d="M50 400h500v-156h-500v156z" />
<glyph unicode="&#x2013;" horiz-adv-x="476" d="M0 400h476v-156h-476v156z" />
<glyph unicode="&#x2014;" horiz-adv-x="776" d="M0 400h776v-156h-776v156z" />
<glyph unicode="&#x2018;" horiz-adv-x="304" d="M152 403q-45 0 -73.5 31.5t-28.5 85.5q0 60 37 103t109 43v-44q-59 3 -59 -44q0 -2 18.5 -3t40 -0.5t40 -17t18.5 -52.5q0 -52 -28 -77t-74 -25z" />
<glyph unicode="&#x2019;" horiz-adv-x="304" d="M152 666q45 0 73.5 -31.5t28.5 -85.5q0 -60 -37 -103t-109 -43v44q59 -3 59 44q-1 6 -12 3.5t-29 -1t-35 5t-29 20.5t-12 45q0 52 28 77t74 25z" />
<glyph unicode="&#x201a;" horiz-adv-x="304" d="M152 158q45 0 73.5 -31.5t28.5 -85.5q0 -60 -37 -103t-109 -43v44q59 -3 59 44q-1 6 -12 3.5t-29 -1t-35 5t-29 20.5t-12 45q0 52 28 77t74 25z" />
<glyph unicode="&#x201b;" horiz-adv-x="304" d="M152 666q46 0 74 -25t28 -77q0 -28 -12 -45t-29 -20.5t-35 -5t-29 1t-12 -3.5q0 -47 59 -44q2 -43 0 -44q-72 0 -109 43t-37 103q0 54 28.5 85.5t73.5 31.5z" />
<glyph unicode="&#x201c;" horiz-adv-x="530" d="M378 403q-45 0 -73.5 31.5t-28.5 85.5q0 60 37 103t109 43v-44q-59 3 -59 -44q0 -2 18.5 -3t40 -0.5t40 -17t18.5 -52.5q0 -52 -28 -77t-74 -25zM152 403q-45 0 -73.5 31.5t-28.5 85.5q0 60 37 103t109 43v-44q-59 3 -59 -44q0 -2 18.5 -3t40 -0.5t40 -17t18.5 -52.5 q0 -52 -28 -77t-74 -25z" />
<glyph unicode="&#x201d;" horiz-adv-x="530" d="M152 666q45 0 73.5 -31.5t28.5 -85.5q0 -60 -37 -103t-109 -43v44q59 -3 59 44q-1 6 -12 3.5t-29 -1t-35 5t-29 20.5t-12 45q0 52 28 77t74 25zM378 666q45 0 73.5 -31.5t28.5 -85.5q0 -60 -37 -103t-109 -43v44q59 -3 59 44q-1 6 -12 3.5t-29 -1t-35 5t-29 20.5t-12 45 q0 52 28 77t74 25z" />
<glyph unicode="&#x201e;" horiz-adv-x="530" d="M152 158q45 0 73.5 -31.5t28.5 -85.5q0 -60 -37 -103t-109 -43v44q59 -3 59 44q-1 6 -12 3.5t-29 -1t-35 5t-29 20.5t-12 45q0 52 28 77t74 25zM378 158q45 0 73.5 -31.5t28.5 -85.5q0 -60 -37 -103t-109 -43v44q59 -3 59 44q-1 6 -12 3.5t-29 -1t-35 5t-29 20.5t-12 45 q0 52 28 77t74 25z" />
<glyph unicode="&#x201f;" horiz-adv-x="530" d="M378 666q46 0 74 -25t28 -77q0 -28 -12 -45t-29 -20.5t-35 -5t-29 1t-12 -3.5q0 -47 59 -44q2 -43 0 -44q-72 0 -109 43t-37 103q0 54 28.5 85.5t73.5 31.5zM152 666q46 0 74 -25t28 -77q0 -28 -12 -45t-29 -20.5t-35 -5t-29 1t-12 -3.5q0 -47 59 -44q2 -43 0 -44 q-72 0 -109 43t-37 103q0 54 28.5 85.5t73.5 31.5z" />
<glyph unicode="&#x2020;" horiz-adv-x="1000" d="M602 85q11 0 19 -8.5t8 -17.5q0 -13 -10.5 -21.5t-22.5 -4.5q-18 6 -18 23q0 11 7 20t17 9zM382 85q14 14 31.5 2t7.5 -31q-4 -9 -16 -11.5t-19 3.5q-23 18 -4 37zM509 105q7 7 18 7q14 0 20.5 -9.5t3 -21t-15.5 -16.5q-6 -3 -14 0q-13 4 -17 17t5 23zM364 337 q6 19 25.5 30.5t42.5 4.5q39 -12 39 -53q0 -14 -5 -24q-9 -16 -26 -26t-36 -5q-25 7 -36 27.5t-4 45.5zM584 375q34 0 49 -33.5t-8 -59.5q-25 -28 -61 -13.5t-36 50.5q0 21 17.5 38.5t38.5 17.5zM665 366q-23 22 -53 28t-65 -8q-16 -8 -31 -24l-16 -16l-7 9q-26 35 -68 41 q-48 7 -85 -26.5t-37 -83.5q0 -51 39.5 -86t88.5 -25q29 6 54 32l16 16l16 -16q25 -25 50 -31q34 -9 67.5 7t50.5 48q18 34 13 70.5t-33 64.5zM501 381q41 31 88 31q60 0 100.5 -49t29.5 -108q-9 -51 -48 -82t-90 -29q-35 1 -75 27q-5 4 -10 0q-42 -26 -77 -27q-23 0 -35 3 q-59 15 -89 71t0 119q8 17 27 36q25 25 61 35q58 14 109 -21zM659 105q0 8 5.5 15t12.5 7q5 0 7 3q4 9 15 42l12 39q23 7 50 11q59 9 77 21t17 33q-6 69 -127 208q-19 23 -68.5 73t-71.5 68q-74 62 -83 62q-13 -1 -65 -44t-108 -99q-159 -159 -183 -253q-5 -18 -3.5 -26 t11.5 -17q18 -16 76 -25q37 -6 56 -12q4 -14 13 -41t13 -40l9 -1q16 -3 19.5 -17t-10.5 -24q-7 -5 -13 -20l-7 -16l7 -7q12 -12 7.5 -26t-21.5 -17q-6 -1 -7 -11q-2 -32 27 -52l8 -6q9 4 18.5 11t9.5 12q0 3 -11 1q-18 -1 -22.5 16t12.5 24q14 6 25 -7q6 -7 7 -4q1 1 4 11 q4 13 26 27q1 1 2.5 -0.5t2.5 -4.5l2 -6t2 -8t2 -7l11 1q32 4 43.5 -24t-13.5 -46q-4 -3 -9.5 -4.5t-8.5 -3.5q-4 -2 0 -5q9 -7 20 2q14 13 25 54q1 6 3 12t3 10l1 3q0 3 -7 3q-15 0 -22 12.5t-1.5 25.5t21.5 14q13 1 18.5 -5.5t8.5 -24t4 -21.5q0 -1 1.5 -5l3 -8t2.5 -8 q4 -15 7 -14q1 0 1 5q0 4 6 10q9 9 20.5 5t14.5 -14t-5 -20q-16 -14 -31 1q-5 4 -5 1q1 -3 6 -15q12 -26 23 -26q12 0 26 28q9 18 10.5 25t-1.5 18q-7 28 4 39q2 2 14 -6q11 -8 14 -17q3 -10 15 -11q17 -2 25.5 -14t0.5 -30q-5 -12 1 -11q5 0 14 8q21 16 22 40l-10 1 q-28 3 -33.5 29t17.5 40l10 6l-4 10q-1 2 -11 15.5t-10 21.5zM714 82l4 -10q19 -38 19 -93l-1 -7q-2 -32 -35 -59q-26 -20 -46 -14q-11 3 -13 5q-7 5 -13 13q-9 13 -5 31q-13 -42 -43 -63q-11 -9 -26 -9q-6 0 -11.5 1t-8.5 2t-6.5 4t-5 4t-4 4.5t-3.5 4.5q-7 7 -14 21 q-19 -37 -51 -41q-23 -3 -42 16q-9 10 -13 48q-2 -4 -7 -10q-11 -16 -30 -25q-1 0 -4 -2.5t-4 -2.5q-21 -11 -46 9q-45 32 -42 84q1 43 17 74q10 21 0 52q-3 9 -9.5 30t-10.5 32q-10 2 -44 8.5t-45 9.5q-53 17 -61 59q-3 15 3 42q26 103 193 270q59 59 114 104q47 37 62 44 q17 8 33 4q8 -2 23 -12q40 -28 73 -57q26 -22 74.5 -70.5t70.5 -74.5q128 -148 135 -229q2 -21 -6 -38t-26 -28.5t-30.5 -15t-45 -9t-43.5 -7.5l-6 -20q-2 -7 -8.5 -25.5t-9.5 -31t-2 -22.5z" />
<glyph unicode="&#x2021;" horiz-adv-x="1000" d="M503 729q144 -2 245 -51q73 -33 122 -98t56 -144q9 -71 -20.5 -141.5t-83.5 -124.5q35 -13 51 -50t11 -77q-3 -65 -58.5 -108.5t-120.5 -33.5q-3 -1 -13.5 3t-11.5 -1q-37 -33 -87 -31t-88 33q-5 4 -7.5 3.5t-7.5 -5t-7 -5.5q-35 -27 -85 -27t-80 34q-85 -21 -145 28 t-60 124q-2 37 14.5 69.5t48.5 43.5q-3 7 -16.5 21t-17.5 20q-69 81 -70 193.5t70 192.5q61 68 152 100t192 32h17zM499 683q-96 0 -171.5 -23.5t-120 -62.5t-67 -85.5t-22.5 -97.5q0 -24 3 -45.5t10.5 -41.5t13 -35t19 -32.5t20 -27t23.5 -26t22 -21.5t23.5 -21t20.5 -18 q-6 18 -6 37q0 49 34 83.5t83 34.5q38 0 69 -21t41 -55q2 -4 5 -4q4 0 6 4q10 34 41 55t69 21q49 0 83 -34.5t34 -83.5q0 -19 -6 -37q2 2 20.5 18t23.5 21t22 21.5t23.5 26t20 27t19 32.5t13 35t10.5 41.5t3 45.5q0 51 -22.5 97.5t-67 85.5t-120.5 62.5t-172 23.5zM384 292 q-35 0 -60.5 -25.5t-25.5 -60.5t25.5 -60t60.5 -25t60.5 25t25.5 60t-25.5 60.5t-60.5 25.5zM614 292q-35 0 -60 -25.5t-25 -60.5t25 -60t60 -25t60.5 25t25.5 60t-25.5 60.5t-60.5 25.5zM381 234q10 0 17.5 -7t7.5 -17t-7.5 -17.5t-17.5 -7.5t-17 7.5t-7 17.5t7 17t17 7z M617 234q10 0 17.5 -7t7.5 -17t-7.5 -17.5t-17.5 -7.5t-17 7.5t-7 17.5t7 17t17 7zM499 143q-5 0 -7 -6q-13 -32 -42.5 -52t-65.5 -20t-64 19q0 -2 0.5 -4t0.5 -4q0 -23 -23 -26.5t-47.5 8t-29.5 26.5q-2 6 -4.5 15.5t-4 13t-4 7.5t-5.5 5.5t-8 1.5q-14 0 -24.5 -18 t-10.5 -47q0 -57 34.5 -87t83.5 -30q38 0 56 24.5t6 46.5q29 -14 29 -30q0 -9 -12 -16t-12 -18q0 -14 14.5 -24t34.5 -10q73 0 105 72q32 -72 106 -72q20 0 34.5 10t14.5 24q0 11 -12 18t-12 16q0 16 29 30q-12 -22 6 -46.5t56 -24.5q49 0 83.5 30t34.5 87q0 29 -11 47 t-25 18q-5 0 -8 -1.5t-5.5 -5.5t-3.5 -7.5t-3.5 -12.5t-4.5 -16q-5 -15 -29.5 -26.5t-47.5 -8t-23 26.5q0 2 0.5 4t0.5 4q-29 -19 -64 -19q-37 0 -66.5 20t-42.5 52q-2 6 -7 6z" />
<glyph unicode="&#x2022;" horiz-adv-x="935" d="M348 778h1q1 1 2 1q21 7 30.5 -1t12 -32t2.5 -52.5t5 -71.5t17 -80q-43 74 -58 119q-37 105 -12 117zM297 510q7 27 24 14q29 -21 22 -36q-5 -11 -16 -17.5t-19 -0.5q-20 14 -11 40zM418 533q6 -3 12.5 -29.5t16.5 -49.5t26 -20q12 2 16.5 8t3.5 11.5t4 10.5t17 5t16 -3 t2 -7.5t1.5 -10t15.5 -7.5q16 -3 26.5 6.5t19 26t12.5 20.5q5 -16 4 -29t-4.5 -22t-2.5 -16.5t10 -11.5q16 -9 17 -1v4q2 0 11 -10q12 -13 8 -17t6 -20q12 -18 41.5 -19.5t31.5 -2.5q0 -8 -14 -19.5t-20 -29.5q-4 -10 3 -14t22 -3t32.5 2t38.5 -2t37 -11q39 -43 -12 -46 q-15 0 -54 3q-62 5 -72 -3q-8 -7 -8 -11.5t5.5 -8t13.5 -7t18 -11t17 -16.5q-11 -2 -26.5 3.5t-23 6t-20.5 -10.5q-9 -11 0.5 -24.5t19 -24.5t-1.5 -32q-2 -14 -4 -20t-6 -4t-7 5.5t-10 13.5q-5 8 -8.5 12.5t-9.5 11t-11.5 8.5t-11.5 1q-16 -4 -19.5 -11t-1 -13t-1.5 -13 q-5 1 -10.5 7t-11 8t-24.5 -1q-18 -4 -11.5 -29t-11.5 -25q-12 -1 -18 6t-7 16.5t-7 18.5t-18 11q-16 3 -23.5 -31.5t-10.5 -74.5t-7 -43q-1 5 0.5 46.5t-2.5 76t-18 42.5q-15 9 -32 -4t-29 1q-13 13 4 27t7 29q-9 13 -22.5 15t-30.5 -1.5t-24 -2.5q3 2 15.5 9t20 12.5 t13 16t2.5 22.5q-3 11 -15 6t-29 -11t-32 -11t-25 6t-8 40q1 26 17 33.5t36 1t37 -7t20 9.5q3 15 -5.5 23.5t-20 13.5t-12.5 10q3 1 26 2t39 15q12 10 13.5 18.5t-4 14.5t-14 16t-12.5 19q20 18 31 9t21 -20.5t15 -3.5q12 19 5.5 65.5t-3.5 50.5zM151 406q1 3 4 4.5t7 1.5 t8 -1t10.5 -3.5t10.5 -4t12 -5t12 -5.5q29 -14 67 -40q-30 13 -68.5 18.5t-53 11t-9.5 23.5zM660 610q6 3 16 -1q14 -6 -19 -56q-14 -23 -44 -54q13 22 21.5 48.5t13.5 42.5t12 20zM78 312q2 2 4 2q23 7 53.5 -1.5t39.5 -28.5q9 -21 1 -41t-29 -30q-47 -22 -67 20 q-29 66 -2 79zM166 311q-4 15 7 15q19 -2 21 -13q2 -7 -0.5 -14.5t-8.5 -6.5q-14 2 -19 19zM680 466q9 20 25 16q24 -10 16 -23q-6 -9 -17 -17t-18 -5q-16 7 -6 29zM124 113q52 24 139 45q-39 -18 -77 -45.5t-61.5 -48.5t-44.5 -36.5t-34.5 -14.5t-23.5 21q-8 17 19.5 36 t82.5 43zM850 418q22 9 33 -14q6 -12 -12 -21.5t-53 -19.5q-27 -8 -89 -13q35 11 76 38.5t45 29.5zM148 62q-24 -25 -45 -60.5t-31.5 -48t-23.5 -1.5q-12 10 37 59q22 23 63 51zM738 168q33 -28 77 -52.5t60 -37t8 -27.5q-4 -8 -22 4t-50 40q-31 27 -73 73zM599 73 q7 -20 20 -39t23 -30.5t17 -22t4.5 -18.5t-15.5 -15q-11 -6 -19 7t-18 43q-7 22 -12 75zM514 -14q24 24 35 11q7 -9 8 -23t-7 -22q-10 -9 -24 -4.5t-18 15.5t6 23z" />
<glyph unicode="&#x2026;" horiz-adv-x="804" d="M157 177q48 0 72.5 -25t24.5 -67q0 -49 -26 -75.5t-76 -26.5q-102 0 -102 97q0 46 30.5 71.5t76.5 25.5zM657 177q48 0 72.5 -25t24.5 -67q0 -49 -26 -75.5t-76 -26.5q-102 0 -102 97q0 46 30.5 71.5t76.5 25.5zM407 177q48 0 72.5 -25t24.5 -67q0 -49 -26 -75.5 t-76 -26.5q-102 0 -102 97q0 46 30.5 71.5t76.5 25.5z" />
<glyph unicode="&#x2030;" horiz-adv-x="1338" d="M1095 383q193 0 193 -196q0 -104 -44.5 -150.5t-148.5 -46.5q-92 0 -139 42t-47 155q0 89 48.5 142.5t137.5 53.5zM1047 278q-28 0 -44.5 -24.5t-16.5 -66.5q0 -29 17.5 -50.5t43.5 -21.5q27 0 43.5 18.5t16.5 53.5q0 37 -14.5 64t-45.5 27zM182 658q76 0 116.5 -37 t40.5 -108q0 -72 -38.5 -114.5t-106.5 -42.5q-71 0 -107.5 31t-36.5 114q0 69 38.5 113t93.5 44zM158 573q-26 0 -43 -19.5t-17 -48.5q0 -31 13.5 -42t39.5 -11q24 0 38 18.5t14 42.5q0 30 -13 45t-32 15zM665 383q193 0 193 -196q0 -104 -44.5 -150.5t-148.5 -46.5 q-92 0 -139 42t-47 155q0 89 48.5 142.5t137.5 53.5zM617 278q-28 0 -44.5 -24.5t-16.5 -66.5q0 -29 17.5 -50.5t43.5 -21.5q27 0 43.5 18.5t16.5 53.5q0 37 -14.5 64t-45.5 27zM170 7q202 428 314 639h133q-180 -379 -314 -639h-133z" />
<glyph unicode="&#x2032;" horiz-adv-x="340" d="M50 520l64 214h176l-108 -214h-132z" />
<glyph unicode="&#x2033;" horiz-adv-x="580" d="M50 520l64 214h176l-108 -214h-132zM290 520l64 214h176l-108 -214h-132z" />
<glyph unicode="&#x2034;" horiz-adv-x="820" d="M50 520l64 214h176l-108 -214h-132zM290 520l64 214h176l-108 -214h-132zM530 520l64 214h176l-108 -214h-132z" />
<glyph unicode="&#x2035;" horiz-adv-x="340" d="M290 520h-132l-108 214h176z" />
<glyph unicode="&#x2036;" horiz-adv-x="580" d="M530 520h-132l-108 214h176zM290 520h-132l-108 214h176z" />
<glyph unicode="&#x2037;" horiz-adv-x="820" d="M770 520h-132l-108 214h176zM530 520h-132l-108 214h176zM290 520h-132l-108 214h176z" />
<glyph unicode="&#x2039;" horiz-adv-x="350" d="M300 3q-146 88 -250 172v162q27 16 119.5 75.5t130.5 80.5v-161q-27 -17 -68 -45.5t-63 -43.5q59 -50 131 -93v-147z" />
<glyph unicode="&#x203a;" horiz-adv-x="350" d="M50 3v147q75 45 132 93q-21 14 -62.5 43t-69.5 46v161q38 -21 130.5 -80.5t119.5 -75.5v-162q-104 -84 -250 -172z" />
<glyph unicode="&#x20ac;" horiz-adv-x="675" d="M625 438q-127 6 -189 -8t-86 -70h177v-66h-191q-1 -13 -1 -28q0 -13 2 -26h190v-66h-161q36 -47 102 -62t157 12v-110q-38 -14 -81 -19t-118 -5q-92 0 -158 17.5t-112.5 59t-66.5 107.5h-59v66h44q-3 26 -4 54h-40v66h41q10 159 97 229.5t286 70.5q113 0 171 -34v-188z " />
<glyph unicode="&#x20b2;" horiz-adv-x="779" d="M280 646l-11 75l50 12l15 -78l237 -127q-95 -28 -172.5 -88.5t-77.5 -127.5q0 -66 53 -104.5t149 -41.5q-21 42 -79 99l285 -11q-99 -95 -130 -275l-40 93q-28 -30 -86 -55.5t-112 -25.5q-132 0 -221.5 80t-89.5 229q0 127 52.5 202.5t177.5 143.5z" />
<glyph unicode="&#x2116;" horiz-adv-x="1208" d="M707 -10v165h440l-10 -145zM942 663q112 0 165.5 -58.5t53.5 -162.5q0 -70 -15 -119t-45 -76.5t-68.5 -39.5t-90.5 -12q-128 0 -182 59t-54 188q0 111 58 166t178 55zM971 435q-35 0 -50.5 -15t-15.5 -48q0 -63 66 -63q24 0 43.5 17.5t19.5 45.5q0 29 -19.5 46t-43.5 17z M50 0v650h239l133 -228v228h232v-650h-232l-142 197v-197h-230z" />
<glyph unicode="&#x2122;" horiz-adv-x="695" d="M329 380l5 270h95q18 -44 59 -172q45 134 60 172h97v-270h-91v62l-24 -62h-77l-30 68v-68h-94zM46 650h235v-128h-65v-142h-97v142h-73v128z" />
<glyph unicode="&#x2190;" horiz-adv-x="1050" d="M345 -5l-295 305l295 305v-113l605 -20v-90h-150v-36h150v-92h-150v-36h150v-90l-605 -20v-113z" />
<glyph unicode="&#x2191;" horiz-adv-x="710" d="M50 455l305 295l305 -295h-113l-20 -605h-90v150h-36v-150h-92v150h-36v-150h-90l-20 605h-113z" />
<glyph unicode="&#x2192;" horiz-adv-x="1050" d="M705 605l295 -305l-295 -305v113l-605 20v90h150v36h-150v92h150v36h-150v90l605 20v113z" />
<glyph unicode="&#x2193;" horiz-adv-x="710" d="M660 145l-305 -295l-305 295h113l20 605h90v-150h36v150h92v-150h36v150h90l20 -605h113z" />
<glyph unicode="&#x2196;" horiz-adv-x="915" d="M100 264l7 424l424 7l-80 -80l414 -442l-64 -63l-106 106l-25 -26l106 -106l-65 -65l-106 106l-26 -25l106 -106l-63 -64l-442 414z" />
<glyph unicode="&#x2197;" horiz-adv-x="915" d="M384 695l424 -7l7 -424l-80 80l-442 -414l-63 64l106 106l-26 25l-106 -106l-65 65l106 106l-25 26l-106 -106l-64 63l414 442z" />
<glyph unicode="&#x2198;" horiz-adv-x="915" d="M815 361l-7 -424l-424 -7l80 80l-414 442l64 63l106 -106l25 26l-106 106l65 65l106 -106l26 25l-106 106l63 64l442 -414z" />
<glyph unicode="&#x2199;" horiz-adv-x="864" d="M481 -70l-424 7l-7 424l80 -80l442 414l63 -64l-106 -106l26 -25l106 106l65 -65l-106 -106l25 -26l106 106l64 -63l-414 -442z" />
<glyph unicode="&#x21b6;" horiz-adv-x="1000" d="M494 699q167 0 286 -119t119 -286h-34q0 72 -39 155t-94 129l-22 -27q50 -42 85 -117.5t35 -139.5h-36q0 58 -31.5 125t-75.5 104l-25 -28q39 -33 66.5 -92t27.5 -109h-38q0 93 -65.5 158.5t-158.5 65.5q-99 0 -166 -73l48 -59l-276 -2l53 275l60 -73q118 113 281 113z " />
<glyph unicode="&#x21b7;" horiz-adv-x="1000" d="M506 699q163 0 281 -113l60 73l53 -275l-276 2l48 59q-67 73 -166 73q-93 0 -158.5 -65.5t-65.5 -158.5h-38q0 50 27.5 109t66.5 92l-25 28q-44 -37 -75.5 -104t-31.5 -125h-36q0 64 35 139.5t85 117.5l-22 27q-55 -46 -94 -129t-39 -155h-34q0 167 119 286t286 119z" />
<glyph unicode="&#x21ba;" horiz-adv-x="1000" d="M494 699q167 0 286 -119t119 -286h-34q0 72 -39 155t-94 129l-22 -27q50 -42 85 -117.5t35 -139.5h-36q0 58 -31.5 125t-75.5 104l-25 -28q39 -33 66.5 -92t27.5 -109h-38q0 93 -65.5 158.5t-158.5 65.5q-99 0 -166 -73l48 -59l-276 -2l53 275l60 -73q118 113 281 113z M282 306q0 -93 65.5 -158.5t158.5 -65.5q99 0 166 73l-48 59l276 2l-53 -275l-60 73q-118 -113 -281 -113q-167 0 -286 119t-119 286h34q0 -82 35 -157t98 -127l22 27q-57 48 -88.5 115.5t-31.5 141.5h36q0 -66 28.5 -126t78.5 -103l25 28q-45 37 -69.5 90t-24.5 111h38z " />
<glyph unicode="&#x21bb;" horiz-adv-x="1000" d="M506 699q163 0 281 -113l60 73l53 -275l-276 2l48 59q-67 73 -166 73q-93 0 -158.5 -65.5t-65.5 -158.5h-38q0 51 27.5 110t66.5 91l-25 28q-44 -38 -75.5 -104.5t-31.5 -124.5h-36q0 64 35 139.5t85 117.5l-22 27q-55 -46 -94 -129t-39 -155h-34q0 168 118.5 286.5 t286.5 118.5zM718 306h38q0 -123 -94 -201l25 -28q107 90 107 229h36q0 -74 -31.5 -141.5t-88.5 -115.5l22 -27q63 53 98 127.5t35 156.5h34q0 -168 -118.5 -286.5t-286.5 -118.5q-163 0 -281 113l-60 -73l-53 275l276 -2l-48 -59q67 -73 166 -73q93 0 158.5 65.5 t65.5 158.5z" />
<glyph unicode="&#x2212;" horiz-adv-x="648" d="M50 222v172h548v-172h-548z" />
<glyph unicode="&#x221a;" horiz-adv-x="437" d="M20 520q82 8 184 0q12 -90 52 -246q20 81 70 376h112q-7 -43 -49.5 -296t-61.5 -354h-203q-77 324 -104 520z" />
<glyph unicode="&#x2248;" horiz-adv-x="547" d="M50 159v95q12 21 46.5 35.5t69.5 14.5q62 0 104.5 -16.5t71 -33t55.5 -16.5q44 0 100 16v-95q-17 -22 -44.5 -36t-55.5 -14q-52 0 -126 41.5t-122 41.5q-43 0 -99 -33zM50 389v95q12 21 46.5 35.5t69.5 14.5q62 0 104.5 -16.5t71 -33t55.5 -16.5q44 0 100 16v-95 q-17 -22 -44.5 -36t-55.5 -14q-52 0 -126 41.5t-122 41.5q-43 0 -99 -33z" />
<glyph unicode="&#x2260;" horiz-adv-x="606" d="M348 265h208v-146h-281q-31 -63 -62 -122h-133q38 81 58 122h-88v146h157q22 44 41 84h-198v146h271q37 74 73 141h133q-36 -76 -67 -141h96v-146h-167q-21 -43 -41 -84z" />
<glyph unicode="&#x25fc;" horiz-adv-x="520" d="M0 520h520v-520h-520v520z" />
<glyph unicode="&#xfb01;" horiz-adv-x="704" d="M654 491v-491h-224v491h224zM430 650h224v-100h-224v100zM321 381h59v-155h-59v-226h-245v226h-56v155h56v98q0 53 22.5 91t56.5 56.5t76 26.5t79.5 6t69.5 -10v-141q-17 7 -38 -6t-21 -37v-84z" />
<glyph unicode="&#xfb02;" horiz-adv-x="716" d="M432 650h233q2 -219 0 -650h-233q-2 525 0 650zM321 381h59v-155h-59v-226h-245v226h-56v155h56v98q0 53 22.5 91t56.5 56.5t76 26.5t79.5 6t69.5 -10v-141q-17 7 -38 -6t-21 -37v-84z" />
<glyph unicode="&#xfffd;" horiz-adv-x="935" d="M348 778h1q1 1 2 1q21 7 30.5 -1t12 -32t2.5 -52.5t5 -71.5t17 -80q-43 74 -58 119q-37 105 -12 117zM297 510q7 27 24 14q29 -21 22 -36q-5 -11 -16 -17.5t-19 -0.5q-20 14 -11 40zM418 533q6 -3 12.5 -29.5t16.5 -49.5t26 -20q12 2 16.5 8t3.5 11.5t4 10.5t17 5t16 -3 t2 -7.5t1.5 -10t15.5 -7.5q16 -3 26.5 6.5t19 26t12.5 20.5q5 -16 4 -29t-4.5 -22t-2.5 -16.5t10 -11.5q16 -9 17 -1v4q2 0 11 -10q12 -13 8 -17t6 -20q12 -18 41.5 -19.5t31.5 -2.5q0 -8 -14 -19.5t-20 -29.5q-4 -10 3 -14t22 -3t32.5 2t38.5 -2t37 -11q39 -43 -12 -46 q-15 0 -54 3q-62 5 -72 -3q-8 -7 -8 -11.5t5.5 -8t13.5 -7t18 -11t17 -16.5q-11 -2 -26.5 3.5t-23 6t-20.5 -10.5q-9 -11 0.5 -24.5t19 -24.5t-1.5 -32q-2 -14 -4 -20t-6 -4t-7 5.5t-10 13.5q-5 8 -8.5 12.5t-9.5 11t-11.5 8.5t-11.5 1q-16 -4 -19.5 -11t-1 -13t-1.5 -13 q-5 1 -10.5 7t-11 8t-24.5 -1q-18 -4 -11.5 -29t-11.5 -25q-12 -1 -18 6t-7 16.5t-7 18.5t-18 11q-16 3 -23.5 -31.5t-10.5 -74.5t-7 -43q-1 5 0.5 46.5t-2.5 76t-18 42.5q-15 9 -32 -4t-29 1q-13 13 4 27t7 29q-9 13 -22.5 15t-30.5 -1.5t-24 -2.5q3 2 15.5 9t20 12.5 t13 16t2.5 22.5q-3 11 -15 6t-29 -11t-32 -11t-25 6t-8 40q1 26 17 33.5t36 1t37 -7t20 9.5q3 15 -5.5 23.5t-20 13.5t-12.5 10q3 1 26 2t39 15q12 10 13.5 18.5t-4 14.5t-14 16t-12.5 19q20 18 31 9t21 -20.5t15 -3.5q12 19 5.5 65.5t-3.5 50.5zM151 406q1 3 4 4.5t7 1.5 t8 -1t10.5 -3.5t10.5 -4t12 -5t12 -5.5q29 -14 67 -40q-30 13 -68.5 18.5t-53 11t-9.5 23.5zM660 610q6 3 16 -1q14 -6 -19 -56q-14 -23 -44 -54q13 22 21.5 48.5t13.5 42.5t12 20zM78 312q2 2 4 2q23 7 53.5 -1.5t39.5 -28.5q9 -21 1 -41t-29 -30q-47 -22 -67 20 q-29 66 -2 79zM166 311q-4 15 7 15q19 -2 21 -13q2 -7 -0.5 -14.5t-8.5 -6.5q-14 2 -19 19zM680 466q9 20 25 16q24 -10 16 -23q-6 -9 -17 -17t-18 -5q-16 7 -6 29zM124 113q52 24 139 45q-39 -18 -77 -45.5t-61.5 -48.5t-44.5 -36.5t-34.5 -14.5t-23.5 21q-8 17 19.5 36 t82.5 43zM850 418q22 9 33 -14q6 -12 -12 -21.5t-53 -19.5q-27 -8 -89 -13q35 11 76 38.5t45 29.5zM148 62q-24 -25 -45 -60.5t-31.5 -48t-23.5 -1.5q-12 10 37 59q22 23 63 51zM738 168q33 -28 77 -52.5t60 -37t8 -27.5q-4 -8 -22 4t-50 40q-31 27 -73 73zM599 73 q7 -20 20 -39t23 -30.5t17 -22t4.5 -18.5t-15.5 -15q-11 -6 -19 7t-18 43q-7 22 -12 75zM514 -14q24 24 35 11q7 -9 8 -23t-7 -22q-10 -9 -24 -4.5t-18 15.5t6 23z" />
<glyph unicode="&#x1f500;" horiz-adv-x="915" d="M814 264l-5 -318l-318 -6l60 60l-500 522l47 47l120 -119l19 19l-120 120l49 48l120 -119l19 19l-120 119l48 48l522 -500zM458 528l93 96l-60 60l318 -5l5 -318l-59 60l-93 -89zM418 96l-185 -176l-48 48l120 120l-19 19l-120 -120l-49 49l120 120l-19 19l-120 -120 l-47 48l180 188z" />
<glyph unicode="&#x1f501;" horiz-adv-x="1000" d="M506 699q163 0 281 -113l60 73l53 -275l-276 2l48 59q-67 73 -166 73q-93 0 -158.5 -65.5t-65.5 -158.5h-38q0 51 27.5 110t66.5 91l-25 28q-44 -38 -75.5 -104.5t-31.5 -124.5h-36q0 64 35 139.5t85 117.5l-22 27q-55 -46 -94 -129t-39 -155h-34q0 168 118.5 286.5 t286.5 118.5zM718 306h38q0 -123 -94 -201l25 -28q107 90 107 229h36q0 -74 -31.5 -141.5t-88.5 -115.5l22 -27q63 53 98 127.5t35 156.5h34q0 -168 -118.5 -286.5t-286.5 -118.5q-163 0 -281 113l-60 -73l-53 275l276 -2l-48 -59q67 -73 166 -73q93 0 158.5 65.5 t65.5 158.5z" />
<glyph unicode="&#x1f502;" horiz-adv-x="1000" d="M199 186q-5 -41 -9 -130h26v-135h130v265h-147zM506 699q163 0 281 -113l60 73l53 -275l-276 2l48 59q-67 73 -166 73q-93 0 -158.5 -65.5t-65.5 -158.5h-38q0 51 27.5 110t66.5 91l-25 28q-44 -38 -75.5 -104.5t-31.5 -124.5h-36q0 64 35 139.5t85 117.5l-22 27 q-55 -46 -94 -129t-39 -155h-34q0 168 118.5 286.5t286.5 118.5zM80 50q0 82 53 142t153 60q82 0 133 -51.5t51 -140.5q0 -196 -195 -196t-195 186zM718 306h38q0 -123 -94 -201l25 -28q107 90 107 229h36q0 -74 -31.5 -141.5t-88.5 -115.5l22 -27q63 53 98 127.5t35 156.5 h34q0 -168 -118.5 -286.5t-286.5 -118.5q-15 0 -41 2q54 77 46 179q92 2 155.5 67.5t63.5 156.5z" />
<glyph horiz-adv-x="520" d="M460 20q-13 -13 -44.5 -21.5t-55.5 -8.5q-155 0 -235 36t-80 116q0 24 16.5 44t37 31t37 25t16.5 28q0 29 -32 29q-55 3 -70 -9v220q58 10 173 10q242 0 242 -207q0 -48 -20 -80.5t-48 -46.5t-56 -23t-48 -16.5t-20 -18.5q0 -43 92 -43q35 0 95 15v-80z" />
<glyph horiz-adv-x="612" d="M117 -61q38 -10 81 -11.5t80 6t61.5 28t24.5 51.5v2q-55 -14 -111 -14q-223 0 -223 265q0 59 19.5 108t51.5 80t71.5 48t80.5 17q47 0 111 -26v26h198v-481q0 -65 -47 -110t-116 -61t-145 -13.5t-137 23.5v62zM364 106v123q-14 5 -25 5q-33 0 -53.5 -20t-20.5 -47 q0 -29 18.5 -48t43.5 -19q17 0 37 6z" />
<glyph horiz-adv-x="533" d="M272 528q99 0 192 -7q0 -179 -2 -241q-13 -20 -53.5 -51.5t-47.5 -38.5q47 -10 84.5 -51.5t37.5 -94.5q0 -102 -100.5 -127t-332.5 8v100q26 -2 57 -2t56.5 16t25.5 46t-26.5 47t-57 17.5t-55.5 -1.5v64q48 10 99.5 35t58.5 46h-158v226q105 9 222 9z" />
<glyph horiz-adv-x="628" d="M368 520h236v-520h-236v79q-15 -39 -58.5 -64t-95.5 -25q-67 0 -112 42.5t-53 115.5q-16 142 -10 372h219q-6 -163 0 -256q2 -30 22 -45.5t46 -9t42 33.5v277z" />
<glyph horiz-adv-x="628" d="M368 520h236v-520h-236v79q-15 -39 -58.5 -64t-95.5 -25q-67 0 -112 42.5t-53 115.5q-16 142 -10 372h219q-6 -163 0 -256q2 -30 22 -45.5t46 -9t42 33.5v277zM355 704q46 3 91 0q-21 -144 -128 -144q-52 0 -91.5 36.5t-44.5 107.5q62 6 100 0q10 -85 37 -85q29 0 36 85z " />
<glyph horiz-adv-x="641" d="M591 0h-199v228q0 26 -18 43.5t-40.5 17.5t-41.5 -14v-275h-242v520h242v-102q23 53 51.5 81t76.5 28q68 0 119 -51.5t52 -124.5v-351z" />
<glyph horiz-adv-x="875" d="M50 520h174l29 -101q17 32 30 50.5t39.5 34.5t60.5 16q25 0 44 -5t30.5 -10.5t21 -18t13.5 -20.5t11 -24.5t10 -22.5q20 46 65 73.5t93 27.5q73 0 110 -61t42 -176.5t-7 -282.5h-188v116q0 17 -11 30t-32 13q-19 0 -44 -29v-130h-187v130q0 16 -12.5 29.5t-31.5 13.5 q-22 0 -43 -29v-144h-217v520z" />
<glyph horiz-adv-x="520" d="M510 0h-220l-73 270l-67 -270h-140l130 520h230z" />
</font>
</defs>
</svg>
